<?xml version="1.0" encoding="UTF-8" standalone="no"?><!DOCTYPE svg PUBLIC "-//W3C//DTD SVG 1.1//EN" "http://www.w3.org/Graphics/SVG/1.1/DTD/svg11.dtd"><svg width="100%" height="100%" viewBox="0 0 5600 2800" version="1.1" xmlns="http://www.w3.org/2000/svg" xmlns:xlink="http://www.w3.org/1999/xlink" xml:space="preserve" xmlns:serif="http://www.serif.com/" style="fill-rule:evenodd;clip-rule:evenodd;stroke-linejoin:round;stroke-miterlimit:2;"><g><g><path d="M1384.7,324.035c12.42,-9.445 27.84,-12.151 41.91,-8.744c0.47,-14.466 7.2,-28.607 19.62,-38.051c21.9,-16.656 53.16,-12.403 69.81,9.497c15.6,20.515 12.86,49.236 -5.56,66.479l134.47,176.815c21.54,-13.137 49.95,-8.11 65.55,12.405c16.65,21.9 12.4,53.155 -9.5,69.81c-12.42,9.444 -27.84,12.151 -41.91,8.744c-0.47,14.466 -7.2,28.607 -19.62,38.051c-21.9,16.655 -53.16,12.403 -69.81,-9.497c-15.6,-20.515 -12.86,-49.237 5.56,-66.479l-134.47,-176.815c-21.54,13.136 -49.95,8.11 -65.55,-12.405c-16.65,-21.9 -12.4,-53.155 9.5,-69.81Zm30.19,114.473c5.87,0 11.72,-0.692 17.42,-2.058l111.52,146.641c-14.5,25.948 -12.3,57.609 5.93,81.586c14.27,18.767 35.99,29.531 59.59,29.531c16.47,0 32.12,-5.279 45.25,-15.269c10.93,-8.311 19.27,-19.309 24.27,-31.957c13.52,-1.43 26.34,-6.526 37.26,-14.838c15.89,-12.079 26.12,-29.648 28.82,-49.471c2.69,-19.823 -2.47,-39.488 -14.55,-55.37c-14.27,-18.767 -35.99,-29.53 -59.59,-29.53c-5.87,-0 -11.72,0.692 -17.42,2.057l-111.52,-146.64c14.5,-25.947 12.3,-57.608 -5.93,-81.586c-14.27,-18.767 -35.99,-29.531 -59.59,-29.531c-16.47,-0 -32.12,5.279 -45.25,15.268c-10.93,8.311 -19.27,19.31 -24.27,31.958c-13.52,1.43 -26.34,6.526 -37.27,14.837c-15.9,12.096 -26.15,29.665 -28.84,49.467c-2.69,19.803 2.48,39.469 14.58,55.375c14.27,18.767 35.99,29.53 59.59,29.53Z" style="fill:#fff;fill-rule:nonzero;"/><path d="M722.201,2431.26c-22.133,13.2 -50.366,7.26 -65.438,-12.97l-190.761,113.83c10.644,22.87 2.467,50.53 -19.666,63.74c-23.627,14.1 -54.209,6.37 -68.308,-17.25c-7.994,-13.4 -8.957,-29.03 -3.995,-42.63c-14.323,-2.09 -27.621,-10.36 -35.615,-23.76c-14.099,-23.63 -6.373,-54.21 17.254,-68.31c22.133,-13.2 50.366,-7.26 65.438,12.97l190.761,-113.82c-10.643,-22.87 -2.467,-50.54 19.666,-63.75c23.627,-14.1 54.209,-6.37 68.308,17.25c7.994,13.4 8.957,29.03 3.995,42.63c14.323,2.09 27.621,10.36 35.615,23.76c14.099,23.63 6.373,54.21 -17.254,68.31Zm9.694,-108.81c0.083,-13.6 -3.548,-26.91 -10.582,-38.7c-13.429,-22.5 -38.065,-36.48 -64.297,-36.48c-13.455,0 -26.695,3.65 -38.29,10.57c-25.868,15.44 -39.728,43.99 -35.966,73.47l-158.231,94.42c-12.652,-8.96 -27.923,-13.86 -43.38,-13.86c-13.452,-0 -26.691,3.66 -38.286,10.58c-17.162,10.23 -29.31,26.55 -34.204,45.92c-4.895,19.38 -1.951,39.5 8.29,56.66c7.033,11.79 17.025,21.31 29.029,27.69c-0.084,13.59 3.547,26.91 10.581,38.7c13.43,22.5 38.066,36.49 64.298,36.49c13.454,0 26.695,-3.66 38.289,-10.58c25.869,-15.44 39.73,-43.99 35.967,-73.47l158.231,-94.42c12.652,8.96 27.922,13.86 43.381,13.86c13.452,-0 26.692,-3.66 38.284,-10.57c17.163,-10.24 29.311,-26.56 34.205,-45.93c4.895,-19.38 1.951,-39.5 -8.29,-56.66c-7.034,-11.79 -17.026,-21.31 -29.029,-27.69Z" style="fill:#fff;fill-rule:nonzero;"/><path d="M375.064,465.539c5.538,-25.171 29.207,-41.671 54.268,-38.798l47.73,-216.949c-23.954,-7.911 -38.512,-32.82 -32.975,-57.991c5.912,-26.872 32.487,-43.863 59.359,-37.951c15.236,3.352 27.285,13.357 33.794,26.285c11.333,-9.003 26.467,-13.027 41.705,-9.675c26.871,5.912 43.862,32.488 37.95,59.359c-5.538,25.171 -29.208,41.67 -54.268,38.797l-47.731,216.95c23.953,7.91 38.513,32.82 32.976,57.991c-5.912,26.871 -32.487,43.862 -59.359,37.95c-15.237,-3.352 -27.285,-13.357 -33.794,-26.285c-11.333,9.003 -26.467,13.028 -41.705,9.676c-26.871,-5.912 -43.862,-32.488 -37.95,-59.359Zm32.578,83.774c5.292,1.165 10.712,1.756 16.109,1.757c8.144,0 16.176,-1.333 23.923,-3.965c9.854,9.384 22.05,15.867 35.468,18.819c5.302,1.167 10.726,1.758 16.122,1.758c16.795,-0 33.314,-5.776 46.515,-16.262c13.41,-10.654 22.824,-25.744 26.509,-42.491c6.472,-29.42 -4.835,-59.076 -28.896,-76.529l39.585,-179.934c11.61,-2.345 22.551,-7.419 31.826,-14.786c13.408,-10.651 22.822,-25.741 26.508,-42.49c8.864,-40.291 -16.703,-80.282 -56.994,-89.146c-5.298,-1.166 -10.718,-1.757 -16.108,-1.757c-8.143,0 -16.176,1.333 -23.924,3.966c-9.852,-9.385 -22.048,-15.866 -35.467,-18.818c-5.302,-1.167 -10.727,-1.758 -16.124,-1.758c-16.795,0 -33.314,5.775 -46.515,16.261c-13.409,10.652 -22.823,25.742 -26.508,42.491c-6.472,29.42 4.835,59.075 28.896,76.529l-39.585,179.933c-11.611,2.345 -22.552,7.419 -31.826,14.787c-13.408,10.65 -22.823,25.74 -26.508,42.489c-8.864,40.291 16.703,80.282 56.994,89.146Z" style="fill:#fff;fill-rule:nonzero;"/><path d="M1606.97,1105.21c-0.12,27.51 -22.52,49.72 -50.03,49.61c-25.77,-0.11 -46.89,-19.78 -49.36,-44.88l-222.14,-0.95c-2.68,25.09 -23.97,44.57 -49.74,44.46c-27.51,-0.12 -49.72,-22.52 -49.6,-50.03c0.06,-15.6 7.3,-29.49 18.57,-38.58c-11.19,-9.18 -18.31,-23.12 -18.25,-38.73c0.12,-27.509 22.52,-49.718 50.03,-49.601c25.78,0.11 46.89,19.773 49.36,44.871l222.14,0.95c2.69,-25.081 23.97,-44.563 49.74,-44.454c27.52,0.117 49.73,22.514 49.61,50.034c-0.07,15.6 -7.31,29.48 -18.58,38.57c11.19,9.18 18.32,23.13 18.25,38.73Zm3.62,-130.172c-14.09,-14.206 -32.84,-22.077 -52.81,-22.162l-0.3,-0c-29.96,-0 -56.44,17.301 -68.39,44.373l-184.19,-0.783c-11.76,-27.299 -38.22,-44.828 -68.36,-44.956l-0.3,0c-41.08,0 -74.64,33.42 -74.82,74.5c-0.05,13.73 3.59,27.03 10.58,38.7c-7.09,11.6 -10.85,24.87 -10.9,38.6c-0.09,19.99 7.61,38.81 21.68,53c14.07,14.19 32.83,22.05 52.84,22.14l0.3,-0c29.95,-0 56.43,-17.3 68.39,-44.37l184.18,0.78c11.76,27.3 38.22,44.83 68.36,44.96l0.31,-0c41.07,-0 74.63,-33.42 74.81,-74.5c0.06,-13.73 -3.59,-27.04 -10.58,-38.7c7.09,-11.6 10.85,-24.88 10.91,-38.61c0.08,-19.95 -7.63,-38.765 -21.71,-52.972Z" style="fill:#fff;fill-rule:nonzero;"/><path d="M1018.46,1511.51c-15.98,22.4 -47.088,27.61 -69.487,11.63c-20.983,-14.96 -26.877,-43.21 -14.405,-65.13l-180.849,-129c-16.671,18.94 -45.294,22.56 -66.277,7.59c-22.4,-15.97 -27.607,-47.08 -11.629,-69.49c9.059,-12.7 22.987,-19.86 37.432,-20.77c-3.836,-13.96 -1.603,-29.46 7.457,-42.16c15.978,-22.4 47.088,-27.61 69.487,-11.63c20.983,14.97 26.876,43.21 14.405,65.14l180.849,128.99c16.667,-18.93 45.297,-22.55 66.277,-7.59c22.4,15.98 27.61,47.09 11.63,69.49c-9.06,12.7 -22.99,19.86 -37.43,20.78c3.83,13.95 1.6,29.45 -7.46,42.15Zm20.35,14.52c7.97,-11.17 12.68,-24.15 13.7,-37.7c12.48,-5.39 23.22,-14.06 31.19,-25.23c11.61,-16.27 16.18,-36.09 12.88,-55.8c-3.3,-19.71 -14.07,-36.96 -30.34,-48.56c-12.76,-9.1 -27.77,-13.91 -43.4,-13.91c-13.55,-0 -26.712,3.62 -38.289,10.51l-149.987,-106.98c6.154,-29.09 -5.333,-58.67 -29.857,-76.16c-12.76,-9.1 -27.769,-13.91 -43.405,-13.91c-24.153,0 -46.939,11.73 -60.952,31.37c-7.972,11.18 -12.676,24.15 -13.701,37.71c-12.484,5.38 -23.219,14.05 -31.188,25.23c-11.588,16.24 -16.151,36.06 -12.849,55.79c3.303,19.73 14.067,36.98 30.313,48.56c12.757,9.11 27.765,13.92 43.401,13.92c13.547,-0 26.71,-3.63 38.285,-10.51l149.987,106.98c-6.154,29.08 5.334,58.66 29.859,76.16c12.757,9.1 27.766,13.91 43.403,13.91c24.15,0 46.94,-11.73 60.95,-31.38Z" style="fill:#fff;fill-rule:nonzero;"/><path d="M257.091,1039.3c19.369,-17 48.211,-16.28 66.705,0.88l166.937,-146.554c-14.617,-20.56 -11.597,-49.253 7.772,-66.257c20.677,-18.151 52.153,-16.105 70.305,4.573c10.293,11.724 14.076,26.92 11.665,41.192c14.464,-0.542 29.042,5.177 39.335,16.902c18.152,20.677 16.104,52.153 -4.573,70.305c-19.368,17.003 -48.212,16.28 -66.704,-0.875l-166.938,146.554c14.616,20.55 11.597,49.25 -7.772,66.25c-20.677,18.15 -52.153,16.11 -70.305,-4.57c-10.293,-11.72 -14.076,-26.92 -11.664,-41.19c-14.464,0.54 -29.043,-5.18 -39.335,-16.9c-18.152,-20.68 -16.105,-52.16 4.572,-70.31Zm10.205,108.73c2.382,13.4 8.371,25.84 17.434,36.16c14.205,16.18 34.706,25.46 56.246,25.46c18.159,0 35.682,-6.6 49.34,-18.59c22.639,-19.87 31.088,-50.47 22.037,-78.78l138.439,-121.531c9.831,4.569 20.683,6.971 31.603,6.971c18.158,-0 35.679,-6.603 49.336,-18.591c15.019,-13.186 24.005,-31.43 25.301,-51.371c1.297,-19.943 -5.25,-39.197 -18.434,-54.215c-9.022,-10.277 -20.574,-17.814 -33.566,-21.932c-2.382,-13.394 -8.37,-25.839 -17.434,-36.164c-14.205,-16.179 -34.705,-25.458 -56.246,-25.458c-18.16,0 -35.683,6.603 -49.34,18.592c-22.637,19.874 -31.088,50.466 -22.037,78.779l-138.438,121.53c-9.831,-4.57 -20.684,-6.97 -31.603,-6.97c-18.158,0 -35.68,6.6 -49.337,18.59c-31.002,27.22 -34.083,74.58 -6.867,105.59c9.02,10.27 20.572,17.81 33.566,21.93Z" style="fill:#fff;fill-rule:nonzero;"/><path d="M748.211,1972.23c-13.222,8.28 -28.828,9.58 -42.529,4.91c-1.782,14.37 -9.763,27.84 -22.985,36.12c-23.319,14.61 -54.06,7.54 -68.665,-15.78c-13.68,-21.84 -8.347,-50.19 11.551,-65.7l-117.911,-188.26c-22.636,11.13 -50.475,3.56 -64.155,-18.29c-14.605,-23.31 -7.542,-54.06 15.777,-68.66c13.222,-8.28 28.828,-9.58 42.529,-4.91c1.782,-14.37 9.763,-27.84 22.986,-36.12c23.318,-14.61 54.059,-7.54 68.664,15.77c13.68,21.85 8.345,50.2 -11.551,65.71l117.911,188.26c22.635,-11.14 50.475,-3.56 64.155,18.28c14.605,23.32 7.542,54.06 -15.777,68.67Zm-26.488,-117.04c-3.576,0 -7.178,0.26 -10.746,0.78l-97.792,-156.14c16.788,-24.53 17.464,-56.26 1.476,-81.79c-13.771,-21.98 -37.493,-35.11 -63.455,-35.11c-14.025,0 -27.742,3.95 -39.668,11.42c-11.639,7.29 -20.942,17.49 -27.065,29.64c-13.602,0.21 -26.872,4.14 -38.45,11.39c-16.938,10.61 -28.73,27.18 -33.204,46.66c-4.475,19.47 -1.098,39.53 9.511,56.46c13.768,21.99 37.488,35.11 63.45,35.11c3.574,-0 7.176,-0.26 10.748,-0.78l97.793,156.14c-16.79,24.52 -17.467,56.25 -1.476,81.78c13.769,21.99 37.491,35.12 63.455,35.12c14.025,-0 27.741,-3.95 39.667,-11.42c11.639,-7.29 20.942,-17.49 27.065,-29.64c13.601,-0.21 26.872,-4.14 38.45,-11.39c16.937,-10.61 28.729,-27.18 33.204,-46.66c4.476,-19.47 1.099,-39.53 -9.51,-56.47c-13.769,-21.98 -37.49,-35.1 -63.453,-35.1Z" style="fill:#fff;fill-rule:nonzero;"/><path d="M1529.97,1735.54l-101.97,-197.35c-23.48,9.22 -50.6,-0.63 -62.43,-23.52c-12.63,-24.45 -3.05,-54.5 21.39,-67.13c13.86,-7.16 29.52,-7.17 42.79,-1.39c2.96,-14.17 12.03,-26.93 25.89,-34.1c24.45,-12.63 54.5,-3.05 67.13,21.39c11.83,22.9 4.17,50.72 -16.94,64.53l101.98,197.35c23.47,-9.23 50.59,0.62 62.42,23.52c12.63,24.44 3.06,54.5 -21.39,67.13c-13.86,7.16 -29.52,7.17 -42.79,1.38c-2.96,14.17 -12.03,26.94 -25.89,34.1c-24.44,12.63 -54.49,3.06 -67.12,-21.39c-11.84,-22.89 -4.18,-50.71 16.93,-64.52Zm61.67,108.12c12.19,-6.3 22.3,-15.69 29.41,-27.28c13.56,0.91 27.07,-1.9 39.27,-8.2c24.54,-12.68 40.05,-37.73 40.47,-65.37c0.19,-12.25 -2.7,-24.51 -8.35,-35.45c-13.83,-26.76 -41.48,-42.34 -71.14,-40.38l-84.56,-163.66c10.47,-12.96 16.33,-29.13 16.59,-45.91c0.19,-12.25 -2.7,-24.51 -8.35,-35.44c-9.17,-17.76 -24.71,-30.88 -43.75,-36.94c-19.04,-6.07 -39.31,-4.36 -57.06,4.81c-12.2,6.31 -22.31,15.7 -29.41,27.29c-13.57,-0.91 -27.08,1.9 -39.27,8.2c-24.55,12.68 -40.06,37.73 -40.48,65.37c-0.19,12.25 2.7,24.51 8.35,35.44c13.83,26.76 41.48,42.34 71.14,40.39l84.56,163.66c-10.46,12.96 -16.33,29.13 -16.58,45.91c-0.19,12.25 2.7,24.5 8.35,35.44c18.93,36.65 64.16,51.06 100.81,32.12Z" style="fill:#fff;fill-rule:nonzero;"/><path d="M5305.58,348.846c-23.75,10.006 -50.88,0.199 -63,-21.923l-204.72,86.241c7.37,24.125 -4.57,50.393 -28.32,60.399c-25.36,10.682 -54.57,-1.213 -65.25,-26.569c-6.06,-14.378 -4.84,-29.991 1.96,-42.768c-13.9,-4.059 -25.92,-14.095 -31.97,-28.473c-10.69,-25.356 1.21,-54.57 26.57,-65.251c23.75,-10.006 50.88,-0.201 63,21.923l204.71,-86.241c-7.36,-24.127 4.58,-50.393 28.33,-60.399c25.35,-10.682 54.57,1.213 65.25,26.569c6.06,14.378 4.84,29.991 -1.96,42.768c13.89,4.059 25.92,14.095 31.97,28.473c10.68,25.356 -1.21,54.57 -26.57,65.251Zm49.96,-17.694c7.53,-18.51 7.41,-38.845 -0.35,-57.263c-5.33,-12.651 -13.9,-23.463 -24.9,-31.451c1.97,-13.452 0.22,-27.139 -5.11,-39.79c-11.72,-27.812 -38.79,-45.784 -68.97,-45.784c-10,0 -19.76,1.979 -29.03,5.882c-27.76,11.695 -45.45,38.046 -45.81,67.768l-169.77,71.52c-13.81,-13.037 -32.36,-20.452 -51.44,-20.452c-9.99,0 -19.76,1.978 -29.02,5.881c-18.42,7.758 -32.71,22.224 -40.25,40.733c-7.54,18.51 -7.41,38.846 0.35,57.263c5.33,12.649 13.9,23.463 24.9,31.45c-1.97,13.451 -0.22,27.141 5.11,39.792c11.72,27.809 38.79,45.78 68.97,45.783l0.01,-0c9.99,-0 19.75,-1.979 29.02,-5.883c27.76,-11.695 45.45,-38.046 45.81,-67.767l169.77,-71.521c13.81,13.037 32.36,20.453 51.44,20.453c9.99,0 19.76,-1.978 29.02,-5.88c18.41,-7.758 32.71,-22.225 40.25,-40.734Z" style="fill:#fff;fill-rule:nonzero;"/><path d="M4703.84,802.343c7.6,-26.444 35.19,-41.721 61.64,-34.123c24.77,7.117 39.74,31.783 35.29,56.611l213.5,61.344c9.41,-23.404 35.19,-36.361 59.96,-29.244c26.44,7.598 41.72,35.194 34.12,61.639c-4.31,14.995 -15.05,26.386 -28.37,32.065c8.27,11.88 11.33,27.238 7.02,42.233c-7.59,26.442 -35.19,41.722 -61.63,34.122c-24.78,-7.12 -39.75,-31.78 -35.3,-56.61l-213.5,-61.344c-9.4,23.405 -35.18,36.361 -59.95,29.243c-26.45,-7.597 -41.73,-35.193 -34.13,-61.638c4.31,-14.995 15.06,-26.386 28.37,-32.065c-8.27,-11.88 -11.33,-27.238 -7.02,-42.233Zm-24.03,-6.903c-3.79,13.194 -3.9,26.993 -0.35,40.115c-9.97,9.236 -17.21,20.99 -21,34.183c-11.39,39.652 11.6,81.177 51.25,92.569c6.75,1.939 13.71,2.922 20.69,2.922c22.57,0 43.34,-9.767 57.52,-26.922l177.01,50.859c3.89,29.464 24.58,53.534 53.53,61.854c6.75,1.94 13.7,2.92 20.69,2.92c33.16,-0 62.72,-22.27 71.88,-54.168c3.79,-13.193 3.9,-26.993 0.35,-40.116c9.98,-9.236 17.21,-20.99 21,-34.183c11.39,-39.651 -11.6,-81.177 -51.25,-92.57c-6.75,-1.938 -13.71,-2.922 -20.68,-2.922c-22.57,-0 -43.35,9.769 -57.52,26.924l-177.01,-50.86c-3.89,-29.469 -24.59,-53.535 -53.54,-61.854c-6.75,-1.938 -13.71,-2.922 -20.68,-2.922c-33.16,0 -62.72,22.276 -71.89,54.171Z" style="fill:#fff;fill-rule:nonzero;"/><path d="M3175.06,465.539c5.54,-25.171 29.21,-41.671 54.27,-38.798l47.73,-216.949c-23.95,-7.911 -38.51,-32.82 -32.97,-57.991c5.91,-26.872 32.48,-43.863 59.36,-37.951c15.23,3.352 27.28,13.357 33.79,26.285c11.33,-9.003 26.47,-13.027 41.7,-9.675c26.88,5.912 43.87,32.488 37.96,59.359c-5.54,25.171 -29.21,41.67 -54.27,38.797l-47.73,216.95c23.95,7.91 38.51,32.82 32.97,57.991c-5.91,26.871 -32.49,43.862 -59.36,37.95c-15.23,-3.352 -27.28,-13.357 -33.79,-26.285c-11.33,9.003 -26.47,13.028 -41.71,9.676c-26.87,-5.912 -43.86,-32.488 -37.95,-59.359Zm32.58,83.774c5.29,1.165 10.71,1.756 16.11,1.757c8.15,0 16.18,-1.333 23.92,-3.965c9.86,9.384 22.05,15.867 35.47,18.819c5.3,1.167 10.73,1.758 16.12,1.758c16.8,-0 33.32,-5.776 46.52,-16.262c13.41,-10.654 22.82,-25.744 26.51,-42.491c6.47,-29.42 -4.84,-59.076 -28.9,-76.529l39.59,-179.934c11.61,-2.345 22.55,-7.419 31.82,-14.786c13.41,-10.651 22.83,-25.741 26.51,-42.49c8.87,-40.291 -16.7,-80.282 -56.99,-89.146c-5.3,-1.166 -10.72,-1.757 -16.11,-1.757c-8.14,0 -16.18,1.333 -23.93,3.966c-9.85,-9.385 -22.04,-15.866 -35.46,-18.818c-5.3,-1.167 -10.73,-1.758 -16.13,-1.758c-16.79,0 -33.31,5.775 -46.51,16.261c-13.41,10.652 -22.82,25.742 -26.51,42.491c-6.47,29.42 4.84,59.075 28.9,76.529l-39.59,179.933c-11.61,2.345 -22.55,7.419 -31.82,14.787c-13.41,10.65 -22.83,25.74 -26.51,42.489c-8.87,40.291 16.7,80.282 56.99,89.146Z" style="fill:#fff;fill-rule:nonzero;"/><path d="M4980.89,1662.84c-3.86,13.95 -13.72,26.12 -28,32.39c-25.2,11.06 -54.58,-0.41 -65.64,-25.6c-10.35,-23.61 -0.95,-50.88 20.99,-63.33l-89.24,-203.42c-24.02,7.72 -50.46,-3.83 -60.81,-27.43c-11.06,-25.19 0.41,-54.58 25.6,-65.63c14.29,-6.27 29.92,-5.29 42.79,1.33c3.86,-13.96 13.72,-26.12 28,-32.39c25.2,-11.06 54.58,0.41 65.64,25.6c10.35,23.6 0.95,50.88 -20.99,63.32l89.24,203.42c24.02,-7.72 50.46,3.83 60.81,27.44c11.06,25.19 -0.41,54.58 -25.6,65.63c-14.29,6.27 -29.92,5.28 -42.79,-1.33Zm92.47,-17.1c7.27,-18.62 6.85,-38.95 -1.18,-57.25c-11.92,-27.16 -38.76,-44.72 -68.42,-44.77l-74.02,-168.7c20.19,-21.82 25.48,-53.12 13.37,-80.7c-11.93,-27.2 -38.83,-44.77 -68.54,-44.77c-10.37,0 -20.48,2.12 -30.03,6.31c-12.58,5.52 -23.27,14.26 -31.1,25.39c-3.22,-0.42 -6.46,-0.64 -9.68,-0.64c-10.37,-0 -20.47,2.13 -30.01,6.31c-18.3,8.03 -32.38,22.71 -39.65,41.32c-7.26,18.62 -6.84,38.96 1.19,57.26c11.92,27.15 38.76,44.71 68.42,44.76l74.02,168.71c-20.19,21.82 -25.48,53.11 -13.37,80.7c11.93,27.2 38.83,44.77 68.54,44.77c10.37,-0 20.48,-2.12 30.03,-6.32c12.58,-5.51 23.27,-14.25 31.1,-25.38c3.22,0.42 6.46,0.64 9.69,0.64c10.36,0 20.46,-2.13 30,-6.31c18.3,-8.03 32.38,-22.71 39.64,-41.33Z" style="fill:#fff;fill-rule:nonzero;"/><path d="M3696.49,574.72c25.53,-3.549 49.23,12.917 55.24,37.415l220.02,-30.594c-0.9,-25.208 17.4,-47.513 42.93,-51.063c27.25,-3.789 52.41,15.23 56.2,42.482c2.15,15.454 -3.05,30.226 -12.91,40.82c12.38,7.501 21.41,20.295 23.56,35.748c3.79,27.252 -15.23,52.415 -42.49,56.204c-25.52,3.55 -49.22,-12.915 -55.23,-37.414l-220.02,30.593c0.9,25.21 -17.4,47.514 -42.93,51.063c-27.25,3.79 -52.41,-15.23 -56.2,-42.482c-2.15,-15.453 3.05,-30.225 12.91,-40.819c-12.38,-7.501 -21.41,-20.295 -23.56,-35.748c-3.79,-27.253 15.23,-52.416 42.48,-56.205Zm-51.28,96.452c-5.36,12.489 -7.2,26.167 -5.31,39.763c5.11,36.783 36.94,64.52 74.04,64.52c3.45,-0 6.94,-0.242 10.37,-0.719c29.83,-4.149 53.71,-25.053 61.72,-53.678l182.44,-25.366c13.51,21.997 37.59,35.521 63.65,35.521c3.45,-0 6.93,-0.242 10.37,-0.719c19.79,-2.752 37.33,-13.048 49.38,-28.991c12.05,-15.943 17.17,-35.623 14.42,-55.417c-1.89,-13.596 -7.39,-26.254 -15.96,-36.806c5.36,-12.488 7.199,-26.165 5.31,-39.762c-5.11,-36.783 -36.94,-64.521 -74.04,-64.521c-3.45,0 -6.93,0.242 -10.37,0.72c-29.83,4.147 -53.71,25.05 -61.73,53.676l-182.43,25.368c-13.52,-21.998 -37.59,-35.522 -63.65,-35.522c-3.45,0 -6.94,0.242 -10.37,0.719c-40.86,5.683 -69.48,43.55 -63.8,84.411c1.89,13.596 7.39,26.252 15.96,36.803Z" style="fill:#fff;fill-rule:nonzero;"/><path d="M3117,1118.06c17.88,-18.55 46.69,-20.23 66.54,-4.67l154.17,-159.934c-16.28,-19.273 -15.65,-48.118 2.23,-66.673c19.1,-19.809 50.64,-20.388 70.45,-1.292c11.23,10.827 16.26,25.656 15.05,40.079c14.36,-1.744 29.37,2.743 40.6,13.571c19.81,19.096 20.39,50.633 1.29,70.439c-17.88,18.56 -46.69,20.24 -66.54,4.68l-154.17,159.93c16.27,19.27 15.65,48.12 -2.23,66.67c-19.1,19.81 -50.64,20.39 -70.45,1.29c-11.23,-10.82 -16.26,-25.65 -15.05,-40.08c-14.37,1.75 -29.37,-2.74 -40.6,-13.57c-19.81,-19.09 -20.39,-50.63 -1.29,-70.44Zm19.21,107.51c3.49,13.15 10.49,25.05 20.38,34.58c15.5,14.95 36.71,22.49 58.17,20.7c18.1,-1.51 35.01,-9.55 47.62,-22.64c20.91,-21.68 26.79,-52.87 15.41,-80.34l127.85,-132.62c10.18,3.73 21.19,5.22 32.07,4.31c18.1,-1.51 35.01,-9.54 47.62,-22.63c13.87,-14.39 21.31,-33.314 20.94,-53.294c-0.36,-19.981 -8.49,-38.624 -22.88,-52.494c-9.84,-9.49 -21.98,-16.04 -35.27,-19.063c-3.49,-13.15 -10.49,-25.053 -20.38,-34.589c-15.51,-14.941 -36.71,-22.482 -58.17,-20.691c-18.1,1.511 -35.01,9.549 -47.63,22.632c-20.9,21.689 -26.78,52.877 -15.4,80.34l-127.85,132.629c-10.18,-3.74 -21.19,-5.23 -32.07,-4.32c-18.1,1.51 -35.01,9.55 -47.62,22.63c-28.63,29.7 -27.76,77.16 1.94,105.79c9.84,9.49 21.98,16.04 35.27,19.07Z" style="fill:#fff;fill-rule:nonzero;"/><path d="M5285.71,2039.61c-6.27,25.001 -30.42,40.8 -55.38,37.19l-54.09,215.45c23.71,8.61 37.53,33.94 31.26,58.94c-6.7,26.68 -33.76,42.89 -60.45,36.19c-15.13,-3.8 -26.88,-14.16 -33.01,-27.27c-11.59,8.67 -26.83,12.24 -41.97,8.45c-26.68,-6.7 -42.88,-33.77 -36.19,-60.45c6.28,-25 30.42,-40.8 55.39,-37.19l54.08,-215.45c-23.71,-8.61 -37.53,-33.94 -31.25,-58.94c6.7,-26.68 33.76,-42.89 60.45,-36.19c15.13,3.8 26.88,14.16 33,27.27c11.6,-8.67 26.84,-12.24 41.97,-8.45c26.69,6.7 42.89,33.77 36.19,60.45Zm-30.1,-84.69c-5.98,-1.5 -12.11,-2.26 -18.23,-2.26c-7.39,-0 -14.72,1.1 -21.84,3.29c-9.58,-9.67 -21.58,-16.51 -34.91,-19.85c-5.98,-1.51 -12.12,-2.27 -18.25,-2.27c-34.34,0 -64.16,23.28 -72.53,56.62c-7.34,29.21 3.1,59.19 26.63,77.34l-44.85,178.67c-13.67,2.3 -26.35,8.33 -36.83,17.54c-11.43,10.05 -19.44,23.2 -23.16,38.02c-4.87,19.38 -1.9,39.5 8.37,56.65c10.27,17.15 26.59,29.27 45.98,34.13c5.97,1.5 12.11,2.26 18.23,2.26c7.39,-0 14.72,-1.1 21.84,-3.29c9.57,9.67 21.58,16.51 34.91,19.85c5.98,1.51 12.12,2.27 18.25,2.27c34.34,0 64.16,-23.28 72.53,-56.62c7.33,-29.21 -3.1,-59.19 -26.64,-77.34l44.85,-178.67c13.68,-2.3 26.35,-8.33 36.83,-17.54c11.44,-10.05 19.45,-23.2 23.17,-38.02c4.87,-19.38 1.89,-39.5 -8.37,-56.65c-10.27,-17.14 -26.6,-29.27 -45.98,-34.13Z" style="fill:#fff;fill-rule:nonzero;"/><path d="M4277.41,2297c-7.74,13.55 -20.88,22.06 -35.16,24.42c5.21,13.5 4.54,29.15 -3.2,42.69c-13.66,23.89 -44.09,32.18 -67.981,18.53c-22.369,-12.79 -31.069,-40.31 -20.849,-63.37l-192.85,-110.25c-14.69,20.5 -42.81,26.97 -65.18,14.18c-23.89,-13.65 -32.18,-44.09 -18.53,-67.97c7.75,-13.55 20.89,-22.06 35.17,-24.42c-5.21,-13.51 -4.54,-29.15 3.2,-42.689c13.66,-23.891 44.09,-32.181 67.97,-18.53c22.38,12.789 31.07,40.309 20.85,63.369l192.85,110.25c14.7,-20.5 42.81,-26.97 65.19,-14.18c23.88,13.65 32.18,44.09 18.52,67.97Zm-6.11,-89.68c-11.3,-6.46 -24.13,-9.87 -37.09,-9.87c-15.99,0 -31.67,5.19 -44.52,14.67l-159.95,-91.44c3.21,-29.55 -11.18,-57.839 -37.33,-72.79c-11.3,-6.46 -24.12,-9.88 -37.08,-9.88c-26.81,0 -51.71,14.45 -65,37.7c-6.82,11.911 -10.2,25.29 -9.86,38.88c-11.88,6.61 -21.7,16.31 -28.51,28.23c-9.92,17.35 -12.49,37.52 -7.23,56.8c5.25,19.29 17.7,35.37 35.05,45.29c11.3,6.45 24.12,9.87 37.08,9.87c15.99,0 31.67,-5.19 44.53,-14.67l159.94,91.44c-3.21,29.55 11.179,57.84 37.33,72.79c11.3,6.46 24.119,9.87 37.09,9.87c26.8,-0 51.71,-14.44 65,-37.69c6.81,-11.92 10.19,-25.3 9.86,-38.89c11.88,-6.6 21.69,-16.3 28.5,-28.22c9.92,-17.35 12.49,-37.52 7.24,-56.81c-5.26,-19.28 -17.7,-35.36 -35.05,-45.28Z" style="fill:#fff;fill-rule:nonzero;"/><path d="M81.483,667.485c6.243,-18.985 4.721,-39.264 -4.288,-57.102c-9.007,-17.839 -24.423,-31.103 -43.409,-37.348c-7.577,-2.491 -15.437,-3.755 -23.363,-3.755c-3.492,0 -6.975,0.245 -10.423,0.731l-0,25.398c8.352,-1.799 17.273,-1.488 25.976,1.375c26.136,8.597 40.354,36.754 31.757,62.89c-8.034,24.424 -33.148,38.433 -57.733,33.149l0,79.436l17.652,-53.667c29.61,-2.818 54.442,-22.568 63.831,-51.107Z" style="fill:#fff;fill-rule:nonzero;"/><path d="M265.689,2027.99c-13.529,-11.54 -30.765,-17.9 -48.53,-17.9c-11.303,0 -22.492,2.56 -32.573,7.43l-140.143,-119.56c8.65,-28.43 -0.233,-58.9 -23.151,-78.45c-6.382,-5.45 -13.595,-9.72 -21.292,-12.74l-0,27.97c1.743,1.15 3.44,2.4 5.067,3.79c19.608,16.72 23.033,45.37 8.711,66.14l169,144.161c18.247,-17.411 47.077,-18.541 66.685,-1.821c20.933,17.861 23.427,49.3 5.57,70.24c-10.126,11.86 -24.621,17.79 -39.092,17.45c2.614,14.24 -0.953,29.49 -11.079,41.36c-17.857,20.93 -49.301,23.42 -70.233,5.57c-19.608,-16.73 -23.034,-45.38 -8.711,-66.14l-125.918,-107.42l-0,32.86l95.252,81.26c-8.649,28.44 0.233,58.91 23.152,78.46c13.528,11.54 30.763,17.89 48.532,17.89l0.005,-0c21.949,-0 42.703,-9.57 56.939,-26.26c8.914,-10.44 14.726,-22.97 16.919,-36.39c12.922,-4.3 24.367,-12 33.253,-22.42c12.971,-15.2 19.244,-34.55 17.663,-54.47c-1.579,-19.919 -10.822,-38.04 -26.026,-51.01Z" style="fill:#fff;fill-rule:nonzero;"/><path d="M965.961,181.826c6.569,1.832 13.335,2.761 20.111,2.761c6.8,-0 13.514,-0.913 20.008,-2.719c9.31,9.904 21.119,17.043 34.34,20.732c6.58,1.834 13.35,2.764 20.13,2.764c33.43,0 63.05,-22.504 72.04,-54.725c8.1,-29.015 -1.55,-59.252 -24.6,-78.014l20.26,-72.625l-25.96,-0l-23.48,84.189c23.47,9.228 36.63,34.907 29.7,59.732c-7.39,26.501 -34.87,41.992 -61.37,34.598c-15.03,-4.193 -26.5,-14.851 -32.29,-28.12c-11.81,8.36 -27.144,11.539 -42.172,7.346c-26.503,-7.394 -41.992,-34.872 -34.598,-61.373c6.926,-24.825 31.475,-39.985 56.337,-35.726l16.923,-60.646l-25.957,0l-9.959,35.695c-29.052,4.21 -53.489,25.516 -61.425,53.959c-11.085,39.736 12.224,81.084 51.962,92.172Z" style="fill:#fff;fill-rule:nonzero;"/><path d="M2758.78,1214.27c15.43,-2.31 30.26,2.73 40.96,12.48c7.37,-12.46 20.06,-21.63 35.49,-23.94c27.21,-4.08 52.58,14.67 56.66,41.88c3.82,25.49 -12.4,49.36 -36.83,55.63l19.16,127.78l13.78,91.9c25.2,-1.17 47.7,16.89 51.52,42.38c4.08,27.21 -14.67,52.58 -41.88,56.66c-15.43,2.31 -30.26,-2.73 -40.96,-12.48c-7.37,12.46 -20.06,21.62 -35.49,23.94c-27.21,4.08 -52.58,-14.67 -56.66,-41.88c-3.82,-25.49 12.39,-49.36 36.83,-55.63l-11.17,-74.46l-21.77,-145.22c-25.2,1.17 -47.7,-16.9 -51.52,-42.38c-4.08,-27.21 14.67,-52.58 41.88,-56.66Zm-62.95,74.8c5.44,15.02 15.35,27.68 28.67,36.61c6.82,4.58 14.21,7.96 22.01,10.08l19.71,131.46l7.6,50.7c-25.19,15.79 -38.48,44.61 -34.01,74.4c0.74,4.93 1.97,9.78 3.65,14.44c12.08,33.35 46.33,53.73 81.43,48.46c13.58,-2.04 26.18,-7.67 36.64,-16.35c12.54,5.23 26.24,6.92 39.81,4.89c40.8,-6.12 69.02,-44.29 62.9,-85.09c-0.74,-4.92 -1.96,-9.78 -3.65,-14.43c-5.44,-15.02 -15.35,-27.68 -28.66,-36.61c-6.83,-4.58 -14.22,-7.96 -22.02,-10.08l-11.71,-78.13l-15.6,-104.04c25.19,-15.78 38.48,-44.6 34.01,-74.4c-0.74,-4.92 -1.97,-9.78 -3.65,-14.43c-12.08,-33.35 -46.33,-53.73 -81.43,-48.46c-13.58,2.03 -26.18,7.67 -36.64,16.35c-12.54,-5.24 -26.24,-6.93 -39.81,-4.89c-19.77,2.96 -37.2,13.44 -49.07,29.51c-11.88,16.08 -16.8,35.81 -13.83,55.57c0.74,4.93 1.97,9.78 3.65,14.44Z" style="fill:#fff;fill-rule:nonzero;"/><path d="M1166.96,2549.04c-6.57,-1.83 -13.34,-2.76 -20.11,-2.76c-6.8,-0 -13.52,0.91 -20.01,2.72c-9.31,-9.9 -21.12,-17.04 -34.34,-20.73c-6.58,-1.84 -13.35,-2.77 -20.14,-2.77c-33.421,0 -63.04,22.51 -72.03,54.73c-8.098,29.02 1.55,59.25 24.6,78.01l-39.547,141.76l25.957,0l42.77,-153.32c-23.47,-9.23 -36.63,-34.91 -29.7,-59.73c7.39,-26.5 34.87,-42 61.37,-34.6c15.03,4.19 26.5,14.85 32.28,28.12c11.82,-8.36 27.15,-11.54 42.18,-7.35c26.5,7.4 41.99,34.87 34.6,61.38c-6.93,24.82 -31.48,39.98 -56.34,35.72l-36.21,129.78l25.96,0l29.24,-104.83c29.06,-4.21 53.49,-25.51 61.43,-53.96c11.08,-39.73 -12.23,-81.08 -51.96,-92.17Z" style="fill:#fff;fill-rule:nonzero;"/><path d="M2801.23,89.961c-0.46,1.445 -0.86,2.896 -1.23,4.35c-3.1,12.226 -3.01,24.74 0,36.526c3.65,14.309 11.6,27.542 23.4,37.864c13.65,11.933 31.13,18.505 49.24,18.505c21.6,0 42.13,-9.315 56.34,-25.558c9.04,-10.339 15.01,-22.794 17.37,-36.194c12.98,-4.141 24.52,-11.699 33.52,-21.992c13.16,-15.041 19.68,-34.306 18.34,-54.247c-1.26,-18.898 -9.44,-36.25 -23.09,-49.215l-105.7,0l20.24,17.699c18.46,-17.188 47.3,-17.962 66.7,-0.994c20.71,18.116 22.81,49.588 4.7,70.297c-10.27,11.743 -24.84,17.488 -39.31,16.971c2.44,14.268 -1.32,29.471 -11.59,41.214c-18.11,20.709 -49.59,22.811 -70.3,4.696c-19.39,-16.969 -22.47,-45.657 -7.88,-66.242l-31.98,-27.97l-63.64,-55.671l-37.97,0l101.61,88.886l1.23,1.075Z" style="fill:#fff;fill-rule:nonzero;"/><path d="M4527.23,17.929c-1.8,13.473 0.11,27.14 5.59,39.725c11.9,27.309 38.83,44.954 68.62,44.954c10.31,-0 20.35,-2.098 29.85,-6.237c27.62,-12.028 44.99,-38.589 45,-68.314l64.42,-28.057l-62.61,0l-29.2,12.716c7.66,24.036 -3.96,50.444 -27.59,60.736c-25.23,10.986 -54.58,-0.556 -65.57,-25.781c-6.23,-14.304 -5.2,-29.93 1.45,-42.788c-4.05,-1.13 -7.94,-2.78 -11.58,-4.883l-36.24,0c4.88,6.94 10.9,12.997 17.86,17.929Z" style="fill:#fff;fill-rule:nonzero;"/><path d="M2097.68,2448.73c-1.771,-15.5 3.78,-30.14 13.89,-40.5c-12.19,-7.79 -20.911,-20.8 -22.681,-36.3c-3.139,-27.34 16.491,-52.04 43.821,-55.17c25.61,-2.93 48.89,14.1 54.31,38.74l164.44,-18.83l56.26,-6.45c-0.29,-25.22 18.54,-47.08 44.14,-50.01c27.34,-3.13 52.04,16.49 55.17,43.82c1.77,15.5 -3.78,30.15 -13.89,40.5c12.19,7.8 20.91,20.81 22.69,36.31c2.88,25.21 -13.59,48.16 -37.61,54.03c-2.02,0.5 -4.09,0.89 -6.22,1.13c-25.61,2.93 -48.89,-14.1 -54.31,-38.74l-220.7,25.28c0.3,25.22 -18.54,47.08 -44.14,50.01c-27.34,3.14 -52.04,-16.49 -55.17,-43.82Zm58.01,68.66c17.67,-2.02 34.07,-10.29 46.19,-23.28c7.7,-8.27 13.46,-18.2 16.78,-28.89l183.01,-20.96c14.9,25.72 43.25,40.01 73.17,36.58c8.34,-0.96 16.38,-3.32 23.84,-6.89c8.35,-4.01 15.95,-9.54 22.35,-16.4c14.98,-16.06 22.13,-37.76 19.63,-59.56c-1.56,-13.64 -6.76,-26.44 -15.08,-37.19c5.67,-12.38 7.85,-26.01 6.29,-39.61c-2.28,-19.86 -12.15,-37.64 -27.8,-50.07c-15.64,-12.43 -35.19,-18.02 -55.05,-15.75c-17.67,2.02 -34.07,10.29 -46.19,23.29c-7.7,8.26 -13.46,18.19 -16.78,28.88l-58.63,6.71l-124.38,14.25c-14.9,-25.72 -43.25,-40 -73.17,-36.57c-17.67,2.02 -34.07,10.29 -46.191,23.28l-0.01,0.01c-14.969,16.05 -22.119,37.76 -19.619,59.55c1.56,13.64 6.76,26.44 15.079,37.2c-5.669,12.38 -7.839,26 -6.289,39.6c2.28,19.86 12.15,37.64 27.8,50.07c15.64,12.43 35.19,18.03 55.05,15.75Z" style="fill:#fff;fill-rule:nonzero;"/><path d="M3765.96,181.826c6.57,1.832 13.34,2.761 20.11,2.761c6.8,-0 13.52,-0.913 20.01,-2.719c9.31,9.904 21.12,17.043 34.34,20.732c6.58,1.834 13.35,2.764 20.13,2.764c33.43,0 63.05,-22.504 72.04,-54.725c8.1,-29.015 -1.55,-59.252 -24.6,-78.014l20.26,-72.625l-25.96,-0l-23.48,84.189c23.47,9.228 36.63,34.907 29.7,59.732c-7.39,26.501 -34.87,41.992 -61.37,34.598c-15.03,-4.193 -26.5,-14.851 -32.29,-28.12c-11.81,8.36 -27.14,11.539 -42.17,7.346c-26.5,-7.394 -41.99,-34.872 -34.6,-61.373c6.93,-24.825 31.48,-39.985 56.34,-35.726l16.92,-60.646l-25.96,0l-9.96,35.695c-29.05,4.21 -53.48,25.516 -61.42,53.959c-11.09,39.736 12.22,81.084 51.96,92.172Z" style="fill:#fff;fill-rule:nonzero;"/><path d="M5600,130.837l0,-36.526c-3.1,12.226 -3.01,24.74 0,36.526Z" style="fill:#fff;fill-rule:nonzero;"/><path d="M2923.58,2779.38c-10.96,-0 -21.86,2.43 -31.72,7.03l-91.86,-80.36l-46.79,-40.93c9,-28.32 0.49,-58.9 -22.18,-78.74c-13.64,-11.93 -31.13,-18.5 -49.24,-18.5c-21.59,0 -42.12,9.32 -56.33,25.56c-9.05,10.34 -15.01,22.79 -17.37,36.19c-12.99,4.14 -24.52,11.7 -33.53,21.99c-13.16,15.04 -19.67,34.31 -18.34,54.25c1.33,19.94 10.35,38.17 25.39,51.33c13.65,11.93 31.13,18.5 49.24,18.5c10.97,0 21.86,-2.42 31.73,-7.03l35.81,31.33l37.97,0l-71.58,-62.61c-18.46,17.18 -47.31,17.96 -66.71,0.99c-20.7,-18.12 -22.81,-49.59 -4.69,-70.3c10.27,-11.74 24.84,-17.49 39.3,-16.97c-2.43,-14.27 1.32,-29.47 11.59,-41.21c18.12,-20.71 49.59,-22.81 70.3,-4.7c19.4,16.97 22.47,45.66 7.89,66.24l77.54,67.83l69.42,60.73l105.7,0c-0.75,-0.72 -1.51,-1.43 -2.3,-2.11c-13.64,-11.93 -31.13,-18.51 -49.24,-18.51Z" style="fill:#fff;fill-rule:nonzero;"/><path d="M5515.81,1827.87c-8.91,10.45 -14.72,22.97 -16.91,36.4c-12.93,4.29 -24.37,12 -33.26,22.41c-12.97,15.21 -19.24,34.55 -17.66,54.47c1.58,19.93 10.82,38.04 26.03,51.01c13.53,11.54 30.76,17.9 48.53,17.9c11.3,-0 22.49,-2.56 32.57,-7.42l44.89,38.29l0,-32.86l-43.08,-36.75c-18.25,17.42 -47.08,18.55 -66.69,1.82c-20.93,-17.86 -23.42,-49.3 -5.57,-70.23c10.13,-11.87 24.63,-17.8 39.1,-17.46c-2.62,-14.24 0.95,-29.49 11.07,-41.36c16.47,-19.3 44.49,-22.91 65.17,-9.35l-0,-27.97c-8.62,-3.37 -17.85,-5.16 -27.24,-5.16c-21.95,-0 -42.71,9.57 -56.95,26.26Z" style="fill:#fff;fill-rule:nonzero;"/><path d="M5560.35,548.881c-7.58,-2.494 -15.45,-3.759 -23.38,-3.759c-32.38,0 -60.94,20.678 -71.07,51.453c-9.41,28.616 -1.15,59.262 21.02,79.059l-57.56,174.993c-29.61,2.817 -54.44,22.566 -63.83,51.106c-6.24,18.986 -4.72,39.265 4.29,57.103c9,17.839 24.42,31.102 43.41,37.348c7.57,2.491 15.43,3.754 23.36,3.754c5.63,-0 11.23,-0.634 16.7,-1.89c8.85,10.322 20.32,18.002 33.37,22.292c7.58,2.49 15.45,3.76 23.38,3.76c32.39,-0 60.94,-20.68 71.07,-51.457c9.41,-28.617 1.16,-59.262 -21.02,-79.058l39.91,-121.326l0,-79.436c-0.06,-0.012 -0.12,-0.021 -0.18,-0.034l-69.41,211.016c23.03,10.29 35,36.543 26.95,61.026c-8.6,26.136 -36.75,40.359 -62.89,31.758c-14.82,-4.875 -25.8,-16.046 -30.96,-29.565c-12.19,7.81 -27.65,10.286 -42.47,5.411c-26.14,-8.598 -40.36,-36.754 -31.76,-62.891c8.05,-24.482 33.27,-38.505 57.91,-33.114l69.41,-211.016c-23.03,-10.291 -35,-36.544 -26.95,-61.027c8.6,-26.136 36.76,-40.355 62.89,-31.758c14.82,4.875 25.8,16.046 30.97,29.566c5.03,-3.224 10.62,-5.522 16.49,-6.786l0,-25.398c-2.11,0.297 -4.2,0.683 -6.28,1.16c-8.85,-10.323 -20.32,-17.998 -33.37,-22.29Z" style="fill:#fff;fill-rule:nonzero;"/><path d="M4939.25,2638.48c1.8,-13.48 -0.11,-27.14 -5.59,-39.73c-11.89,-27.31 -38.83,-44.95 -68.62,-44.95c-10.31,0 -20.35,2.1 -29.85,6.23c-27.62,12.03 -44.99,38.59 -45,68.32l-168.91,73.57c-13.74,-12.65 -32.05,-19.85 -50.76,-19.85c-10.31,-0 -20.35,2.1 -29.85,6.24c-18.32,7.98 -32.44,22.62 -39.75,41.22c-7.31,18.59 -6.95,38.93 1.03,57.25c2.04,4.68 4.53,9.11 7.42,13.22l36.24,0c-8.91,-5.14 -16.32,-13.05 -20.74,-23.2c-10.98,-25.23 0.56,-54.58 25.78,-65.57c23.63,-10.29 50.88,-0.81 63.27,21.16l203.66,-88.7c-7.66,-24.04 3.96,-50.45 27.59,-60.74c25.23,-10.98 54.58,0.56 65.57,25.78c6.23,14.31 5.2,29.93 -1.44,42.79c13.94,3.89 26.08,13.78 32.31,28.09c10.99,25.22 -0.56,54.58 -25.78,65.56c-23.63,10.3 -50.88,0.82 -63.27,-21.16l-174.46,75.99l62.61,-0l104.49,-45.51c13.74,12.65 32.05,19.84 50.76,19.84c10.31,-0 20.35,-2.1 29.85,-6.24c37.82,-16.47 55.19,-60.64 38.72,-98.47c-5.48,-12.58 -14.19,-23.29 -25.28,-31.14Z" style="fill:#fff;fill-rule:nonzero;"/><path d="M3966.96,2549.04c-6.57,-1.83 -13.34,-2.76 -20.11,-2.76c-6.8,-0 -13.52,0.91 -20.01,2.72c-9.31,-9.9 -21.12,-17.04 -34.34,-20.73c-6.58,-1.84 -13.35,-2.77 -20.14,-2.77c-33.42,0 -63.05,22.51 -72.03,54.73c-8.1,29.02 1.55,59.25 24.6,78.01l-39.55,141.76l25.96,0l42.77,-153.32c-23.47,-9.23 -36.63,-34.91 -29.7,-59.73c7.39,-26.5 34.87,-42 61.37,-34.6c15.03,4.19 26.5,14.85 32.28,28.12c11.82,-8.36 27.15,-11.54 42.18,-7.35c26.5,7.4 41.99,34.87 34.6,61.38c-6.93,24.82 -31.48,39.98 -56.34,35.72l-36.21,129.78l25.96,0l29.24,-104.83c29.06,-4.21 53.49,-25.51 61.43,-53.96c11.08,-39.73 -12.23,-81.08 -51.96,-92.17Z" style="fill:#fff;fill-rule:nonzero;"/><path d="M1203.34,2261.77c25.95,-57.05 18.5,-141.36 -25.81,-168.169c-44.31,-26.801 -122.44,5.719 -160.93,55.179c-54.208,69.66 36.77,74.54 70.21,94.77c33.44,20.23 79.98,98.56 116.53,18.22Z" style="fill:#fff;fill-rule:nonzero;"/><path d="M1221.68,1996.68c-12.12,34.67 -45.46,55.58 -74.46,46.69c-29,-8.88 -42.68,-44.2 -30.56,-78.87c12.13,-34.67 45.47,-55.58 74.47,-46.69c29,8.88 42.68,44.19 30.55,78.87Z" style="fill:#fff;fill-rule:nonzero;"/><path d="M1096.15,2029.61c-2.37,31.89 -27.13,56.511 -55.311,54.981c-28.179,-1.531 -49.1,-28.631 -46.731,-60.521c2.369,-31.89 27.132,-56.51 55.312,-54.98c28.18,1.53 49.1,28.62 46.73,60.52Z" style="fill:#fff;fill-rule:nonzero;"/><path d="M1242.91,2009.52c-25.09,26.83 -28.13,66.061 -6.8,87.63c21.33,21.57 58.95,17.3 84.04,-9.539c25.09,-26.831 28.13,-66.061 6.8,-87.631c-21.32,-21.56 -58.95,-17.29 -84.04,9.54Z" style="fill:#fff;fill-rule:nonzero;"/><path d="M1272,2136c-27.15,16.9 -37.47,50.26 -23.04,74.51c14.43,24.25 48.14,30.21 75.3,13.31c27.15,-16.9 37.46,-50.26 23.03,-74.51c-14.43,-24.25 -48.14,-30.21 -75.29,-13.31Z" style="fill:#fff;fill-rule:nonzero;"/><path d="M2328,1664c-26.12,-56.97 -94.72,-106.54 -144,-90.61c-49.27,15.93 -75.86,96.29 -63.68,157.77c17.16,86.57 80.42,21.01 117.61,8.99c37.19,-12.03 126.86,4.08 90.07,-76.15Z" style="fill:#fff;fill-rule:nonzero;"/><path d="M2139.66,1476.55c18.27,31.87 12.24,70.76 -13.47,86.86c-25.71,16.1 -61.35,3.31 -79.62,-28.55c-18.26,-31.87 -12.23,-70.76 13.47,-86.86c25.71,-16.1 61.35,-3.32 79.62,28.55Z" style="fill:#fff;fill-rule:nonzero;"/><path d="M2082.35,1592.99c22.55,22.68 24.94,57.51 5.329,77.81c-19.599,20.29 -53.779,18.36 -76.339,-4.31c-22.55,-22.68 -24.94,-57.51 -5.33,-77.81c19.6,-20.29 53.78,-18.36 76.34,4.31Z" style="fill:#fff;fill-rule:nonzero;"/><path d="M2163.27,1468.92c3.85,36.53 31.51,64.52 61.77,62.52c30.27,-2 51.68,-33.23 47.83,-69.76c-3.85,-36.53 -31.51,-64.52 -61.78,-62.53c-30.26,2 -51.68,33.24 -47.82,69.77Z" style="fill:#fff;fill-rule:nonzero;"/><path d="M2277.91,1529.75c-5.01,31.59 13.45,61.23 41.23,66.2c27.77,4.98 54.35,-16.6 59.36,-48.19c5.01,-31.59 -13.45,-61.22 -41.23,-66.2c-27.78,-4.97 -54.36,16.61 -59.36,48.19Z" style="fill:#fff;fill-rule:nonzero;"/><path d="M2880.55,868.594c-7.83,-62.183 -58.4,-130.049 -110.19,-129.628c-51.78,0.421 -101.24,69.101 -108.06,131.402c-9.61,87.738 70.41,44.168 109.49,43.85c39.08,-0.318 119.8,41.945 108.76,-45.624Z" style="fill:#fff;fill-rule:nonzero;"/><path d="M2757.11,633.285c7.86,35.881 -9.55,71.169 -38.9,78.818c-29.35,7.649 -59.53,-15.237 -67.39,-51.117c-7.87,-35.881 9.55,-71.169 38.9,-78.818c29.35,-7.65 59.52,15.236 67.39,51.117Z" style="fill:#fff;fill-rule:nonzero;"/><path d="M2667.51,727.175c14.71,28.397 6.54,62.345 -18.25,75.825c-24.79,13.48 -56.81,1.388 -71.53,-27.008c-14.71,-28.397 -6.55,-62.345 18.25,-75.825c24.79,-13.48 56.81,-1.388 71.53,27.008Z" style="fill:#fff;fill-rule:nonzero;"/><path d="M2781.92,633.083c-7.29,36.004 10.7,71.004 40.17,78.175c29.48,7.171 59.27,-16.203 66.55,-52.207c7.28,-36.003 -10.7,-71.003 -40.18,-78.174c-29.47,-7.171 -59.26,16.202 -66.54,52.206Z" style="fill:#fff;fill-rule:nonzero;"/><path d="M2873.03,725.504c-14.25,28.632 -5.53,62.442 19.48,75.518c25,13.075 56.83,0.464 71.08,-28.168c14.25,-28.632 5.53,-62.443 -19.47,-75.518c-25.01,-13.076 -56.84,-0.464 -71.09,28.168Z" style="fill:#fff;fill-rule:nonzero;"/><path d="M1167.24,573.323c-60.64,-15.822 -142.44,5.927 -161.28,54.164c-18.838,48.237 26.56,119.669 81.87,149.14c77.9,41.504 67.16,-48.968 81.38,-85.375c14.22,-36.407 83.44,-95.648 -1.97,-117.929Z" style="fill:#fff;fill-rule:nonzero;"/><path d="M902.918,600.546c36.235,6.022 62.531,35.299 58.732,65.392c-3.799,30.092 -36.253,49.606 -72.489,43.584c-36.236,-6.022 -62.531,-35.299 -58.732,-65.392c3.798,-30.093 36.253,-49.606 72.489,-43.584Z" style="fill:#fff;fill-rule:nonzero;"/><path d="M956.815,718.609c31.83,-3.116 60.315,17.076 63.625,45.101c3.31,28.024 -19.81,53.269 -51.643,56.385c-31.831,3.116 -60.317,-17.077 -63.626,-45.101c-3.308,-28.025 19.813,-53.269 51.644,-56.385Z" style="fill:#fff;fill-rule:nonzero;"/><path d="M911.944,577.438c30.724,20.132 69.901,16.43 87.505,-8.271c17.601,-24.7 6.971,-61.045 -23.756,-81.177c-30.724,-20.133 -69.902,-16.431 -87.506,8.27c-17.603,24.7 -6.967,61.045 23.757,81.178Z" style="fill:#fff;fill-rule:nonzero;"/><path d="M1031.59,527.163c21.301,23.866 55.931,28.327 77.351,9.965c21.43,-18.362 21.54,-52.595 0.25,-76.46c-21.29,-23.866 -55.92,-28.327 -77.351,-9.965c-21.429,18.362 -21.539,52.595 -0.25,76.46Z" style="fill:#fff;fill-rule:nonzero;"/><path d="M3562.81,1348.34c53.13,33.25 137.68,36.98 170.1,-3.41c32.41,-40.39 10.47,-122.13 -33.48,-166.81c-61.91,-62.91 -78.74,26.63 -103.2,57.11c-24.47,30.48 -108.24,66.29 -33.42,113.11Z" style="fill:#fff;fill-rule:nonzero;"/><path d="M3823.17,1401.47c-32.78,-16.59 -49.1,-52.39 -36.47,-79.97c12.63,-27.57 49.43,-36.48 82.21,-19.89c32.77,16.59 49.1,52.4 36.47,79.97c-12.63,27.58 -49.44,36.49 -82.21,19.89Z" style="fill:#fff;fill-rule:nonzero;"/><path d="M3807.07,1272.69c-31.3,-6.55 -52.44,-34.34 -47.21,-62.07c5.23,-27.73 34.85,-44.9 66.15,-38.35c31.31,6.56 52.45,34.35 47.22,62.08c-5.24,27.73 -34.85,44.9 -66.16,38.34Z" style="fill:#fff;fill-rule:nonzero;"/><path d="M3807.64,1420.82c-23.29,-28.4 -61.78,-36.6 -85.97,-18.3c-24.19,18.3 -24.92,56.17 -1.63,84.57c23.29,28.41 61.78,36.6 85.97,18.3c24.19,-18.3 24.92,-56.16 1.63,-84.57Z" style="fill:#fff;fill-rule:nonzero;"/><path d="M3678.42,1432.98c-13.17,-29.14 -44.88,-43.76 -70.82,-32.66c-25.94,11.11 -36.29,43.74 -23.12,72.89c13.18,29.14 44.88,43.76 70.83,32.65c25.94,-11.1 36.29,-43.73 23.11,-72.88Z" style="fill:#fff;fill-rule:nonzero;"/><path d="M4371.53,341.65c3.43,62.58 49.1,133.841 100.78,137.069c51.69,3.229 105.87,-61.794 117.06,-123.461c15.76,-86.842 -67.12,-49.019 -106.13,-51.456c-39.01,-2.437 -116.54,-50.281 -111.71,37.848Z" style="fill:#fff;fill-rule:nonzero;"/><path d="M4478.09,585.072c-5.32,-36.346 14.54,-70.319 44.36,-75.881c29.81,-5.562 58.3,19.393 63.62,55.739c5.32,36.345 -14.54,70.318 -44.36,75.881c-29.82,5.562 -58.3,-19.393 -63.62,-55.739Z" style="fill:#fff;fill-rule:nonzero;"/><path d="M4574.08,497.729c-12.67,-29.363 -2.13,-62.651 23.55,-74.351c25.67,-11.7 56.77,2.618 69.45,31.981c12.67,29.363 2.13,62.651 -23.55,74.351c-25.68,11.7 -56.77,-2.618 -69.45,-31.981Z" style="fill:#fff;fill-rule:nonzero;"/><path d="M4453.33,583.525c9.8,-35.401 -5.68,-71.582 -34.57,-80.811c-28.89,-9.23 -60.26,11.986 -70.06,47.387c-9.8,35.401 5.67,71.582 34.57,80.812c28.89,9.229 60.26,-11.987 70.06,-47.388Z" style="fill:#fff;fill-rule:nonzero;"/><path d="M4368.95,484.914c16.23,-27.557 9.92,-61.898 -14.1,-76.703c-24.03,-14.805 -56.66,-4.467 -72.9,23.09c-16.23,27.556 -9.91,61.897 14.11,76.702c24.02,14.805 56.66,4.468 72.89,-23.089Z" style="fill:#fff;fill-rule:nonzero;"/><path d="M4717.69,2264.9c14.1,-61.07 -9.95,-142.21 -58.7,-159.69c-48.75,-17.47 -118.87,29.93 -146.76,86.05c-39.29,79.04 50.84,65.75 87.63,78.94c36.8,13.18 97.97,80.7 117.83,-5.3Z" style="fill:#fff;fill-rule:nonzero;"/><path d="M4683.01,2001.45c-5,36.39 -33.52,63.5 -63.71,60.55c-30.18,-2.94 -50.61,-34.83 -45.61,-71.22c5,-36.4 33.52,-63.51 63.71,-60.56c30.18,2.95 50.61,34.84 45.61,71.23Z" style="fill:#fff;fill-rule:nonzero;"/><path d="M4566.52,2058.66c4.01,31.73 -15.37,60.77 -43.29,64.87c-27.92,4.1 -53.8,-18.3 -57.82,-50.03c-4.01,-31.73 15.37,-60.77 43.29,-64.87c27.92,-4.1 53.8,18.3 57.82,50.03Z" style="fill:#fff;fill-rule:nonzero;"/><path d="M4706.37,2009.82c-19.26,31.28 -14.45,70.34 10.73,87.23c25.19,16.9 61.22,5.24 80.48,-26.04c19.26,-31.28 14.45,-70.33 -10.74,-87.23c-25.19,-16.9 -61.22,-5.24 -80.47,26.04Z" style="fill:#fff;fill-rule:nonzero;"/><path d="M4760,2128c-23.25,21.96 -26.74,56.7 -7.78,77.6c18.97,20.9 53.19,20.04 76.44,-1.91c23.26,-21.96 26.74,-56.7 7.78,-77.6c-18.96,-20.9 -53.19,-20.05 -76.44,1.91Z" style="fill:#fff;fill-rule:nonzero;"/><path d="M3375.72,2369.64c-41.88,46.63 -60.07,129.29 -25.84,168.16c34.22,38.87 118.52,31.29 170.07,-4.35c72.61,-50.18 -12.71,-82.13 -38.54,-111.47c-25.83,-29.33 -46.72,-118.01 -105.69,-52.34Z" style="fill:#fff;fill-rule:nonzero;"/><path d="M3278.67,2617.01c21.98,-29.44 60.05,-39.38 85.05,-22.2c25,17.18 27.45,54.97 5.48,84.41c-21.97,29.43 -60.04,39.37 -85.04,22.19c-25,-17.17 -27.46,-54.96 -5.49,-84.4Z" style="fill:#fff;fill-rule:nonzero;"/><path d="M3408.31,2623.27c11.83,-29.72 42.84,-45.77 69.26,-35.86c26.42,9.92 38.24,42.04 26.41,71.75c-11.83,29.72 -42.83,45.77 -69.25,35.86c-26.43,-9.92 -38.25,-42.04 -26.42,-71.75Z" style="fill:#fff;fill-rule:nonzero;"/><path d="M3262.28,2598.39c31.98,-18.07 46.66,-54.58 32.78,-81.55c-13.87,-26.97 -51.05,-34.19 -83.03,-16.12c-31.98,18.06 -46.66,54.58 -32.78,81.55c13.87,26.97 51.05,34.19 83.03,16.12Z" style="fill:#fff;fill-rule:nonzero;"/><path d="M3272.48,2469.01c30.98,-7.98 50.82,-36.7 44.33,-64.17c-6.49,-27.46 -36.85,-43.26 -67.83,-35.28c-30.97,7.97 -50.82,36.7 -44.33,64.16c6.49,27.46 36.86,43.26 67.83,35.29Z" style="fill:#fff;fill-rule:nonzero;"/><path d="M2928.05,2158.73c-24.45,-8.18 -38.34,-33.47 -32.82,-58.08l-210.66,-70.49c-10.41,22.98 -36.72,34.81 -61.16,26.63c-26.1,-8.73 -40.17,-36.96 -31.44,-63.05c4.95,-14.8 16.18,-25.71 29.72,-30.81c-7.75,-12.23 -10.14,-27.7 -5.19,-42.5c8.73,-26.09 36.96,-40.17 63.05,-31.44c24.44,8.18 38.34,33.47 32.82,58.08l210.66,70.49c10.41,-22.97 36.72,-34.81 61.16,-26.63c26.09,8.73 40.17,36.96 31.44,63.05c-4.95,14.8 -16.18,25.71 -29.73,30.81c7.75,12.23 10.15,27.7 5.2,42.5c-8.73,26.09 -36.96,40.17 -63.05,31.44Zm86.76,-23.51c1.95,-5.84 3.18,-11.9 3.65,-18c0.57,-7.36 0.03,-14.76 -1.61,-22.03c10.38,-8.8 18.12,-20.24 22.48,-33.28c1.96,-5.85 3.19,-11.91 3.66,-18.02c2.64,-34.24 -18.27,-65.76 -50.87,-76.67c-28.56,-9.56 -59.25,-1.46 -79.16,20.61l-174.69,-58.45c-1.25,-13.82 -6.28,-26.91 -14.66,-38.07c-9.14,-12.18 -21.63,-21.17 -36.13,-26.02c-18.95,-6.34 -39.24,-4.93 -57.12,3.99c-17.88,8.92 -31.23,24.27 -37.57,43.22c-1.95,5.84 -3.18,11.9 -3.65,18.01c-0.57,7.36 -0.03,14.75 1.61,22.02c-10.39,8.8 -18.13,20.24 -22.49,33.28c-1.96,5.85 -3.19,11.91 -3.66,18.02c-2.64,34.24 18.28,65.771 50.87,76.67c28.57,9.56 59.26,1.46 79.17,-20.61l174.69,58.45c1.24,13.82 6.28,26.91 14.66,38.07c9.14,12.18 21.63,21.17 36.12,26.02c18.95,6.34 39.24,4.93 57.13,-3.99c17.88,-8.92 31.22,-24.26 37.57,-43.22Z" style="fill:#fff;fill-rule:nonzero;"/><path d="M1797.01,2018.01c16.41,-22.08 47.61,-26.69 69.7,-10.28c12.52,9.31 19.41,23.37 20.05,37.83c14.02,-3.56 29.48,-1.03 42,8.271c22.09,16.409 26.69,47.619 10.28,69.699c-15.37,20.69 -43.72,26.04 -65.4,13.14l-132.47,178.32c18.6,17.03 21.67,45.72 6.3,66.41c-16.41,22.09 -47.61,26.69 -69.7,10.28c-12.52,-9.3 -19.41,-23.37 -20.05,-37.83c-14.02,3.57 -29.48,1.03 -42,-8.27c-22.09,-16.41 -26.69,-47.61 -10.28,-69.7c15.37,-20.69 43.72,-26.03 65.4,-13.14l132.47,-178.31c-18.6,-17.04 -21.67,-45.73 -6.3,-66.42Zm-134.92,214.59c-28.95,-6.72 -58.76,4.19 -76.72,28.37c-14.65,19.72 -18.68,45.39 -10.8,68.67l0.01,0.01c4.89,14.43 13.96,26.88 26.23,36c11.02,8.19 23.91,13.14 37.45,14.43c5.15,12.6 13.6,23.5 24.6,31.67c33.12,24.6 80.08,17.67 104.68,-15.44c14.65,-19.72 18.68,-45.39 10.79,-68.67c-1.51,-4.47 -3.46,-8.81 -5.81,-12.93l109.87,-147.89c28.96,6.71 58.76,-4.2 76.72,-28.38c14.65,-19.72 18.68,-45.39 10.79,-68.67c-4.89,-14.439 -13.96,-26.89 -26.23,-36.01c-11.02,-8.19 -23.91,-13.14 -37.45,-14.43c-5.15,-12.59 -13.6,-23.49 -24.6,-31.67c-33.12,-24.6 -80.08,-17.67 -104.68,15.44c-14.65,19.72 -18.68,45.39 -10.79,68.67c1.52,4.48 3.47,8.821 5.81,12.94l-109.87,147.89Z" style="fill:#fff;fill-rule:nonzero;"/><path d="M1988.84,976.343c7.6,-26.444 35.19,-41.721 61.64,-34.123c24.77,7.117 39.74,31.783 35.29,56.611l213.5,61.349c9.41,-23.41 35.19,-36.37 59.96,-29.25c26.44,7.6 41.72,35.2 34.12,61.64c-4.31,14.99 -15.05,26.39 -28.37,32.06c8.27,11.88 11.33,27.24 7.02,42.24c-7.59,26.44 -35.19,41.72 -61.64,34.12c-24.77,-7.12 -39.74,-31.78 -35.29,-56.61l-213.5,-61.34c-9.401,23.4 -35.18,36.36 -59.95,29.24c-26.45,-7.6 -41.73,-35.19 -34.13,-61.64c4.31,-14.99 15.06,-26.38 28.37,-32.06c-8.27,-11.88 -11.33,-27.242 -7.02,-42.237Zm-24.03,-6.903c-3.79,13.194 -3.9,26.993 -0.35,40.11c-9.97,9.24 -17.21,20.99 -21,34.19c-11.39,39.65 11.6,81.17 51.25,92.57c6.75,1.94 13.71,2.92 20.69,2.92c22.57,-0 43.34,-9.77 57.519,-26.92l177.011,50.86c3.89,29.46 24.58,53.53 53.53,61.85c6.75,1.94 13.7,2.92 20.69,2.92c33.16,-0 62.72,-22.27 71.88,-54.17c3.79,-13.19 3.9,-26.99 0.35,-40.11c9.98,-9.24 17.21,-20.99 21,-34.19c11.39,-39.65 -11.6,-81.17 -51.25,-92.57c-6.75,-1.94 -13.71,-2.92 -20.68,-2.92c-22.58,-0 -43.35,9.77 -57.52,26.93l-177.01,-50.865c-3.89,-29.469 -24.59,-53.535 -53.541,-61.854c-6.75,-1.938 -13.709,-2.922 -20.679,-2.922c-33.16,0 -62.72,22.276 -71.89,54.171Z" style="fill:#fff;fill-rule:nonzero;"/><path d="M2460.72,413.147c-22.01,13.414 -50.3,7.734 -65.56,-12.35l-189.68,115.611c10.85,22.768 2.94,50.514 -19.07,63.928c-23.49,14.319 -54.15,6.882 -68.47,-16.612c-8.12,-13.323 -9.23,-28.943 -4.39,-42.586c-14.34,-1.957 -27.72,-10.102 -35.84,-23.424c-14.321,-23.494 -6.88,-54.147 16.61,-68.467c22.01,-13.413 50.3,-7.735 65.56,12.35l189.68,-115.611c-10.86,-22.769 -2.94,-50.514 19.07,-63.927c23.49,-14.32 54.15,-6.883 68.46,16.612c8.12,13.322 9.23,28.943 4.4,42.586c14.34,1.956 27.72,10.101 35.84,23.423c14.32,23.495 6.88,54.148 -16.61,68.467Zm46.78,-24.897c4.71,-19.422 1.58,-39.516 -8.83,-56.581c-7.14,-11.722 -17.22,-21.145 -29.28,-27.415c-0.05,-13.595 -3.8,-26.873 -10.95,-38.595c-15.71,-25.77 -45.14,-39.534 -74.99,-35.064c-9.88,1.481 -19.25,4.884 -27.83,10.116c-25.73,15.678 -39.32,44.358 -35.28,73.807l-157.3,95.876c-15.59,-10.848 -35.03,-15.434 -53.9,-12.609c-9.88,1.48 -19.241,4.883 -27.83,10.115c-17.06,10.4 -29.06,26.824 -33.77,46.245c-4.71,19.422 -1.58,39.516 8.82,56.58c7.15,11.721 17.23,21.145 29.289,27.415c0.041,13.594 3.801,26.874 10.951,38.596c15.7,25.767 45.14,39.531 74.98,35.064l0.01,-0.001c9.88,-1.48 19.25,-4.884 27.83,-10.117c25.72,-15.678 39.31,-44.358 35.27,-73.806l157.31,-95.876c15.59,10.848 35.03,15.435 53.9,12.609c9.88,-1.48 19.24,-4.883 27.83,-10.114c17.06,-10.4 29.05,-26.824 33.77,-46.245Z" style="fill:#fff;fill-rule:nonzero;"/><path d="M4351.64,880.35c25.93,9.222 39.46,37.712 30.24,63.634c-8.63,24.283 -34.18,37.696 -58.69,31.716l-74.45,209.29c22.78,10.84 34.11,37.37 25.47,61.65c-9.22,25.93 -37.71,39.47 -63.63,30.24c-14.7,-5.23 -25.4,-16.66 -30.25,-30.3c-12.37,7.52 -27.88,9.62 -42.58,4.39c-25.931,-9.22 -39.46,-37.71 -30.241,-63.63c8.641,-24.28 34.181,-37.7 58.691,-31.72l74.45,-209.285c-22.78,-10.84 -34.11,-37.373 -25.47,-61.655c9.22,-25.923 37.71,-39.461 63.63,-30.24c14.7,5.229 25.4,16.661 30.25,30.301c12.37,-7.517 27.88,-9.62 42.58,-4.391Zm-121.62,-46.52c-18.07,8.587 -31.71,23.67 -38.4,42.491l-0.1,0.284c-9.92,28.267 -2.37,58.979 19.22,79.226l-61.731,173.529c-29.659,2.06 -54.959,21.22 -65.059,49.62l-0.1,0.29c-13.61,38.76 6.82,81.49 45.52,95.26c12.929,4.6 26.699,5.56 40.01,2.83c8.61,10.53 19.89,18.48 32.82,23.08c18.83,6.7 39.14,5.66 57.19,-2.92c18.05,-8.57 31.68,-23.67 38.39,-42.52l0.1,-0.28c9.92,-28.27 2.36,-58.98 -19.23,-79.23l61.74,-173.53c29.65,-2.055 54.95,-21.216 65.06,-49.617l0.09,-0.284c13.61,-38.76 -6.81,-81.495 -45.52,-95.263c-12.93,-4.601 -26.69,-5.567 -40.01,-2.834c-8.6,-10.528 -19.88,-18.473 -32.82,-23.075c-18.8,-6.688 -39.1,-5.642 -57.17,2.943Z" style="fill:#fff;fill-rule:nonzero;"/><path d="M4365.95,1676.18l-195.77,104.98c9.59,23.33 0.15,50.6 -22.56,62.78c-24.25,13 -54.45,3.88 -67.45,-20.37c-7.37,-13.75 -7.62,-29.4 -2.04,-42.76c-14.21,-2.74 -27.12,-11.61 -34.49,-25.36c-13,-24.25 -3.89,-54.45 20.36,-67.45c22.71,-12.18 50.65,-4.95 64.779,15.95l195.761,-104.98c-9.58,-23.33 -0.15,-50.6 22.57,-62.78c24.24,-13 54.44,-3.89 67.44,20.36c7.38,13.75 7.62,29.41 2.05,42.76c14.21,2.75 27.11,11.62 34.49,25.37c13,24.25 3.88,54.44 -20.37,67.45c-22.71,12.18 -50.64,4.95 -64.77,-15.95Zm107.17,-63.32c-6.49,-12.09 -16.04,-22.06 -27.73,-28.98c0.7,-13.58 -2.32,-27.05 -8.8,-39.14c-13.06,-24.35 -38.34,-39.47 -65.98,-39.47c-12.26,0 -24.47,3.07 -35.32,8.89c-26.55,14.23 -41.7,42.12 -39.29,71.75l-162.35,87.05c-13.121,-10.27 -29.371,-15.88 -46.15,-15.88c-12.26,-0 -24.47,3.07 -35.31,8.89c-17.62,9.44 -30.5,25.18 -36.27,44.31c-5.78,19.13 -3.76,39.37 5.69,56.98c6.48,12.1 16.03,22.06 27.73,28.99c-0.71,13.57 2.31,27.04 8.8,39.14c13.05,24.35 38.34,39.47 65.98,39.47c12.25,-0 24.46,-3.07 35.31,-8.89c26.55,-14.24 41.7,-42.12 39.29,-71.75l162.35,-87.06c13.12,10.27 29.38,15.89 46.16,15.89c12.25,0 24.46,-3.08 35.31,-8.89c36.36,-19.5 50.07,-64.94 30.58,-101.3Z" style="fill:#fff;fill-rule:nonzero;"/><path d="M3578.21,1996.23c-13.22,8.28 -28.83,9.58 -42.53,4.91c-1.78,14.37 -9.76,27.84 -22.98,36.12c-23.32,14.611 -54.06,7.54 -68.67,-15.78c-13.68,-21.84 -8.34,-50.19 11.55,-65.7l-117.91,-188.26c-22.63,11.13 -50.47,3.56 -64.15,-18.29c-14.61,-23.31 -7.54,-54.06 15.77,-68.66c13.23,-8.28 28.83,-9.58 42.53,-4.91c1.78,-14.37 9.77,-27.84 22.99,-36.12c23.32,-14.61 54.06,-7.54 68.66,15.77c13.68,21.85 8.35,50.2 -11.55,65.71l117.91,188.26c22.64,-11.14 50.48,-3.56 64.16,18.28c14.6,23.32 7.54,54.06 -15.78,68.67Zm-26.49,-117.04c-3.57,0 -7.17,0.26 -10.74,0.78l-97.79,-156.14c16.78,-24.53 17.46,-56.26 1.47,-81.79c-13.77,-21.98 -37.49,-35.11 -63.45,-35.11c-14.03,0 -27.75,3.95 -39.67,11.42c-11.64,7.29 -20.94,17.49 -27.07,29.64c-13.6,0.21 -26.87,4.14 -38.45,11.39c-16.93,10.61 -28.73,27.18 -33.2,46.66c-4.48,19.47 -1.1,39.53 9.51,56.46c13.77,21.99 37.49,35.11 63.45,35.11c3.57,-0 7.18,-0.26 10.75,-0.78l97.79,156.14c-16.79,24.52 -17.47,56.25 -1.47,81.78c13.76,21.99 37.49,35.121 63.45,35.121c14.02,-0 27.74,-3.951 39.67,-11.421c11.64,-7.29 20.94,-17.49 27.06,-29.64c13.6,-0.21 26.87,-4.14 38.45,-11.39c16.94,-10.61 28.73,-27.18 33.21,-46.66c4.47,-19.47 1.09,-39.53 -9.51,-56.47c-13.77,-21.98 -37.49,-35.1 -63.46,-35.1Z" style="fill:#fff;fill-rule:nonzero;"/><path d="M0,127.625c5.945,-1.009 11.502,-1.686 16.407,-1.686c39.086,-0 119.451,42.918 109.133,-44.738c-3.311,-28.12 -15.335,-57.47 -32.299,-81.201l-93.241,0l0,127.625Z" style="fill:#fff;fill-rule:nonzero;"/><path d="M5600,2752.91c-22.51,6.05 -43.83,23.88 -60.43,47.09l60.43,0l0,-47.09Z" style="fill:#fff;fill-rule:nonzero;"/><path d="M5564.47,2723.4c16.1,-4.06 28.67,-16.43 35.53,-32.68l0,-59.06c-11.3,-28.17 -37.34,-44.88 -62.96,-38.43c-29.41,7.41 -47.12,42.56 -39.54,78.5c7.57,35.94 37.56,59.08 66.97,51.67Z" style="fill:#fff;fill-rule:nonzero;"/><path d="M5432.95,2800l77.55,0c12,-16.46 13.94,-40.69 3.15,-61.95c-14.48,-28.51 -46.41,-40.86 -71.31,-27.58c-24.9,13.27 -33.34,47.15 -18.86,75.67c2.63,5.17 5.83,9.81 9.47,13.86Z" style="fill:#fff;fill-rule:nonzero;"/><path d="M138.042,13.729c20.382,10.869 45.466,4.556 61.844,-13.729l-77.551,0c4.099,5.625 9.366,10.347 15.707,13.729Z" style="fill:#fff;fill-rule:nonzero;"/><path d="M1864.67,0l-177.15,0c1.28,4.604 2.27,8.955 2.75,12.926c4.72,38.8 -28.17,123.76 57.6,102.927c57.66,-14.007 116.06,-66.658 116.8,-115.853Z" style="fill:#fff;fill-rule:nonzero;"/><path d="M0,2800l93.241,0c-20.585,-28.8 -48.443,-49.32 -76.834,-49.32c-5.505,0 -10.991,0.78 -16.407,2.23l0,47.09Z" style="fill:#fff;fill-rule:nonzero;"/><path d="M4.011,2644.9c-0.978,-4.64 -2.336,-9.07 -4.011,-13.24l0,59.06c5.674,-13.45 7.44,-29.55 4.011,-45.82Z" style="fill:#fff;fill-rule:nonzero;"/><path d="M68.36,2723.4c29.413,7.41 59.397,-15.73 66.972,-51.67c7.574,-35.94 -10.129,-71.09 -39.542,-78.5c-29.412,-7.41 -59.396,15.72 -66.97,51.67c-7.575,35.94 10.128,71.08 39.54,78.5Z" style="fill:#fff;fill-rule:nonzero;"/><path d="M190.491,2710.47c-24.9,-13.28 -56.826,-0.93 -71.31,27.58c-10.795,21.26 -8.846,45.49 3.154,61.95l77.551,0c3.63,-4.05 6.838,-8.69 9.466,-13.86c14.484,-28.52 6.039,-62.4 -18.861,-75.67Z" style="fill:#fff;fill-rule:nonzero;"/><path d="M1864.25,2791.75c-6.26,-51.4 -80.08,-92.81 -142.75,-92.56c-79.23,0.31 -45.19,60.44 -33.98,100.81l177.15,0c0.04,-2.76 -0.09,-5.51 -0.42,-8.25Z" style="fill:#fff;fill-rule:nonzero;"/><path d="M1885.06,2736.9c10.91,28.3 47.93,41.63 82.7,29.77c34.76,-11.87 54.1,-44.42 43.19,-72.73c-10.91,-28.3 -47.93,-41.62 -82.7,-29.76c-34.76,11.86 -54.1,44.42 -43.19,72.72Z" style="fill:#fff;fill-rule:nonzero;"/><path d="M1864.37,2688.22c26.55,-17.82 34.96,-51.01 18.77,-74.12c-16.19,-23.11 -50.84,-27.4 -77.4,-9.58c-26.56,17.82 -34.96,51.01 -18.77,74.12c16.19,23.11 50.84,27.4 77.4,9.58Z" style="fill:#fff;fill-rule:nonzero;"/><path d="M1970.76,2791.29c-15.95,-1.38 -31.17,1.98 -43.58,8.71l73.19,0c-8.61,-4.66 -18.66,-7.76 -29.61,-8.71Z" style="fill:#fff;fill-rule:nonzero;"/><path d="M2000.37,0l-73.19,0c-16.06,8.708 -27.42,23.05 -29.57,40.029c-3.8,30.092 22.78,57.061 59.38,60.238c36.59,3.177 69.34,-18.642 73.14,-48.735c2.67,-21.084 -9.6,-40.623 -29.76,-51.532Z" style="fill:#fff;fill-rule:nonzero;"/><path d="M1889.2,92.248c-30.06,-10.932 -62.67,1.543 -72.84,27.865c-10.18,26.321 5.94,56.522 36,67.454c30.05,10.932 62.67,-1.543 72.84,-27.865c10.17,-26.322 -5.95,-56.522 -36,-67.454Z" style="fill:#fff;fill-rule:nonzero;"/><path d="M71.543,1337.7c-36.632,2.72 -63.555,29.35 -60.133,59.49c3.422,30.13 35.892,52.37 72.524,49.65c36.633,-2.71 63.556,-29.34 60.134,-59.48c-3.421,-30.14 -35.892,-52.37 -72.525,-49.66Z" style="fill:#fff;fill-rule:nonzero;"/><path d="M0,1246.3l0,99.71c1.222,-0.35 2.442,-0.72 3.659,-1.15c30.192,-10.55 46.692,-40.54 36.853,-66.99c-6.337,-17.03 -22.06,-28.43 -40.512,-31.57Z" style="fill:#fff;fill-rule:nonzero;"/><path d="M80.626,1471.43c-32.422,-11.52 -67.106,-0.97 -80.626,23.56l0,44.98c7.324,14.44 21.333,26.87 39.826,33.44c34.612,12.3 71.804,-0.56 83.071,-28.72c11.267,-28.16 -7.658,-60.96 -42.271,-73.26Z" style="fill:#fff;fill-rule:nonzero;"/><path d="M0,1611.61c3.601,-10.15 3.466,-21.33 0,-31.91l0,31.91Z" style="fill:#fff;fill-rule:nonzero;"/><path d="M5539.57,0c-16.96,23.731 -28.98,53.081 -32.29,81.201c-9.03,76.654 51.3,53.455 92.72,46.424l0,-127.625l-60.43,0Z" style="fill:#fff;fill-rule:nonzero;"/><path d="M5494.79,13.729c6.34,-3.382 11.61,-8.104 15.71,-13.729l-77.55,0c16.37,18.285 41.46,24.598 61.84,13.729Z" style="fill:#fff;fill-rule:nonzero;"/><path d="M5577.44,1445.02c6.91,-51.32 -54.09,-110 -114.8,-125.56c-85.5,-21.92 -53.68,63.45 -58.89,102.19c-5.21,38.73 -58.47,112.66 29.78,114.12c62.67,1.04 137.01,-39.43 143.91,-90.75Z" style="fill:#fff;fill-rule:nonzero;"/><path d="M5568.03,1249.09c-30.19,10.55 -46.69,40.54 -36.85,66.99c9.44,25.38 39.71,38.26 68.82,29.93l0,-99.71c-10.2,-1.74 -21.22,-0.97 -31.97,2.79Z" style="fill:#fff;fill-rule:nonzero;"/><path d="M5597.56,1500.15c-5.25,13.11 -3.94,27.23 2.44,39.82l0,-44.98c-0.91,1.66 -1.73,3.38 -2.44,5.16Z" style="fill:#fff;fill-rule:nonzero;"/><path d="M5576.25,1548.56c-26.33,-18.16 -61.03,-14.31 -77.51,8.6c-16.48,22.91 -8.5,56.2 17.83,74.35c26.33,18.16 61.03,14.31 77.51,-8.6c2.56,-3.55 4.52,-7.35 5.92,-11.3l0,-31.91c-3.89,-11.88 -11.98,-23.02 -23.75,-31.14Z" style="fill:#fff;fill-rule:nonzero;"/></g></g></svg>