<svg width="100%" height="100%" viewBox="0 0 67 61" version="1.1" xmlns="http://www.w3.org/2000/svg" xmlns:xlink="http://www.w3.org/1999/xlink" xml:space="preserve" xmlns:serif="http://www.serif.com/" style="fill-rule:evenodd;clip-rule:evenodd;stroke-linejoin:round;stroke-miterlimit:2;">
    <g transform="matrix(1,0,0,1,-143.17,-5.75849)">
        <path d="M165.073,67C157.916,67 152.476,64.927 148.753,60.77C145.033,56.62 143.17,50.659 143.17,42.896C143.17,34.987 145.113,28.909 149.01,24.655C152.903,20.404 158.528,18.279 165.887,18.279C170.878,18.279 175.37,19.442 179.36,21.287L173.663,28.002C169.592,26.756 168.563,26.61 165.8,26.61C157.613,26.61 153.522,32.01 153.522,42.809C153.522,48.077 154.54,52.04 156.581,54.688C158.618,57.34 161.608,58.665 165.543,58.665C170.02,58.665 174.257,57.561 178.248,55.349L178.248,64.065C176.451,65.114 174.535,65.865 172.495,66.318C170.458,66.775 167.983,67 165.073,67Z" style="fill:white;fill-rule:nonzero;"/>
    </g>
    <g transform="matrix(1,0,0,1,-143.17,-5.75849)">
        <path d="M165.421,33.27C165.202,33.156 164.472,32.945 163.752,33.187C159.97,34.457 158.653,36.811 159.004,40.172C159.605,45.921 160.547,48.264 160.947,49.534C161.437,51.078 163.38,52.926 165.407,52.926C166.957,52.926 169.206,52.726 172.957,48.676L210.99,5.794C210.813,5.94 211.018,5.825 210.966,5.822L210.99,5.794C208.557,5.659 204.938,5.929 203.301,6.234C201.667,6.545 200.356,7.179 199.181,7.847C195.858,9.743 169.345,40.944 168.636,40.944C167.409,40.944 167.1,37.839 166.808,35.762C166.669,34.779 166.384,34.184 166.099,33.848C166.102,33.848 165.824,33.481 165.421,33.27Z" style="fill:white;fill-rule:nonzero;"/>
    </g>
</svg>
