<svg xmlns="http://www.w3.org/2000/svg" alt="Checkatrade Logo" width="464" height="67" viewBox="0 0 464 67"><g><path d="M165.073 67C157.916 67 152.476 64.9267 148.753 60.7697C145.033 56.6197 143.17 50.6593 143.17 42.8957C143.17 34.9866 145.113 28.9086 149.01 24.6547C152.903 20.4043 158.528 18.2791 165.887 18.2791C170.878 18.2791 175.37 19.442 179.36 21.2869L173.663 28.0018C169.592 26.7557 168.563 26.6104 165.8 26.6104C157.613 26.6104 153.522 32.0099 153.522 42.8091C153.522 48.0772 154.54 52.0404 156.581 54.6883C158.618 57.3396 161.608 58.6653 165.543 58.6653C170.02 58.6653 174.257 57.5611 178.248 55.3494V64.0649C176.451 65.1136 174.535 65.8647 172.495 66.3182C170.458 66.775 167.983 67 165.073 67Z" fill="#EB1F40"/><path d="M193.303 15.4823C193.686 15.0773 194.023 14.7797 194.388 14.4162V0L184.422 4.61735V25.97C184.738 25.5789 185.068 25.1635 185.371 24.7931C188.875 20.4735 191.516 17.3687 193.303 15.4823Z" fill="#EB1F40"/><path d="M206.662 39.3271L225.701 19.1305H214.112L199.821 34.2632L194.131 41.3208H193.873L194.388 32.2661V29.7393L184.422 41.1754V66.1485H194.388V50.0363L199.904 45.5297L215.092 66.1485H226.9L206.662 39.3271Z" fill="#EB1F40"/><path d="M29.69 11.8203C23.8118 11.8203 19.192 13.8901 15.827 18.0298C12.4656 22.1661 10.7831 27.8772 10.7831 35.1597C10.7831 42.7849 12.3995 48.5514 15.6358 52.4627C18.8756 56.3704 23.558 58.3261 29.69 58.3261C32.3423 58.3261 34.9112 58.063 37.3897 57.5404C39.8683 57.0142 42.4511 56.3428 45.1312 55.519V64.2345C40.2263 66.0724 34.6644 66.9966 28.449 66.9966C19.2928 66.9966 12.2639 64.2414 7.35559 58.731C2.4507 53.2207 0 45.3324 0 35.0732C0 28.611 1.19233 22.9552 3.57351 18.1094C5.95469 13.2637 9.3961 9.55316 13.9047 6.97105C18.4098 4.39239 23.7006 3.1048 29.7769 3.1048C36.1661 3.1048 42.0687 4.43739 47.4846 7.09911L43.8068 15.5585C41.6967 14.5651 39.465 13.6963 37.1117 12.9452C34.7583 12.1941 32.2867 11.8203 29.69 11.8203Z" fill="#EB1F40"/><path d="M92.6297 66.1485H82.5314V37.2399C82.5314 33.6125 81.8014 30.9058 80.331 29.1197C78.8606 27.3337 76.5315 26.4442 73.3369 26.4442C69.1169 26.4442 66.0126 27.6972 64.0312 30.2066C62.0463 32.716 61.0556 36.918 61.0556 42.8126V66.152H51.0025V4.61735L61.0556 0V16.7907C61.0556 19.4835 60.8853 22.3599 60.5411 25.4231H61.1842C62.5538 23.1525 64.4588 21.3976 66.8956 20.1481C69.3359 18.9021 72.1794 18.279 75.4296 18.279C86.894 18.279 92.6262 24.0213 92.6262 35.4989V66.1485H92.6297Z" fill="#EB1F40"/><path d="M118.548 25.8488C115.353 25.8488 112.795 26.8561 110.873 28.8671C108.947 30.8815 107.8 33.8132 107.428 37.6691H128.904C128.844 33.7855 127.902 30.8469 126.081 28.8463C124.256 26.8491 121.743 25.8488 118.548 25.8488ZM120.39 67C113.031 67 107.278 64.8678 103.128 60.6001C98.9771 56.3358 96.9053 50.462 96.9053 42.9822C96.9053 35.2981 98.8277 29.2651 102.679 24.8727C106.531 20.4804 111.822 18.2825 118.551 18.2825C124.798 18.2825 129.731 20.1654 133.357 23.9382C136.979 27.7075 138.79 32.8925 138.79 39.4967V44.8963H107.261C107.407 49.4582 108.644 52.968 110.984 55.4185C113.323 57.8691 116.615 59.0944 120.867 59.0944C123.661 59.0944 126.265 58.8348 128.674 58.3087C131.087 57.7826 133.673 56.9138 136.44 55.6954V63.8156C133.989 64.9751 131.504 65.7989 128.997 66.28C126.481 66.7577 123.613 67 120.39 67Z" fill="#EB1F40"/><path d="M243.899 59.001C247.546 59.001 250.479 57.9868 252.687 55.962C254.898 53.9337 256 51.092 256 47.4369V43.3595L249.93 43.6121C245.192 43.7817 241.751 44.5675 239.599 45.9693C237.444 47.3746 236.366 49.524 236.366 52.4142C236.366 54.5082 236.995 56.1316 238.247 57.2807C239.505 58.4264 241.389 59.001 243.899 59.001ZM258.871 65.8024L256.862 59.2571H256.518C254.237 62.1196 251.939 64.0648 249.631 65.0998C247.32 66.1382 244.351 66.6539 240.732 66.6539C236.081 66.6539 232.455 65.4078 229.845 62.9122C227.234 60.4167 225.931 56.8931 225.931 52.3276C225.931 47.4818 227.745 43.8233 231.364 41.3589C234.986 38.8944 240.503 37.548 247.917 37.3195L256.09 37.0634V34.554C256.09 31.5496 255.388 29.3032 253.973 27.8149C252.562 26.3265 250.368 25.5823 247.406 25.5823C244.98 25.5823 242.658 25.9388 240.433 26.6484C238.209 27.3545 236.067 28.1921 234.013 29.1544L230.763 22.0138C233.328 20.6812 236.137 19.6705 239.189 18.9713C242.241 18.279 245.123 17.9294 247.831 17.9294C253.851 17.9294 258.391 19.2343 261.461 21.8407C264.523 24.447 266.056 28.5452 266.056 34.1282V65.799H258.871V65.8024Z" fill="#EB1F40"/><path d="M292.11 58.9214C294.561 58.9214 297.015 58.5406 299.466 57.7757V65.297C298.357 65.7816 296.921 66.1831 295.169 66.5085C293.414 66.8373 291.595 67 289.715 67C280.187 67 275.424 62.0088 275.424 52.0334V26.6969H268.966V22.2768L275.894 18.6217L279.318 8.67743H285.519V19.134H298.993V26.7003H285.519V51.8638C285.519 54.2729 286.124 56.052 287.337 57.2011C288.554 58.3503 290.142 58.9214 292.11 58.9214Z" fill="#0058A2"/><path d="M326.966 18.2825C328.992 18.2825 330.657 18.4209 331.971 18.7082L330.987 28.0156C329.562 27.6764 328.078 27.5068 326.535 27.5068C322.516 27.5068 319.255 28.8117 316.759 31.418C314.267 34.0244 313.016 37.413 313.016 41.5803V66.152H302.963V19.1305H310.836L312.161 27.4203H312.675C314.246 24.6132 316.287 22.391 318.814 20.7434C321.341 19.1028 324.056 18.2825 326.966 18.2825Z" fill="#0058A2"/><path d="M348.275 59.3471C351.921 59.3471 354.855 58.333 357.062 56.3081C359.273 54.2798 360.379 51.4381 360.379 47.783V43.7056L354.302 43.9583C349.564 44.1279 346.123 44.9136 343.971 46.3154C341.816 47.7207 340.738 49.8701 340.738 52.7603C340.738 54.8544 341.367 56.4777 342.619 57.6269C343.884 58.7725 345.765 59.3471 348.275 59.3471ZM363.246 66.1485L361.237 59.6033H360.893C358.613 62.4657 356.315 64.411 354.007 65.4459C351.695 66.4843 348.726 67 345.108 67C340.457 67 336.831 65.7539 334.22 63.2584C331.61 60.7628 330.306 57.2392 330.306 52.6738C330.306 47.828 332.121 44.1694 335.74 41.705C339.362 39.2405 344.882 37.8941 352.293 37.6657L360.465 37.4095V34.9001C360.465 31.8957 359.76 29.6493 358.349 28.161C356.937 26.6726 354.747 25.9285 351.782 25.9285C349.356 25.9285 347.034 26.285 344.809 26.9945C342.584 27.7006 340.443 28.5383 338.388 29.5005L335.138 22.3599C337.704 21.0273 340.512 20.0166 343.568 19.3174C346.616 18.6252 349.498 18.2756 352.21 18.2756C358.227 18.2756 362.767 19.5805 365.836 22.1868C368.899 24.7932 370.435 28.8913 370.435 34.4744V66.1451H363.246V66.1485Z" fill="#0058A2"/><path d="M396.239 58.9214C400.376 58.9214 403.382 57.7688 405.267 55.4566C407.147 53.148 408.117 49.3994 408.176 44.2144V42.8126C408.176 36.8869 407.206 32.6779 405.267 30.1893C403.327 27.6937 400.289 26.4442 396.155 26.4442C392.617 26.4442 389.895 27.8702 387.983 30.7189C386.075 33.5675 385.115 37.6276 385.115 42.8991C385.115 48.1153 386.043 52.0888 387.896 54.8198C389.752 57.5542 392.53 58.9214 396.239 58.9214ZM393.545 67C387.639 67 383.033 64.8748 379.727 60.6243C376.421 56.3704 374.763 50.4066 374.763 42.726C374.763 35.0178 376.439 29.0159 379.79 24.7205C383.137 20.4285 387.781 18.279 393.715 18.279C399.931 18.279 404.665 20.56 407.919 25.122H408.433C407.947 21.7507 407.707 19.089 407.707 17.1333V4.61735L417.798 0V66.1485H409.925L408.173 59.984H407.703C404.484 64.6602 399.76 67 393.545 67Z" fill="#0058A2"/><path d="M443.765 25.8488C440.571 25.8488 438.012 26.8561 436.09 28.8671C434.164 30.8815 433.017 33.8132 432.645 37.6691H454.121C454.062 33.7855 453.12 30.8469 451.298 28.8463C449.47 26.8491 446.963 25.8488 443.765 25.8488ZM445.604 67C438.249 67 432.492 64.8678 428.342 60.6001C424.191 56.3358 422.119 50.462 422.119 42.9822C422.119 35.2981 424.041 29.2651 427.897 24.8727C431.745 20.4804 437.035 18.2825 443.765 18.2825C450.012 18.2825 454.945 20.1654 458.57 23.9382C462.193 27.7075 464.004 32.8925 464.004 39.4967V44.8963H432.475C432.617 49.4582 433.858 52.968 436.198 55.4185C438.537 57.8691 441.829 59.0944 446.08 59.0944C448.875 59.0944 451.475 58.8348 453.888 58.3087C456.3 57.7826 458.887 56.9138 461.654 55.6954V63.8156C459.203 64.9751 456.718 65.7989 454.211 66.28C451.694 66.7577 448.827 67 445.604 67Z" fill="#0058A2"/><path d="M165.421 33.2698C165.202 33.1556 164.472 32.9445 163.752 33.1867C159.97 34.457 158.653 36.8107 159.004 40.1716C159.605 45.9208 160.547 48.2641 160.947 49.5344C161.437 51.0781 163.38 52.9264 165.407 52.9264C166.957 52.9264 169.206 52.7257 172.957 48.676L210.99 5.79418C210.813 5.93955 211.018 5.82533 210.966 5.82187L210.99 5.79418C208.557 5.65919 204.938 5.92917 203.301 6.23376C201.667 6.54528 200.356 7.17869 199.181 7.84672C195.858 9.7435 169.345 40.9435 168.636 40.9435C167.409 40.9435 167.1 37.8387 166.808 35.7619C166.669 34.7789 166.384 34.1836 166.099 33.8479C166.102 33.8479 165.824 33.481 165.421 33.2698Z" fill="#0058A2"/></g></svg>