<?xml version="1.0" encoding="UTF-8" standalone="no"?><!DOCTYPE svg PUBLIC "-//W3C//DTD SVG 1.1//EN" "http://www.w3.org/Graphics/SVG/1.1/DTD/svg11.dtd"><svg width="100%" height="100%" viewBox="0 0 450 227" version="1.1" xmlns="http://www.w3.org/2000/svg" xmlns:xlink="http://www.w3.org/1999/xlink" xml:space="preserve" xmlns:serif="http://www.serif.com/" style="fill-rule:evenodd;clip-rule:evenodd;stroke-linejoin:round;stroke-miterlimit:2;"><rect id="Artboard1" x="0" y="0" width="450" height="226.5" style="fill:none;"/><g id="Artboard11" serif:id="Artboard1"><g><path d="M121.499,128.469c-50.131,30.43 -88.272,34.953 -112.721,14.392c28.177,10.226 70.423,-4.51 102.941,-32.061c-30.85,20.789 -59.402,28.805 -77.56,30.39c-35.691,3.089 -45.252,-23.502 -15.154,-48.632c-24.67,26.884 -3.005,44.333 26.049,34.897c25.422,-8.223 62.283,-34.437 99.559,-83.404l17.826,55.854c-3.01,2.346 -5.987,4.617 -8.93,6.813l-32.01,0l-0,21.751Z" style="fill:#9da5ad;"/><path d="M70.184,80.912l37.695,-0c-5.386,5.259 -10.937,10.31 -16.656,15.112c-3.757,3.089 -7.765,6.218 -11.938,9.224l-9.101,-0l0,-24.336Zm-30.766,-29.639l0,23.836l-11.897,0c2.338,-8.809 6.428,-16.865 11.897,-23.836Zm52.974,-25.923c7.764,-0 15.235,1.336 22.166,3.758l-0,15.821l-44.374,-0l0,-15.821c6.929,-2.422 14.402,-3.758 22.208,-3.758Zm28.261,6.22c7.137,3.339 13.608,7.889 19.118,13.359l-19.118,-0l-0,-13.359Zm-86.202,94.801c-2.797,-4.759 -5.009,-9.894 -6.597,-15.278l42.914,-0c-8.6,5.467 -17.7,10.227 -26.758,13.15c-3.047,1.001 -6.261,1.753 -9.559,2.128Zm-7.975,-21.123c-0.792,-4.132 -1.209,-8.39 -1.209,-12.774c-0,-3.966 0.334,-7.806 1.003,-11.562l37.819,-0l0,24.336l-37.613,-0Zm18.495,-60.319c5.509,-5.47 11.979,-10.02 19.118,-13.359l0,13.359l-19.118,-0Zm0.5,5.843l44.416,-0l-0,24.337l-44.416,0l0,-24.337Zm50.468,-0l39.115,-0c-6.762,8.391 -13.901,16.573 -21.415,24.337l-17.7,0l0,-24.337Z" style="fill:#c52828;"/><path d="M165.547,115.971c11.866,0 20.9,3.292 27.101,9.876c6.201,6.584 9.302,15.924 9.302,28.02c-0,12.02 -3.101,21.34 -9.302,27.963c-6.201,6.622 -15.235,9.933 -27.101,9.933l-34.795,-0l-0,-75.792l34.795,0Zm-2.871,58.681c5.665,0 9.608,-1.703 11.828,-5.11c2.22,-3.407 3.33,-8.632 3.33,-15.675c0,-7.043 -1.11,-12.268 -3.33,-15.675c-2.22,-3.407 -6.163,-5.11 -11.828,-5.11l-8.498,-0l0,41.57l8.498,0Z" style="fill:#c52828;fill-rule:nonzero;"/><path d="M121.499,152.952c-8.854,4.273 -18.747,6.647 -29.107,6.647c-7.89,0 -15.613,-1.378 -23.002,-4.048c17.422,-4.491 35.333,-13.099 52.109,-23.126l-0,20.527Z" style="fill:#292929;"/><path d="M228.132,169.944c4.134,0 7.311,0.995 9.532,2.986c2.22,1.99 3.33,4.785 3.33,8.383c-0,3.598 -1.11,6.392 -3.33,8.383c-2.221,1.99 -5.398,2.986 -9.532,2.986c-3.981,-0 -7.12,-0.996 -9.416,-2.986c-2.297,-1.991 -3.445,-4.785 -3.445,-8.383c-0,-3.598 1.148,-6.393 3.445,-8.383c2.296,-1.991 5.435,-2.986 9.416,-2.986Z" style="fill:#c52828;fill-rule:nonzero;"/><path d="M292.785,114.823c7.196,0 13.589,0.976 19.177,2.928c5.589,1.953 10.489,4.919 14.699,8.9l-10.22,15.044c-3.445,-2.91 -7.101,-5.187 -10.967,-6.833c-3.866,-1.646 -8.134,-2.469 -12.804,-2.469c-2.373,-0 -4.287,0.23 -5.742,0.689c-1.454,0.459 -2.507,1.091 -3.158,1.895c-0.651,0.804 -0.976,1.703 -0.976,2.698c0,1.225 0.746,2.22 2.239,2.986c1.493,0.766 3.579,1.455 6.259,2.067l11.483,2.641c7.656,1.761 13.36,4.345 17.111,7.752c3.751,3.407 5.627,8.057 5.627,13.952c-0,5.742 -1.435,10.527 -4.306,14.355c-2.871,3.828 -6.795,6.699 -11.771,8.612c-4.976,1.914 -10.603,2.871 -16.881,2.871c-4.976,0 -9.818,-0.497 -14.527,-1.493c-4.708,-0.995 -9.014,-2.43 -12.919,-4.306c-3.904,-1.876 -7.273,-4.115 -10.105,-6.718l10.105,-15.503c2.067,1.991 4.594,3.771 7.58,5.34c2.985,1.57 6.162,2.814 9.531,3.732c3.368,0.919 6.622,1.378 9.761,1.378c2.22,0 4.038,-0.21 5.455,-0.631c1.416,-0.421 2.43,-1.015 3.043,-1.78c0.612,-0.766 0.918,-1.684 0.918,-2.756c0,-1.302 -0.497,-2.354 -1.492,-3.158c-0.996,-0.804 -2.871,-1.512 -5.627,-2.125l-12.632,-2.87c-4.134,-0.919 -7.962,-2.182 -11.484,-3.79c-3.521,-1.608 -6.335,-3.847 -8.44,-6.718c-2.106,-2.871 -3.158,-6.641 -3.158,-11.311c-0,-4.976 1.339,-9.379 4.019,-13.206c2.679,-3.828 6.584,-6.814 11.713,-8.958c5.13,-2.143 11.292,-3.215 18.489,-3.215Z" style="fill:#c52828;fill-rule:nonzero;"/><path d="M351.236,169.944c4.134,0 7.311,0.995 9.532,2.986c2.22,1.99 3.33,4.785 3.33,8.383c-0,3.598 -1.11,6.392 -3.33,8.383c-2.221,1.99 -5.398,2.986 -9.532,2.986c-3.981,-0 -7.12,-0.996 -9.416,-2.986c-2.297,-1.991 -3.445,-4.785 -3.445,-8.383c-0,-3.598 1.148,-6.393 3.445,-8.383c2.296,-1.991 5.435,-2.986 9.416,-2.986Z" style="fill:#c52828;fill-rule:nonzero;"/><path d="M444.483,133.541l-37.551,0l-0,13.206l30.087,0l-0,17.57l-30.087,0l-0,27.446l-23.427,-0l0,-75.792l60.978,0l-0,17.57Z" style="fill:#c52828;fill-rule:nonzero;"/><g transform="matrix(23.9308,0,0,23.9308,449.331,226.012)"></g><text x="131.41px" y="226.012px" style="font-family:'WorkSans-BoldItalic', 'Work Sans';font-weight:700;font-style:italic;font-size:23.931px;fill:#5a6672;">PLAS<tspan x="192.243px " y="226.012px ">T</tspan>ERING &amp; RENDERING</text><g><path d="M191.995,2.624c-0.59,-1.821 -2.547,-2.82 -4.367,-2.23l-45.069,14.606c-1.82,0.59 -2.819,2.546 -2.229,4.367l29.455,90.891c0.59,1.821 2.547,2.82 4.367,2.23l45.069,-14.606c1.82,-0.59 2.819,-2.547 2.229,-4.367l-29.455,-90.891Z" style="fill:#292929;"/><path d="M199.676,55c-0.117,-0.361 -0.505,-0.559 -0.865,-0.442l-9.034,2.928c-0.361,0.117 -0.559,0.505 -0.442,0.865l11.35,35.024c0.866,2.674 3.74,4.141 6.414,3.274c3.034,-0.983 4.699,-4.245 3.715,-7.279l-11.138,-34.37Z" style="fill:#9da5ad;"/><path d="M189.514,53.07c-0.465,-0.518 -0.95,-0.871 -1.496,-1.063c-0.708,-0.25 -1.983,-0.588 -3.234,0.202c-0.422,0.32 -0.704,0.881 -0.847,1.626c-0.176,0.915 -0.153,2.033 0.083,3.365l12.13,37.429c0.467,1.44 -0.324,2.989 -1.765,3.456c-1.44,0.467 -2.989,-0.324 -3.456,-1.765l-25.299,-78.067c-0.467,-1.44 0.324,-2.989 1.764,-3.456c1.441,-0.467 2.99,0.324 3.457,1.764l8.744,26.985c0.442,0.953 1.033,2.018 1.77,2.886c0.675,0.795 1.384,1.075 2.571,0.923c0.153,-0.02 0.301,-0.036 0.442,-0.048c1.993,-0.352 3.706,-0.351 5.229,0.185c1.658,0.584 3.213,1.795 4.668,4.035l-4.761,1.543Z" style="fill:#fff;"/></g></g></g></svg>