<?xml version="1.0" encoding="UTF-8" standalone="no"?><!DOCTYPE svg PUBLIC "-//W3C//DTD SVG 1.1//EN" "http://www.w3.org/Graphics/SVG/1.1/DTD/svg11.dtd"><svg width="100%" height="100%" viewBox="0 0 966 210" version="1.1" xmlns="http://www.w3.org/2000/svg" xmlns:xlink="http://www.w3.org/1999/xlink" xml:space="preserve" xmlns:serif="http://www.serif.com/" style="fill-rule:evenodd;clip-rule:evenodd;stroke-linejoin:round;stroke-miterlimit:2;"><path d="M447.455,62.731l-6.815,-44.186c-0.184,-1.191 0.333,-2.38 1.328,-3.059c0.995,-0.678 2.291,-0.724 3.332,-0.119l21.932,12.761l11.931,-26.294c0.506,-1.117 1.619,-1.834 2.845,-1.834c1.227,0 2.34,0.717 2.846,1.834l11.93,26.294l21.933,-12.761c1.04,-0.605 2.337,-0.559 3.332,0.119c0.995,0.679 1.511,1.868 1.328,3.059l-6.816,44.186c-0.235,1.524 -1.546,2.649 -3.088,2.649l-62.929,-0c-1.542,-0 -2.853,-1.125 -3.089,-2.649Zm5.769,-3.601l57.569,-0c-0,-0 5.409,-35.069 5.409,-35.069l-19.263,11.208c-0.764,0.445 -1.68,0.545 -2.522,0.276c-0.842,-0.268 -1.53,-0.881 -1.896,-1.685l-10.513,-23.172l-10.513,23.172c-0.365,0.804 -1.054,1.417 -1.895,1.685c-0.842,0.269 -1.758,0.169 -2.522,-0.276c-0,0 -19.263,-11.208 -19.263,-11.208l5.409,35.069Z" style="fill:#c6c4b9;"/><rect x="6.017" y="41.1" width="397.032" height="6.25" style="fill:#c6c4b9;"/><rect x="566.985" y="41.1" width="397.032" height="6.25" style="fill:#c6c4b9;"/><g><path d="M101.747,206.704c0.203,-0 0.304,0.304 0.304,0.911c-0,0.607 -0.101,0.911 -0.304,0.911l-27.031,0c-2.227,0 -6.378,-4.024 -12.453,-12.073c-6.074,-8.048 -13.414,-19.312 -22.02,-33.789c-0.81,0.101 -1.974,0.152 -3.493,0.152c-3.948,-0 -6.732,-0.051 -8.352,-0.152l0,33.561c0,3.139 0.253,5.417 0.759,6.834c0.507,1.418 1.494,2.379 2.962,2.886c1.468,0.506 3.822,0.759 7.061,0.759c0.203,-0 0.304,0.304 0.304,0.911c-0,0.607 -0.101,0.911 -0.304,0.911c-3.341,0 -5.973,-0.05 -7.897,-0.152l-11.541,-0.152l-11.086,0.152c-2.025,0.102 -4.758,0.152 -8.2,0.152c-0.304,0 -0.456,-0.304 -0.456,-0.911c-0,-0.607 0.152,-0.911 0.456,-0.911c3.239,-0 5.593,-0.253 7.061,-0.759c1.468,-0.507 2.481,-1.494 3.037,-2.962c0.557,-1.468 0.836,-3.72 0.836,-6.758l-0,-70.311c-0,-3.038 -0.253,-5.265 -0.76,-6.682c-0.506,-1.418 -1.518,-2.405 -3.037,-2.962c-1.519,-0.557 -3.847,-0.835 -6.986,-0.835c-0.202,0 -0.303,-0.304 -0.303,-0.911c-0,-0.608 0.101,-0.911 0.303,-0.911l8.049,0.152c4.657,0.202 8.352,0.303 11.086,0.303c3.442,0 7.036,-0.152 10.782,-0.455c1.316,-0.102 2.961,-0.203 4.936,-0.304c1.974,-0.101 4.176,-0.152 6.606,-0.152c9.213,0 16.35,1.696 21.412,5.088c5.062,3.391 7.593,8.124 7.593,14.199c0,5.568 -1.518,10.605 -4.556,15.11c-3.037,4.505 -7.087,8.124 -12.149,10.858c8.1,12.149 14.883,21.665 20.35,28.55c5.467,6.884 10.326,11.896 14.579,15.034c4.252,3.139 8.403,4.708 12.452,4.708Zm-73.349,-48.292c2.43,0.405 5.366,0.607 8.808,0.607c5.872,0 10.099,-1.645 12.68,-4.935c2.582,-3.291 3.873,-8.58 3.873,-15.87c-0,-8.301 -1.215,-14.022 -3.645,-17.16c-2.429,-3.139 -5.922,-4.708 -10.478,-4.708c-4.05,0 -6.935,0.76 -8.656,2.278c-1.721,1.519 -2.582,4.05 -2.582,7.593l0,32.195Z" style="fill:#fff;fill-rule:nonzero;"/><path d="M148.672,210.348c-9.415,0 -17.793,-2.201 -25.133,-6.605c-7.34,-4.404 -13.009,-10.378 -17.008,-17.92c-3.999,-7.543 -5.999,-15.768 -5.999,-24.678c0,-10.427 2.633,-19.362 7.897,-26.803c5.265,-7.441 12.022,-13.035 20.274,-16.781c8.251,-3.746 16.679,-5.619 25.285,-5.619c9.617,0 18.071,2.253 25.36,6.758c7.29,4.505 12.883,10.453 16.781,17.844c3.898,7.39 5.847,15.237 5.847,23.538c-0,9.213 -2.43,17.667 -7.29,25.361c-4.859,7.695 -11.364,13.769 -19.514,18.224c-8.15,4.454 -16.983,6.681 -26.5,6.681Zm5.012,-3.796c5.669,-0 10.757,-1.645 15.262,-4.936c4.505,-3.29 8.023,-8.099 10.554,-14.426c2.531,-6.328 3.797,-13.896 3.797,-22.704c-0,-9.314 -1.418,-17.641 -4.252,-24.981c-2.835,-7.34 -6.935,-13.085 -12.301,-17.236c-5.366,-4.151 -11.643,-6.226 -18.831,-6.226c-9.213,-0 -16.3,3.467 -21.261,10.402c-4.96,6.935 -7.441,16.629 -7.441,29.081c0,9.821 1.494,18.604 4.48,26.348c2.987,7.745 7.087,13.795 12.301,18.148c5.214,4.353 11.111,6.53 17.692,6.53Z" style="fill:#fff;fill-rule:nonzero;"/><path d="M264.998,210.348c-9.415,0 -17.793,-2.201 -25.133,-6.605c-7.34,-4.404 -13.009,-10.378 -17.008,-17.92c-3.999,-7.543 -5.999,-15.768 -5.999,-24.678c0,-10.427 2.632,-19.362 7.897,-26.803c5.265,-7.441 12.022,-13.035 20.274,-16.781c8.251,-3.746 16.679,-5.619 25.284,-5.619c9.618,0 18.072,2.253 25.361,6.758c7.29,4.505 12.883,10.453 16.781,17.844c3.898,7.39 5.847,15.237 5.847,23.538c-0,9.213 -2.43,17.667 -7.29,25.361c-4.859,7.695 -11.364,13.769 -19.514,18.224c-8.15,4.454 -16.983,6.681 -26.5,6.681Zm5.012,-3.796c5.669,-0 10.757,-1.645 15.262,-4.936c4.505,-3.29 8.023,-8.099 10.554,-14.426c2.531,-6.328 3.797,-13.896 3.797,-22.704c-0,-9.314 -1.418,-17.641 -4.252,-24.981c-2.835,-7.34 -6.935,-13.085 -12.301,-17.236c-5.366,-4.151 -11.643,-6.226 -18.831,-6.226c-9.213,-0 -16.3,3.467 -21.261,10.402c-4.96,6.935 -7.441,16.629 -7.441,29.081c0,9.821 1.493,18.604 4.48,26.348c2.987,7.745 7.087,13.795 12.301,18.148c5.214,4.353 11.111,6.53 17.692,6.53Z" style="fill:#fff;fill-rule:nonzero;"/><path d="M398.181,135.177c-0,0.203 -0.279,0.354 -0.835,0.456c-0.557,0.101 -0.886,-0 -0.988,-0.304c-1.619,-5.872 -4.353,-10.225 -8.2,-13.06c-3.847,-2.835 -8.909,-4.252 -15.186,-4.252l-4.556,-0c-3.037,-0 -5.265,0.658 -6.682,1.974c-1.417,1.316 -2.126,3.341 -2.126,6.074l0,32.802l10.934,0c5.872,0 10.352,-1.037 13.44,-3.113c3.088,-2.075 4.632,-4.935 4.632,-8.58c-0,-0.202 0.303,-0.304 0.911,-0.304c0.607,0 0.911,0.102 0.911,0.304l-0.152,13.82c0,3.239 0.051,5.669 0.152,7.289l0.152,8.049c-0,0.303 -0.304,0.455 -0.911,0.455c-0.608,0 -0.912,-0.152 -0.912,-0.455c0,-4.05 -1.594,-7.265 -4.783,-9.644c-3.189,-2.379 -7.72,-3.568 -13.592,-3.568l-10.782,-0l0,32.498c0,3.138 0.405,5.467 1.215,6.986c0.81,1.518 2.328,2.581 4.556,3.189c2.227,0.607 5.72,0.911 10.478,0.911c0.203,-0 0.304,0.304 0.304,0.911c-0,0.607 -0.101,0.911 -0.304,0.911c-4.151,0 -7.39,-0.05 -9.719,-0.152l-15.49,-0.152l-11.389,0.152c-2.025,0.102 -4.809,0.152 -8.353,0.152c-0.304,0 -0.455,-0.304 -0.455,-0.911c-0,-0.607 0.151,-0.911 0.455,-0.911c3.544,-0 6.125,-0.253 7.745,-0.759c1.62,-0.507 2.708,-1.494 3.265,-2.962c0.557,-1.468 0.835,-3.72 0.835,-6.758l0,-70.311c0,-3.038 -0.253,-5.265 -0.759,-6.682c-0.506,-1.418 -1.519,-2.405 -3.037,-2.962c-1.519,-0.557 -3.847,-0.835 -6.986,-0.835c-0.304,0 -0.455,-0.304 -0.455,-0.911c-0,-0.608 0.151,-0.911 0.455,-0.911l64.389,-0c1.013,-0 1.519,0.455 1.519,1.366l0.304,20.198Z" style="fill:#fff;fill-rule:nonzero;"/><path d="M410.178,183.469c-0.203,0 -0.38,-0.405 -0.532,-1.215c-0.151,-0.81 -0.227,-1.721 -0.227,-2.733c-0,-0.912 0.05,-1.721 0.151,-2.43c0.102,-0.709 0.254,-1.063 0.456,-1.063l68.034,-0c0.202,-0 0.38,0.379 0.531,1.139c0.152,0.759 0.228,1.594 0.228,2.505c0,0.912 -0.076,1.772 -0.228,2.582c-0.151,0.81 -0.329,1.215 -0.531,1.215l-67.882,0Z" style="fill:#fff;fill-rule:nonzero;"/><path d="M590.741,206.704c0.203,-0 0.304,0.304 0.304,0.911c-0,0.607 -0.101,0.911 -0.304,0.911l-27.031,0c-2.227,0 -6.378,-4.024 -12.453,-12.073c-6.074,-8.048 -13.414,-19.312 -22.02,-33.789c-0.81,0.101 -1.974,0.152 -3.493,0.152c-3.948,-0 -6.732,-0.051 -8.352,-0.152l0,33.561c0,3.139 0.253,5.417 0.759,6.834c0.507,1.418 1.494,2.379 2.962,2.886c1.468,0.506 3.822,0.759 7.061,0.759c0.203,-0 0.304,0.304 0.304,0.911c-0,0.607 -0.101,0.911 -0.304,0.911c-3.341,0 -5.973,-0.05 -7.897,-0.152l-11.541,-0.152l-11.086,0.152c-2.025,0.102 -4.758,0.152 -8.2,0.152c-0.304,0 -0.456,-0.304 -0.456,-0.911c-0,-0.607 0.152,-0.911 0.456,-0.911c3.239,-0 5.593,-0.253 7.061,-0.759c1.468,-0.507 2.481,-1.494 3.037,-2.962c0.557,-1.468 0.836,-3.72 0.836,-6.758l-0,-70.311c-0,-3.038 -0.253,-5.265 -0.76,-6.682c-0.506,-1.418 -1.518,-2.405 -3.037,-2.962c-1.519,-0.557 -3.847,-0.835 -6.986,-0.835c-0.202,0 -0.303,-0.304 -0.303,-0.911c-0,-0.608 0.101,-0.911 0.303,-0.911l8.049,0.152c4.657,0.202 8.352,0.303 11.086,0.303c3.442,0 7.036,-0.152 10.782,-0.455c1.316,-0.102 2.961,-0.203 4.936,-0.304c1.974,-0.101 4.176,-0.152 6.606,-0.152c9.213,0 16.35,1.696 21.412,5.088c5.062,3.391 7.593,8.124 7.593,14.199c0,5.568 -1.518,10.605 -4.556,15.11c-3.037,4.505 -7.087,8.124 -12.149,10.858c8.1,12.149 14.883,21.665 20.35,28.55c5.467,6.884 10.326,11.896 14.579,15.034c4.252,3.139 8.403,4.708 12.452,4.708Zm-73.349,-48.292c2.43,0.405 5.366,0.607 8.808,0.607c5.872,0 10.099,-1.645 12.68,-4.935c2.582,-3.291 3.873,-8.58 3.873,-15.87c-0,-8.301 -1.215,-14.022 -3.645,-17.16c-2.429,-3.139 -5.922,-4.708 -10.478,-4.708c-4.05,0 -6.935,0.76 -8.656,2.278c-1.721,1.519 -2.582,4.05 -2.582,7.593l0,32.195Z" style="fill:#fff;fill-rule:nonzero;"/><path d="M664.546,184.38c-0,-0.202 0.202,-0.304 0.607,-0.304c0.304,0 0.582,0.076 0.836,0.228c0.253,0.152 0.379,0.279 0.379,0.38c-1.012,7.897 -1.518,15.085 -1.518,21.564c-0,0.81 -0.152,1.392 -0.456,1.747c-0.304,0.354 -0.911,0.531 -1.822,0.531l-67.123,0c-0.304,0 -0.456,-0.304 -0.456,-0.911c0,-0.607 0.152,-0.911 0.456,-0.911c3.24,-0 5.593,-0.253 7.061,-0.759c1.468,-0.507 2.456,-1.494 2.962,-2.962c0.506,-1.468 0.759,-3.72 0.759,-6.758l0,-70.311c0,-3.038 -0.253,-5.265 -0.759,-6.682c-0.506,-1.418 -1.519,-2.405 -3.037,-2.962c-1.519,-0.557 -3.848,-0.835 -6.986,-0.835c-0.304,0 -0.456,-0.304 -0.456,-0.911c0,-0.608 0.152,-0.911 0.456,-0.911l64.389,-0c1.013,-0 1.519,0.455 1.519,1.366l0.304,20.198c-0,0.203 -0.279,0.354 -0.836,0.456c-0.557,0.101 -0.886,-0 -0.987,-0.304c-1.62,-5.872 -4.353,-10.225 -8.2,-13.06c-3.848,-2.835 -8.91,-4.252 -15.186,-4.252l-4.556,-0c-3.038,-0 -5.265,0.658 -6.682,1.974c-1.418,1.316 -2.126,3.341 -2.126,6.074l-0,30.98l12.604,0c5.872,0 10.377,-1.012 13.516,-3.037c3.138,-2.025 4.708,-4.86 4.708,-8.504c-0,-0.304 0.278,-0.456 0.835,-0.456c0.557,0 0.835,0.152 0.835,0.456l-0.152,13.667l0.152,7.29c0.203,3.442 0.304,6.175 0.304,8.2c-0,0.203 -0.304,0.304 -0.911,0.304c-0.608,-0 -0.912,-0.101 -0.912,-0.304c0,-4.151 -1.594,-7.416 -4.783,-9.795c-3.189,-2.379 -7.77,-3.569 -13.744,-3.569l-12.452,0l-0,34.321c-0,2.936 0.557,5.113 1.67,6.53c1.114,1.417 2.886,2.126 5.315,2.126l5.012,0c7.897,0 14.224,-1.62 18.982,-4.86c4.759,-3.239 8.252,-8.251 10.479,-15.034Z" style="fill:#fff;fill-rule:nonzero;"/><path d="M705.397,195.618c-0,2.632 0.202,4.53 0.607,5.695c0.405,1.164 1.19,1.949 2.354,2.354c1.164,0.405 3.062,0.607 5.695,0.607l5.163,0c7.897,0 14.731,-2.101 20.501,-6.302c5.771,-4.202 9.618,-9.897 11.542,-17.085c-0,-0.202 0.202,-0.303 0.607,-0.303c0.203,-0 0.431,0.076 0.684,0.227c0.253,0.152 0.379,0.279 0.379,0.38c-0.911,10.023 -1.366,18.375 -1.366,25.057c-0,0.81 -0.178,1.392 -0.532,1.747c-0.354,0.354 -0.936,0.531 -1.746,0.531l-71.679,0c-0.203,0 -0.304,-0.304 -0.304,-0.911c0,-0.607 0.101,-0.911 0.304,-0.911c3.24,-0 5.594,-0.253 7.062,-0.759c1.468,-0.507 2.48,-1.494 3.037,-2.962c0.557,-1.468 0.835,-3.72 0.835,-6.758l-0,-70.311c-0,-3.038 -0.278,-5.265 -0.835,-6.682c-0.557,-1.418 -1.595,-2.405 -3.113,-2.962c-1.519,-0.557 -3.848,-0.835 -6.986,-0.835c-0.203,0 -0.304,-0.304 -0.304,-0.911c0,-0.608 0.101,-0.911 0.304,-0.911l7.745,0.152c4.657,0.202 8.504,0.303 11.541,0.303c3.038,0 6.885,-0.101 11.542,-0.303l7.745,-0.152c0.304,-0 0.455,0.303 0.455,0.911c0,0.607 -0.151,0.911 -0.455,0.911c-3.139,0 -5.467,0.278 -6.986,0.835c-1.518,0.557 -2.531,1.57 -3.037,3.038c-0.506,1.468 -0.759,3.72 -0.759,6.757l-0,69.553Z" style="fill:#fff;fill-rule:nonzero;"/><path d="M790.287,196.225c0,3.139 0.253,5.417 0.759,6.834c0.507,1.418 1.494,2.379 2.962,2.886c1.468,0.506 3.822,0.759 7.061,0.759c0.304,-0 0.456,0.304 0.456,0.911c-0,0.607 -0.152,0.911 -0.456,0.911c-3.341,0 -5.973,-0.05 -7.896,-0.152l-11.542,-0.152l-11.238,0.152c-2.024,0.102 -4.758,0.152 -8.2,0.152c-0.203,0 -0.304,-0.304 -0.304,-0.911c0,-0.607 0.101,-0.911 0.304,-0.911c3.24,-0 5.619,-0.253 7.137,-0.759c1.519,-0.507 2.557,-1.494 3.113,-2.962c0.557,-1.468 0.836,-3.72 0.836,-6.758l-0,-70.311c-0,-3.038 -0.279,-5.265 -0.836,-6.682c-0.556,-1.418 -1.594,-2.405 -3.113,-2.962c-1.518,-0.557 -3.897,-0.835 -7.137,-0.835c-0.203,0 -0.304,-0.304 -0.304,-0.911c0,-0.608 0.101,-0.911 0.304,-0.911l8.2,0.152c4.657,0.202 8.403,0.303 11.238,0.303c3.139,0 7.036,-0.101 11.693,-0.303l7.745,-0.152c0.304,-0 0.456,0.303 0.456,0.911c-0,0.607 -0.152,0.911 -0.456,0.911c-3.138,0 -5.467,0.304 -6.985,0.911c-1.519,0.608 -2.531,1.645 -3.038,3.113c-0.506,1.468 -0.759,3.721 -0.759,6.758l0,70.008Z" style="fill:#fff;fill-rule:nonzero;"/><path d="M883.075,184.38c-0,-0.202 0.202,-0.304 0.607,-0.304c0.304,0 0.582,0.076 0.835,0.228c0.253,0.152 0.38,0.279 0.38,0.38c-1.013,7.897 -1.519,15.085 -1.519,21.564c0,0.81 -0.152,1.392 -0.455,1.747c-0.304,0.354 -0.911,0.531 -1.823,0.531l-67.122,0c-0.304,0 -0.456,-0.304 -0.456,-0.911c-0,-0.607 0.152,-0.911 0.456,-0.911c3.239,-0 5.593,-0.253 7.061,-0.759c1.468,-0.507 2.455,-1.494 2.961,-2.962c0.507,-1.468 0.76,-3.72 0.76,-6.758l-0,-70.311c-0,-3.038 -0.253,-5.265 -0.76,-6.682c-0.506,-1.418 -1.518,-2.405 -3.037,-2.962c-1.518,-0.557 -3.847,-0.835 -6.985,-0.835c-0.304,0 -0.456,-0.304 -0.456,-0.911c-0,-0.608 0.152,-0.911 0.456,-0.911l64.389,-0c1.012,-0 1.518,0.455 1.518,1.366l0.304,20.198c0,0.203 -0.278,0.354 -0.835,0.456c-0.557,0.101 -0.886,-0 -0.987,-0.304c-1.62,-5.872 -4.354,-10.225 -8.201,-13.06c-3.847,-2.835 -8.909,-4.252 -15.186,-4.252l-4.556,-0c-3.037,-0 -5.264,0.658 -6.682,1.974c-1.417,1.316 -2.126,3.341 -2.126,6.074l0,30.98l12.605,0c5.872,0 10.377,-1.012 13.516,-3.037c3.138,-2.025 4.707,-4.86 4.707,-8.504c0,-0.304 0.279,-0.456 0.835,-0.456c0.557,0 0.836,0.152 0.836,0.456l-0.152,13.667l0.152,7.29c0.202,3.442 0.303,6.175 0.303,8.2c0,0.203 -0.303,0.304 -0.911,0.304c-0.607,-0 -0.911,-0.101 -0.911,-0.304c0,-4.151 -1.594,-7.416 -4.784,-9.795c-3.189,-2.379 -7.77,-3.569 -13.743,-3.569l-12.453,0l0,34.321c0,2.936 0.557,5.113 1.671,6.53c1.114,1.417 2.885,2.126 5.315,2.126l5.011,0c7.897,0 14.225,-1.62 18.983,-4.86c4.758,-3.239 8.251,-8.251 10.479,-15.034Z" style="fill:#fff;fill-rule:nonzero;"/><path d="M964.017,135.177c-0,0.203 -0.279,0.354 -0.836,0.456c-0.556,0.101 -0.885,-0 -0.987,-0.304c-1.619,-5.872 -4.353,-10.225 -8.2,-13.06c-3.847,-2.835 -8.909,-4.252 -15.186,-4.252l-4.556,-0c-3.037,-0 -5.265,0.658 -6.682,1.974c-1.417,1.316 -2.126,3.341 -2.126,6.074l-0,32.802l10.934,0c5.872,0 10.352,-1.037 13.44,-3.113c3.088,-2.075 4.631,-4.935 4.631,-8.58c0,-0.202 0.304,-0.304 0.912,-0.304c0.607,0 0.911,0.102 0.911,0.304l-0.152,13.82c-0,3.239 0.051,5.669 0.152,7.289l0.152,8.049c-0,0.303 -0.304,0.455 -0.912,0.455c-0.607,0 -0.911,-0.152 -0.911,-0.455c0,-4.05 -1.594,-7.265 -4.783,-9.644c-3.189,-2.379 -7.72,-3.568 -13.592,-3.568l-10.782,-0l-0,32.498c-0,3.138 0.405,5.467 1.215,6.986c0.81,1.518 2.328,2.581 4.556,3.189c2.227,0.607 5.72,0.911 10.478,0.911c0.203,-0 0.304,0.304 0.304,0.911c-0,0.607 -0.101,0.911 -0.304,0.911c-4.151,0 -7.39,-0.05 -9.719,-0.152l-15.49,-0.152l-11.39,0.152c-2.024,0.102 -4.808,0.152 -8.352,0.152c-0.304,0 -0.455,-0.304 -0.455,-0.911c-0,-0.607 0.151,-0.911 0.455,-0.911c3.544,-0 6.125,-0.253 7.745,-0.759c1.62,-0.507 2.708,-1.494 3.265,-2.962c0.557,-1.468 0.835,-3.72 0.835,-6.758l0,-70.311c0,-3.038 -0.253,-5.265 -0.759,-6.682c-0.506,-1.418 -1.519,-2.405 -3.037,-2.962c-1.519,-0.557 -3.847,-0.835 -6.986,-0.835c-0.304,0 -0.455,-0.304 -0.455,-0.911c-0,-0.608 0.151,-0.911 0.455,-0.911l64.389,-0c1.013,-0 1.519,0.455 1.519,1.366l0.304,20.198Z" style="fill:#fff;fill-rule:nonzero;"/></g></svg>