<?xml version="1.0" encoding="UTF-8" standalone="no"?>
<!DOCTYPE svg PUBLIC "-//W3C//DTD SVG 1.1//EN" "http://www.w3.org/Graphics/SVG/1.1/DTD/svg11.dtd">
<svg width="100%" height="100%" viewBox="0 0 1012 412" version="1.1" xmlns="http://www.w3.org/2000/svg" xmlns:xlink="http://www.w3.org/1999/xlink" xml:space="preserve" xmlns:serif="http://www.serif.com/" style="fill-rule:evenodd;clip-rule:evenodd;stroke-linejoin:round;stroke-miterlimit:2;">
    <path d="M125.567,297.104C117.178,297.104 109.758,295.096 103.308,291.082C96.857,287.068 91.783,281.474 88.084,274.303C84.386,267.131 82.536,258.854 82.536,249.472C82.536,241.713 83.799,234.948 86.325,229.174C88.851,223.4 92.257,218.574 96.542,214.695C100.827,210.816 105.653,207.929 111.021,206.035C116.388,204.14 121.959,203.193 127.733,203.193C133.416,203.193 138.603,203.779 143.294,204.952C147.985,206.125 152.811,207.884 157.773,210.229C157.142,213.387 156.736,216.747 156.555,220.311C156.375,223.874 156.285,227.505 156.285,231.204C155.112,231.655 153.984,231.971 152.902,232.151C151.819,232.331 150.556,232.422 149.113,232.422C148.932,226.017 147.985,221.1 146.271,217.672C144.557,214.244 142.212,211.898 139.235,210.635C136.258,209.372 132.784,208.741 128.815,208.741C123.132,208.741 118.26,209.778 114.201,211.853C110.141,213.928 106.826,216.702 104.255,220.175C101.684,223.648 99.789,227.595 98.571,232.016C97.354,236.436 96.745,241.037 96.745,245.818C96.745,253.847 98.12,261.132 100.872,267.672C103.623,274.212 107.57,279.377 112.712,283.166C117.854,286.955 124.034,288.849 131.251,288.849C135.581,288.849 140.001,288.127 144.512,286.684C149.023,285.241 153.172,283.301 156.961,280.865C157.502,281.316 158.021,281.971 158.517,282.828C159.014,283.685 159.307,284.429 159.397,285.06C154.074,289.21 148.82,292.255 143.632,294.194C138.445,296.134 132.424,297.104 125.567,297.104ZM204.593,252.674L204.593,278.7C204.593,281.677 204.864,284 205.405,285.669C205.946,287.338 206.916,288.511 208.314,289.187C209.713,289.864 211.585,290.293 213.93,290.473C214.201,291.195 214.381,292.029 214.471,292.976C214.562,293.924 214.607,295.029 214.607,296.292C211.9,296.111 209.149,295.998 206.352,295.953C203.556,295.908 200.849,295.886 198.233,295.886C195.617,295.886 192.82,295.908 189.843,295.953C186.866,295.998 184.205,296.111 181.86,296.292C181.86,295.029 181.905,293.924 181.995,292.976C182.085,292.029 182.266,291.195 182.536,290.473C184.972,290.293 186.866,289.864 188.22,289.187C189.573,288.511 190.52,287.338 191.061,285.669C191.603,284 191.873,281.677 191.873,278.7L191.873,221.596C191.873,218.529 191.603,216.183 191.061,214.56C190.52,212.936 189.573,211.763 188.22,211.041C186.866,210.32 184.972,209.914 182.536,209.823C182.266,209.102 182.085,208.245 181.995,207.252C181.905,206.26 181.86,205.178 181.86,204.005C183.574,204.095 185.31,204.163 187.069,204.208C188.829,204.253 190.655,204.298 192.55,204.343C194.444,204.388 196.339,204.411 198.233,204.411C200.218,204.411 202.112,204.388 203.917,204.343C205.721,204.298 207.502,204.253 209.262,204.208C211.021,204.163 212.802,204.095 214.607,204.005C214.607,205.178 214.562,206.26 214.471,207.252C214.381,208.245 214.201,209.102 213.93,209.823C211.585,209.914 209.713,210.32 208.314,211.041C206.916,211.763 205.946,212.936 205.405,214.56C204.864,216.183 204.593,218.529 204.593,221.596L204.593,246.089L245.865,246.089L245.865,221.596C245.865,218.529 245.594,216.183 245.053,214.56C244.512,212.936 243.565,211.763 242.212,211.041C240.858,210.32 238.964,209.914 236.528,209.823C236.258,209.102 236.077,208.245 235.987,207.252C235.897,206.26 235.852,205.178 235.852,204.005C237.566,204.095 239.302,204.163 241.061,204.208C242.82,204.253 244.647,204.298 246.542,204.343C248.436,204.388 250.331,204.411 252.225,204.411C254.21,204.411 256.104,204.388 257.908,204.343C259.713,204.298 261.494,204.253 263.253,204.208C265.013,204.163 266.794,204.095 268.599,204.005C268.599,205.178 268.553,206.26 268.463,207.252C268.373,208.245 268.193,209.102 267.922,209.823C265.576,209.914 263.705,210.32 262.306,211.041C260.908,211.763 259.938,212.936 259.397,214.56C258.856,216.183 258.585,218.529 258.585,221.596L258.585,278.7C258.585,281.677 258.856,284 259.397,285.669C259.938,287.338 260.908,288.511 262.306,289.187C263.705,289.864 265.576,290.293 267.922,290.473C268.193,291.195 268.373,292.029 268.463,292.976C268.553,293.924 268.599,295.029 268.599,296.292C265.892,296.111 263.141,295.998 260.344,295.953C257.548,295.908 254.841,295.886 252.225,295.886C249.609,295.886 246.812,295.908 243.835,295.953C240.858,295.998 238.197,296.111 235.852,296.292C235.852,295.029 235.897,293.924 235.987,292.976C236.077,292.029 236.258,291.195 236.528,290.473C238.964,290.293 240.858,289.864 242.212,289.187C243.565,288.511 244.512,287.338 245.053,285.669C245.594,284 245.865,281.677 245.865,278.7L245.865,251.907L237.069,251.907C233.281,251.907 229.334,251.93 225.229,251.975C221.124,252.02 217.2,252.11 213.456,252.246C210.03,252.37 207.075,252.512 204.593,252.674ZM309.547,266.612L305.946,275.994C303.962,281.316 303.353,284.993 304.12,287.022C304.886,289.052 307.119,290.202 310.818,290.473C311.179,291.285 311.427,292.187 311.562,293.179C311.697,294.172 311.765,295.209 311.765,296.292C310.773,296.201 309.555,296.134 308.111,296.089C306.668,296.044 305.157,295.998 303.578,295.953C302,295.908 300.443,295.886 298.91,295.886C296.654,295.886 294.535,295.931 292.55,296.021C290.565,296.111 288.941,296.201 287.678,296.292C287.678,295.39 287.746,294.42 287.881,293.382C288.017,292.345 288.265,291.42 288.626,290.608C290.249,290.247 291.603,289.616 292.685,288.714C293.768,287.812 294.828,286.346 295.865,284.316C296.903,282.286 298.098,279.512 299.451,275.994L327.462,204.14C328.364,203.96 329.198,203.824 329.965,203.734C330.732,203.644 331.657,203.599 332.739,203.599L364.945,277.482C366.479,280.82 367.742,283.391 368.734,285.196C369.726,287 370.741,288.263 371.779,288.985C372.816,289.706 374.011,290.202 375.364,290.473C375.725,291.646 375.951,292.638 376.041,293.45C376.131,294.262 376.176,295.209 376.176,296.292C375.274,296.201 373.876,296.134 371.982,296.089C370.087,296.044 368.102,295.998 366.028,295.953C363.953,295.908 362.194,295.886 360.75,295.886C359.668,295.886 358.405,295.908 356.961,295.953C355.518,295.998 354.029,296.044 352.496,296.089C350.962,296.134 349.586,296.179 348.369,296.224C347.151,296.269 346.181,296.292 345.459,296.292C345.459,295.209 345.527,294.172 345.662,293.179C345.797,292.187 346.046,291.285 346.406,290.473C350.105,290.022 352.293,289.187 352.969,287.97C353.646,286.752 353.082,284.068 351.278,279.918L345.375,266.116C339.588,266.12 333.414,266.165 326.853,266.251C320.537,266.334 314.768,266.454 309.547,266.612ZM342.77,260.026L332.469,235.94C331.296,233.143 330.258,230.662 329.356,228.497C328.543,226.546 327.584,224.118 326.477,221.214C325.518,224.224 324.651,226.809 323.876,228.971C323.019,231.362 322.184,233.639 321.373,235.805L312.075,260.026L342.77,260.026ZM417.99,254.251L417.99,278.7C417.99,281.677 418.26,284 418.802,285.669C419.343,287.338 420.267,288.511 421.576,289.187C422.884,289.864 424.665,290.293 426.921,290.473C427.191,291.285 427.372,292.21 427.462,293.247C427.552,294.284 427.597,295.299 427.597,296.292C425.703,296.111 423.718,295.998 421.643,295.953C419.568,295.908 417.651,295.886 415.892,295.886L411.494,295.886C409.149,295.886 406.375,295.908 403.172,295.953C399.97,295.998 397.331,296.111 395.256,296.292C395.256,295.299 395.301,294.307 395.392,293.315C395.482,292.322 395.662,291.375 395.933,290.473C398.369,290.293 400.263,289.864 401.616,289.187C402.969,288.511 403.917,287.338 404.458,285.669C404.999,284 405.27,281.677 405.27,278.7L405.27,221.596C405.27,218.529 404.999,216.161 404.458,214.492C403.917,212.823 402.969,211.628 401.616,210.906C400.263,210.184 398.369,209.823 395.933,209.823C395.662,208.921 395.482,208.019 395.392,207.117C395.301,206.215 395.256,205.223 395.256,204.14C396.609,204.23 398.865,204.298 402.022,204.343C405.18,204.388 408.337,204.411 411.494,204.411C415.193,204.411 418.937,204.366 422.726,204.275C426.515,204.185 430.304,204.14 434.092,204.14C440.949,204.14 446.542,205.132 450.872,207.117C455.202,209.102 458.405,211.808 460.479,215.236C462.554,218.664 463.592,222.543 463.592,226.874C463.592,231.023 462.599,234.79 460.615,238.173C458.63,241.556 455.811,244.397 452.157,246.698C448.944,248.721 445.189,250.308 440.894,251.459C442.94,253.646 444.71,255.735 446.203,257.726C447.963,260.072 449.789,262.733 451.684,265.71C453.578,268.687 455.834,272.431 458.45,276.941C460.344,280.099 462.036,282.602 463.524,284.451C465.013,286.301 466.749,287.654 468.734,288.511C470.719,289.368 473.38,289.887 476.718,290.067C476.718,291.15 476.695,292.142 476.65,293.044C476.605,293.946 476.447,294.893 476.176,295.886C472.839,295.886 469.298,295.953 465.554,296.089C461.81,296.224 458.269,296.562 454.931,297.104C453.127,294.127 451.639,291.623 450.466,289.593C449.293,287.564 448.256,285.669 447.354,283.91C446.452,282.151 445.414,280.234 444.241,278.159C442.527,274.911 440.858,271.98 439.235,269.363C437.611,266.747 435.739,264.086 433.619,261.38C431.901,259.187 429.843,256.817 427.444,254.269C425.772,254.318 424.199,254.343 422.726,254.343C421.085,254.343 419.507,254.312 417.99,254.251ZM417.99,247.977C418.897,248.094 419.754,248.187 420.561,248.254C421.643,248.344 422.771,248.389 423.944,248.389C428.905,248.389 433.371,247.69 437.34,246.292C441.309,244.893 444.467,242.706 446.812,239.729C449.158,236.752 450.331,232.918 450.331,228.227C450.331,222.904 448.639,218.551 445.256,215.169C441.873,211.786 436.122,210.094 428.003,210.094C425.928,210.094 424.079,210.184 422.455,210.365C421.036,210.522 419.547,210.784 417.99,211.148L417.99,247.977ZM531.792,289.796C536.844,289.796 540.813,289.255 543.7,288.173C546.587,287.09 548.91,285.286 550.669,282.76C552.428,280.234 554.029,276.896 555.473,272.746C556.826,273.107 557.954,273.536 558.856,274.032C559.758,274.528 560.615,275.182 561.427,275.994C560.434,279.061 559.6,282.399 558.923,286.008C558.247,289.616 557.683,292.999 557.232,296.156C555.518,296.066 553.24,296.021 550.398,296.021C547.557,296.021 544.444,295.998 541.061,295.953C537.678,295.908 534.318,295.886 530.98,295.886L522.252,295.886C518.959,295.886 515.622,295.908 512.239,295.953C508.856,295.998 505.721,296.044 502.834,296.089C499.947,296.134 497.647,296.201 495.933,296.292C495.933,295.029 495.978,293.924 496.068,292.976C496.158,292.029 496.339,291.195 496.609,290.473C499.045,290.293 500.94,289.842 502.293,289.12C503.646,288.398 504.616,287.113 505.202,285.263C505.788,283.414 506.082,280.73 506.082,277.212L506.082,221.596C506.082,218.529 505.811,216.183 505.27,214.56C504.728,212.936 503.781,211.763 502.428,211.041C501.075,210.32 499.18,209.914 496.745,209.823C496.474,209.102 496.294,208.222 496.203,207.185C496.113,206.147 496.068,205.087 496.068,204.005C497.872,204.095 499.789,204.163 501.819,204.208C503.849,204.253 505.811,204.298 507.705,204.343C509.6,204.388 511.179,204.411 512.442,204.411C514.426,204.411 516.321,204.388 518.125,204.343C519.929,204.298 521.711,204.253 523.47,204.208C525.229,204.163 527.011,204.095 528.815,204.005C528.815,205.178 528.77,206.26 528.68,207.252C528.59,208.245 528.409,209.102 528.138,209.823C525.793,209.914 523.921,210.32 522.523,211.041C521.125,211.763 520.155,212.981 519.613,214.695C519.072,216.409 518.802,218.845 518.802,222.002L518.802,277.212C518.802,280.55 519.117,283.121 519.749,284.925C520.38,286.729 521.576,287.992 523.335,288.714C525.094,289.436 527.642,289.796 530.98,289.796L531.792,289.796ZM621.643,297.104C612.712,297.104 604.909,295.029 598.233,290.879C591.558,286.729 586.348,281.091 582.604,273.964C578.86,266.837 576.988,258.809 576.988,249.878C576.988,242.931 578.138,236.616 580.439,230.933C582.739,225.25 585.919,220.333 589.979,216.183C594.038,212.034 598.774,208.831 604.187,206.576C609.6,204.321 615.419,203.193 621.643,203.193C630.304,203.193 637.994,205.155 644.715,209.079C651.436,213.003 656.736,218.461 660.615,225.453C664.494,232.444 666.433,240.586 666.433,249.878C666.433,256.553 665.351,262.755 663.186,268.484C661.021,274.212 657.931,279.219 653.917,283.504C649.902,287.789 645.166,291.127 639.708,293.518C634.25,295.908 628.229,297.104 621.643,297.104ZM624.35,290.473C630.213,290.473 635.243,288.827 639.438,285.534C643.632,282.241 646.857,277.776 649.113,272.137C651.368,266.499 652.496,260.252 652.496,253.396C652.496,245.277 651.03,237.902 648.098,231.271C645.166,224.641 641.174,219.386 636.122,215.507C631.07,211.628 625.297,209.688 618.802,209.688C613.479,209.688 608.72,211.199 604.526,214.221C600.331,217.243 597.015,221.506 594.58,227.009C592.144,232.512 590.926,238.917 590.926,246.224C590.926,251.907 591.648,257.41 593.091,262.733C594.535,268.055 596.677,272.791 599.519,276.941C602.36,281.091 605.856,284.384 610.006,286.819C614.156,289.255 618.937,290.473 624.35,290.473ZM712.983,210.365L706.082,210.365C701.751,210.365 698.481,211.064 696.271,212.462C694.061,213.86 692.482,215.777 691.535,218.213C690.588,220.649 689.798,223.536 689.167,226.874C688.175,226.874 687.047,226.783 685.784,226.603C684.521,226.422 683.484,226.107 682.672,225.656C683.393,221.867 683.935,218.078 684.295,214.289C684.656,210.5 684.837,207.072 684.837,204.005C687.363,204.095 690.452,204.185 694.106,204.275C697.76,204.366 701.729,204.411 706.014,204.411L732.807,204.411C737.182,204.411 741.219,204.366 744.918,204.275C748.617,204.185 751.684,204.095 754.12,204.005C754.029,207.252 754.052,210.59 754.187,214.018C754.323,217.446 754.571,221.326 754.931,225.656C754.029,226.107 753.014,226.445 751.887,226.671C750.759,226.896 749.519,226.964 748.166,226.874C748.075,221.551 746.835,217.469 744.444,214.627C742.054,211.786 738.197,210.365 732.875,210.365L725.703,210.365L725.703,278.7C725.703,281.677 725.973,284 726.515,285.669C727.056,287.338 728.093,288.511 729.627,289.187C731.161,289.864 733.371,290.293 736.258,290.473C736.528,291.195 736.709,292.029 736.799,292.976C736.889,293.924 736.934,295.029 736.934,296.292C734.047,296.111 731.093,295.998 728.071,295.953C725.049,295.908 722.094,295.886 719.208,295.886C717.313,295.886 715.306,295.908 713.186,295.953C711.066,295.998 709.014,296.044 707.029,296.089C705.044,296.134 703.195,296.201 701.481,296.292C701.481,295.029 701.526,293.924 701.616,292.976C701.706,292.029 701.887,291.195 702.157,290.473C705.044,290.293 707.277,289.864 708.856,289.187C710.434,288.511 711.517,287.338 712.103,285.669C712.69,284 712.983,281.677 712.983,278.7L712.983,210.365ZM800.263,210.365L793.362,210.365C789.032,210.365 785.761,211.064 783.551,212.462C781.341,213.86 779.762,215.777 778.815,218.213C777.868,220.649 777.079,223.536 776.447,226.874C775.455,226.874 774.327,226.783 773.064,226.603C771.801,226.422 770.764,226.107 769.952,225.656C770.673,221.867 771.215,218.078 771.576,214.289C771.936,210.5 772.117,207.072 772.117,204.005C774.643,204.095 777.733,204.185 781.386,204.275C785.04,204.366 789.009,204.411 793.294,204.411L820.087,204.411C824.462,204.411 828.499,204.366 832.198,204.275C835.897,204.185 838.964,204.095 841.4,204.005C841.309,207.252 841.332,210.59 841.467,214.018C841.603,217.446 841.851,221.326 842.212,225.656C841.309,226.107 840.295,226.445 839.167,226.671C838.039,226.896 836.799,226.964 835.446,226.874C835.355,221.551 834.115,217.469 831.724,214.627C829.334,211.786 825.477,210.365 820.155,210.365L812.983,210.365L812.983,278.7C812.983,281.677 813.254,284 813.795,285.669C814.336,287.338 815.374,288.511 816.907,289.187C818.441,289.864 820.651,290.293 823.538,290.473C823.808,291.195 823.989,292.029 824.079,292.976C824.169,293.924 824.214,295.029 824.214,296.292C821.328,296.111 818.373,295.998 815.351,295.953C812.329,295.908 809.374,295.886 806.488,295.886C804.593,295.886 802.586,295.908 800.466,295.953C798.346,295.998 796.294,296.044 794.309,296.089C792.324,296.134 790.475,296.201 788.761,296.292C788.761,295.029 788.806,293.924 788.896,292.976C788.987,292.029 789.167,291.195 789.438,290.473C792.324,290.293 794.557,289.864 796.136,289.187C797.715,288.511 798.797,287.338 799.383,285.669C799.97,284 800.263,281.677 800.263,278.7L800.263,210.365ZM896.474,295.886L887.746,295.886C884.453,295.886 881.116,295.908 877.733,295.953C874.35,295.998 871.215,296.044 868.328,296.089C865.441,296.134 863.141,296.201 861.427,296.292C861.427,295.029 861.472,293.924 861.562,292.976C861.652,292.029 861.833,291.195 862.103,290.473C864.539,290.293 866.434,289.842 867.787,289.12C869.14,288.398 870.087,287.113 870.628,285.263C871.17,283.414 871.44,280.73 871.44,277.212L871.44,221.596C871.44,218.529 871.17,216.183 870.628,214.56C870.087,212.936 869.14,211.763 867.787,211.041C866.434,210.32 864.539,209.914 862.103,209.823C861.833,209.102 861.652,208.222 861.562,207.185C861.472,206.147 861.427,205.087 861.427,204.005C862.78,204.095 864.471,204.163 866.501,204.208C868.531,204.253 870.673,204.298 872.929,204.343C875.184,204.388 877.327,204.411 879.356,204.411L884.16,204.411C891.287,204.411 897.399,204.388 902.496,204.343C907.593,204.298 911.788,204.23 915.08,204.14C918.373,204.05 920.741,204.005 922.185,204.005C922.365,205.989 922.59,208.29 922.861,210.906C923.132,213.522 923.448,216.093 923.808,218.619C924.169,221.145 924.575,223.4 925.026,225.385C924.305,226.017 923.425,226.445 922.388,226.671C921.35,226.896 920.2,227.009 918.937,227.009C918.756,224.212 918.035,221.506 916.772,218.89C915.509,216.274 913.321,214.109 910.209,212.395C907.097,210.68 902.609,209.823 896.745,209.823L884.16,209.823L884.16,246.901L892.685,246.901C898.278,246.901 902.157,246.179 904.323,244.736C906.488,243.292 907.615,240.36 907.706,235.94C908.878,235.579 909.961,235.331 910.953,235.196C911.945,235.06 913.028,234.993 914.201,234.993C914.111,237.248 914.043,239.684 913.998,242.3C913.953,244.916 913.93,247.397 913.93,249.742C913.93,252.088 913.953,254.704 913.998,257.591C914.043,260.478 914.111,263.094 914.201,265.439C913.028,265.439 911.945,265.394 910.953,265.304C909.961,265.214 908.968,265.033 907.976,264.763C907.615,260.072 906.375,256.892 904.255,255.223C902.135,253.554 898.278,252.719 892.685,252.719L884.16,252.719L884.16,277.212C884.16,280.55 884.476,283.121 885.107,284.925C885.739,286.729 886.957,287.992 888.761,288.714C890.565,289.436 893.136,289.796 896.474,289.796L897.286,289.796C903.781,289.796 908.675,289.142 911.968,287.834C915.261,286.526 917.719,284.609 919.343,282.083C920.967,279.557 922.41,276.445 923.673,272.746C925.026,273.107 926.154,273.536 927.056,274.032C927.958,274.528 928.815,275.182 929.627,275.994C928.635,279.061 927.8,282.399 927.124,286.008C926.447,289.616 925.883,292.999 925.432,296.156C923.718,296.066 921.395,296.021 918.463,296.021C915.531,296.021 912.194,295.998 908.45,295.953C904.706,295.908 900.714,295.886 896.474,295.886Z" style="fill:white;"/>
    <path d="M228.278,368.57L224.754,368.57C222.543,368.57 220.874,368.927 219.745,369.641C218.616,370.355 217.81,371.334 217.327,372.577C216.843,373.821 216.44,375.295 216.117,376.999C215.611,376.999 215.035,376.953 214.39,376.861C213.745,376.769 213.215,376.608 212.801,376.378C213.169,374.443 213.446,372.508 213.63,370.573C213.814,368.639 213.906,366.888 213.906,365.322C215.196,365.368 216.774,365.414 218.639,365.46C220.505,365.506 222.532,365.529 224.72,365.529L238.401,365.529C240.635,365.529 242.697,365.506 244.585,365.46C246.474,365.414 248.04,365.368 249.284,365.322C249.238,366.98 249.249,368.685 249.318,370.435C249.387,372.186 249.514,374.166 249.698,376.378C249.238,376.608 248.72,376.781 248.144,376.896C247.568,377.011 246.935,377.045 246.244,376.999C246.197,374.282 245.564,372.197 244.343,370.746C243.123,369.295 241.153,368.57 238.436,368.57L234.773,368.57L234.773,403.463C234.773,404.984 234.912,406.17 235.188,407.022C235.464,407.874 235.994,408.473 236.777,408.818C237.56,409.164 238.689,409.383 240.163,409.475C240.301,409.843 240.393,410.269 240.439,410.753C240.485,411.237 240.509,411.801 240.509,412.446C239.034,412.354 237.526,412.296 235.983,412.273C234.44,412.25 232.931,412.239 231.457,412.239C230.49,412.239 229.465,412.25 228.382,412.273C227.3,412.296 226.252,412.319 225.238,412.342C224.225,412.365 223.28,412.4 222.405,412.446C222.405,411.801 222.428,411.237 222.474,410.753C222.52,410.269 222.612,409.843 222.751,409.475C224.225,409.383 225.365,409.164 226.171,408.818C226.977,408.473 227.53,407.874 227.829,407.022C228.129,406.17 228.278,404.984 228.278,403.463L228.278,368.57ZM271.395,390.174L271.395,403.463C271.395,404.984 271.533,406.17 271.809,407.022C272.086,407.874 272.581,408.473 273.295,408.818C274.009,409.164 274.965,409.383 276.162,409.475C276.301,409.843 276.393,410.269 276.439,410.753C276.485,411.237 276.508,411.801 276.508,412.446C275.126,412.354 273.721,412.296 272.293,412.273C270.865,412.25 269.483,412.239 268.147,412.239C266.811,412.239 265.383,412.25 263.863,412.273C262.343,412.296 260.984,412.354 259.786,412.446C259.786,411.801 259.81,411.237 259.856,410.753C259.902,410.269 259.994,409.843 260.132,409.475C261.376,409.383 262.343,409.164 263.034,408.818C263.725,408.473 264.209,407.874 264.485,407.022C264.761,406.17 264.9,404.984 264.9,403.463L264.9,374.305C264.9,372.738 264.761,371.541 264.485,370.712C264.209,369.882 263.725,369.284 263.034,368.915C262.343,368.547 261.376,368.339 260.132,368.293C259.994,367.925 259.902,367.487 259.856,366.98C259.81,366.474 259.786,365.921 259.786,365.322C260.662,365.368 261.548,365.403 262.447,365.426C263.345,365.449 264.278,365.472 265.245,365.495C266.212,365.518 267.18,365.529 268.147,365.529C269.161,365.529 270.128,365.518 271.049,365.495C271.971,365.472 272.88,365.449 273.779,365.426C274.677,365.403 275.587,365.368 276.508,365.322C276.508,365.921 276.485,366.474 276.439,366.98C276.393,367.487 276.301,367.925 276.162,368.293C274.965,368.339 274.009,368.547 273.295,368.915C272.581,369.284 272.086,369.882 271.809,370.712C271.533,371.541 271.395,372.738 271.395,374.305L271.395,386.811L292.469,386.811L292.469,374.305C292.469,372.738 292.331,371.541 292.055,370.712C291.778,369.882 291.295,369.284 290.604,368.915C289.913,368.547 288.945,368.339 287.702,368.293C287.563,367.925 287.471,367.487 287.425,366.98C287.379,366.474 287.356,365.921 287.356,365.322C288.231,365.368 289.118,365.403 290.016,365.426C290.915,365.449 291.847,365.472 292.815,365.495C293.782,365.518 294.749,365.529 295.717,365.529C296.73,365.529 297.698,365.518 298.619,365.495C299.54,365.472 300.45,365.449 301.348,365.426C302.246,365.403 303.156,365.368 304.077,365.322C304.077,365.921 304.054,366.474 304.008,366.98C303.962,367.487 303.87,367.925 303.732,368.293C302.534,368.339 301.578,368.547 300.864,368.915C300.15,369.284 299.655,369.882 299.379,370.712C299.103,371.541 298.964,372.738 298.964,374.305L298.964,403.463C298.964,404.984 299.103,406.17 299.379,407.022C299.655,407.874 300.15,408.473 300.864,408.818C301.578,409.164 302.534,409.383 303.732,409.475C303.87,409.843 303.962,410.269 304.008,410.753C304.054,411.237 304.077,411.801 304.077,412.446C302.696,412.354 301.291,412.296 299.863,412.273C298.435,412.25 297.053,412.239 295.717,412.239C294.381,412.239 292.953,412.25 291.433,412.273C289.913,412.296 288.554,412.354 287.356,412.446C287.356,411.801 287.379,411.237 287.425,410.753C287.471,410.269 287.563,409.843 287.702,409.475C288.945,409.383 289.913,409.164 290.604,408.818C291.295,408.473 291.778,407.874 292.055,407.022C292.331,406.17 292.469,404.984 292.469,403.463L292.469,389.782L287.978,389.782C286.043,389.782 284.028,389.794 281.932,389.817C279.836,389.84 277.832,389.886 275.921,389.955C274.171,390.018 272.662,390.091 271.395,390.174ZM335.931,412.239L331.474,412.239C329.793,412.239 328.089,412.25 326.361,412.273C324.634,412.296 323.033,412.319 321.559,412.342C320.085,412.365 318.91,412.4 318.035,412.446C318.035,411.801 318.058,411.237 318.104,410.753C318.15,410.269 318.242,409.843 318.38,409.475C319.624,409.383 320.592,409.152 321.283,408.784C321.974,408.415 322.457,407.759 322.734,406.815C323.01,405.87 323.148,404.5 323.148,402.703L323.148,374.305C323.148,372.738 323.01,371.541 322.734,370.712C322.457,369.882 321.974,369.284 321.283,368.915C320.592,368.547 319.624,368.339 318.38,368.293C318.242,367.925 318.15,367.476 318.104,366.946C318.058,366.416 318.035,365.875 318.035,365.322C318.726,365.368 319.59,365.403 320.626,365.426C321.663,365.449 322.757,365.472 323.908,365.495C325.06,365.518 326.154,365.529 327.19,365.529L329.643,365.529C333.282,365.529 336.403,365.518 339.006,365.495C341.608,365.472 343.75,365.437 345.432,365.391C347.113,365.345 348.322,365.322 349.059,365.322C349.152,366.336 349.267,367.51 349.405,368.846C349.543,370.182 349.704,371.495 349.889,372.785C350.073,374.074 350.28,375.226 350.51,376.239C350.142,376.562 349.693,376.781 349.163,376.896C348.633,377.011 348.046,377.069 347.401,377.069C347.309,375.641 346.94,374.259 346.296,372.923C345.651,371.587 344.534,370.481 342.944,369.606C341.355,368.731 339.063,368.293 336.069,368.293L329.643,368.293L329.643,387.226L333.996,387.226C336.852,387.226 338.833,386.857 339.939,386.12C341.044,385.383 341.62,383.886 341.666,381.629C342.265,381.445 342.818,381.318 343.324,381.249C343.831,381.18 344.384,381.145 344.983,381.145C344.937,382.297 344.902,383.541 344.879,384.876C344.856,386.212 344.845,387.479 344.845,388.677C344.845,389.874 344.856,391.21 344.879,392.684C344.902,394.158 344.937,395.494 344.983,396.692C344.384,396.692 343.831,396.669 343.324,396.623C342.818,396.577 342.311,396.485 341.804,396.347C341.62,393.951 340.987,392.327 339.904,391.475C338.822,390.623 336.852,390.197 333.996,390.197L329.643,390.197L329.643,402.703C329.643,404.408 329.804,405.721 330.127,406.642C330.449,407.563 331.071,408.208 331.993,408.577C332.914,408.945 334.227,409.129 335.931,409.129L336.346,409.129C339.662,409.129 342.161,408.795 343.843,408.127C345.524,407.46 346.779,406.481 347.608,405.191C348.438,403.901 349.175,402.312 349.819,400.423C350.51,400.607 351.086,400.826 351.547,401.08C352.008,401.333 352.445,401.667 352.86,402.082C352.353,403.648 351.927,405.352 351.581,407.195C351.236,409.037 350.948,410.765 350.718,412.377C349.843,412.331 348.656,412.308 347.159,412.308C345.662,412.308 343.958,412.296 342.046,412.273C340.134,412.25 338.096,412.239 335.931,412.239ZM406.41,412.861C401.895,412.861 397.922,411.847 394.491,409.82C391.059,407.794 388.398,404.938 386.51,401.252C384.621,397.567 383.677,393.237 383.677,388.262C383.677,384.393 384.345,380.996 385.681,378.07C387.017,375.145 388.825,372.715 391.105,370.781C393.385,368.846 395.953,367.383 398.809,366.393C401.665,365.403 404.613,364.908 407.653,364.908C410.97,364.908 414.056,365.207 416.912,365.806C419.768,366.405 422.21,367.188 424.237,368.155C423.914,369.767 423.707,371.449 423.615,373.199C423.523,374.95 423.477,376.838 423.477,378.865C422.924,379.049 422.36,379.199 421.784,379.314C421.208,379.429 420.551,379.487 419.814,379.487C419.722,376.262 419.147,373.809 418.087,372.128C417.028,370.447 415.646,369.295 413.941,368.673C412.237,368.051 410.325,367.74 408.206,367.74C404.291,367.74 401.055,368.639 398.498,370.435C395.942,372.232 394.053,374.57 392.832,377.449C391.611,380.328 391.001,383.425 391.001,386.742C391.001,390.934 391.623,394.746 392.867,398.178C394.11,401.609 395.976,404.35 398.464,406.4C400.951,408.45 404.06,409.475 407.792,409.475C409.174,409.475 410.406,409.406 411.488,409.268C412.571,409.129 413.665,408.83 414.77,408.369C415.553,408.001 416.141,407.483 416.532,406.815C416.924,406.147 417.12,404.938 417.12,403.187L417.12,399.732C417.12,397.613 416.993,396.082 416.74,395.137C416.486,394.193 415.934,393.583 415.081,393.306C414.229,393.03 412.928,392.869 411.177,392.823C411.039,392.454 410.936,391.97 410.866,391.372C410.797,390.773 410.763,390.197 410.763,389.644C411.638,389.69 412.905,389.736 414.563,389.782C416.221,389.828 417.765,389.851 419.193,389.851C420.621,389.851 422.141,389.84 423.753,389.817C425.365,389.794 426.54,389.759 427.277,389.713C427.277,390.128 427.254,390.635 427.208,391.233C427.162,391.832 427.047,392.362 426.862,392.823C425.941,392.869 425.25,393.03 424.789,393.306C424.329,393.583 424.018,394.205 423.857,395.172C423.695,396.139 423.615,397.659 423.615,399.732L423.615,402.842C423.615,403.809 423.672,404.684 423.787,405.467C423.903,406.25 424.144,406.987 424.513,407.678C422.532,409.106 419.999,410.327 416.912,411.34C413.826,412.354 410.325,412.861 406.41,412.861ZM448.808,397.291L446.969,402.082C445.956,404.799 445.645,406.676 446.037,407.713C446.428,408.749 447.568,409.337 449.457,409.475C449.641,409.889 449.768,410.35 449.837,410.857C449.906,411.364 449.941,411.893 449.941,412.446C449.434,412.4 448.812,412.365 448.075,412.342C447.338,412.319 446.566,412.296 445.76,412.273C444.954,412.25 444.16,412.239 443.376,412.239C442.225,412.239 441.142,412.262 440.129,412.308C439.115,412.354 438.286,412.4 437.641,412.446C437.641,411.985 437.676,411.49 437.745,410.96C437.814,410.431 437.941,409.959 438.125,409.544C438.954,409.36 439.645,409.037 440.198,408.577C440.751,408.116 441.292,407.367 441.822,406.331C442.351,405.295 442.962,403.878 443.653,402.082L457.956,365.391C458.416,365.299 458.843,365.23 459.234,365.184C459.626,365.138 460.098,365.115 460.651,365.115L477.096,402.842C477.879,404.546 478.524,405.859 479.03,406.78C479.537,407.701 480.055,408.346 480.585,408.715C481.115,409.083 481.725,409.337 482.416,409.475C482.6,410.074 482.715,410.58 482.762,410.995C482.808,411.41 482.831,411.893 482.831,412.446C482.37,412.4 481.656,412.365 480.689,412.342C479.721,412.319 478.708,412.296 477.648,412.273C476.589,412.25 475.691,412.239 474.954,412.239C474.401,412.239 473.756,412.25 473.019,412.273C472.282,412.296 471.522,412.319 470.739,412.342C469.956,412.365 469.253,412.388 468.631,412.411C468.009,412.435 467.514,412.446 467.146,412.446C467.146,411.893 467.18,411.364 467.249,410.857C467.318,410.35 467.445,409.889 467.629,409.475C469.518,409.245 470.635,408.818 470.981,408.197C471.326,407.575 471.038,406.204 470.117,404.085L467.103,397.038C464.148,397.04 460.995,397.063 457.645,397.107C454.42,397.149 451.474,397.21 448.808,397.291ZM465.773,393.928L460.512,381.629C459.914,380.201 459.384,378.934 458.923,377.829C458.508,376.832 458.018,375.592 457.453,374.109C456.963,375.646 456.52,376.967 456.125,378.07C455.687,379.291 455.261,380.454 454.846,381.56L450.099,393.928L465.773,393.928ZM506.254,390.979L506.254,403.463C506.254,404.984 506.393,406.17 506.669,407.022C506.945,407.874 507.418,408.473 508.085,408.818C508.753,409.164 509.663,409.383 510.815,409.475C510.953,409.889 511.045,410.362 511.091,410.891C511.137,411.421 511.16,411.939 511.16,412.446C510.193,412.354 509.179,412.296 508.12,412.273C507.061,412.25 506.082,412.239 505.183,412.239L502.938,412.239C501.74,412.239 500.324,412.25 498.688,412.273C497.053,412.296 495.706,412.354 494.646,412.446C494.646,411.939 494.669,411.433 494.715,410.926C494.761,410.419 494.853,409.936 494.992,409.475C496.235,409.383 497.203,409.164 497.894,408.818C498.585,408.473 499.068,407.874 499.345,407.022C499.621,406.17 499.759,404.984 499.759,403.463L499.759,374.305C499.759,372.738 499.621,371.529 499.345,370.677C499.068,369.825 498.585,369.215 497.894,368.846C497.203,368.478 496.235,368.293 494.992,368.293C494.853,367.833 494.761,367.372 494.715,366.911C494.669,366.451 494.646,365.944 494.646,365.391C495.337,365.437 496.489,365.472 498.101,365.495C499.713,365.518 501.326,365.529 502.938,365.529C504.826,365.529 506.738,365.506 508.673,365.46C510.607,365.414 512.542,365.391 514.477,365.391C517.978,365.391 520.834,365.898 523.045,366.911C525.256,367.925 526.891,369.307 527.951,371.057C529.01,372.808 529.54,374.788 529.54,376.999C529.54,379.118 529.033,381.042 528.02,382.769C527.006,384.496 525.567,385.947 523.701,387.122C522.06,388.155 520.143,388.966 517.95,389.553C518.995,390.67 519.898,391.737 520.661,392.753C521.559,393.951 522.492,395.31 523.459,396.83C524.427,398.35 525.578,400.262 526.914,402.565C527.882,404.177 528.745,405.456 529.505,406.4C530.266,407.344 531.152,408.035 532.166,408.473C533.179,408.911 534.538,409.175 536.242,409.268C536.242,409.82 536.231,410.327 536.208,410.788C536.185,411.248 536.104,411.732 535.966,412.239C534.262,412.239 532.454,412.273 530.542,412.342C528.63,412.411 526.822,412.584 525.118,412.861C524.197,411.34 523.436,410.062 522.838,409.026C522.239,407.989 521.709,407.022 521.248,406.124C520.788,405.225 520.258,404.247 519.659,403.187C518.784,401.529 517.932,400.032 517.103,398.696C516.273,397.36 515.318,396.001 514.235,394.619C513.358,393.499 512.307,392.289 511.082,390.988C510.228,391.013 509.425,391.026 508.673,391.026C507.835,391.026 507.029,391.01 506.254,390.979ZM506.254,387.775C506.718,387.835 507.155,387.882 507.567,387.917C508.12,387.963 508.696,387.986 509.295,387.986C511.828,387.986 514.108,387.629 516.135,386.915C518.162,386.201 519.774,385.084 520.972,383.564C522.17,382.043 522.769,380.086 522.769,377.69C522.769,374.973 521.905,372.75 520.177,371.023C518.45,369.295 515.513,368.431 511.368,368.431C510.308,368.431 509.364,368.478 508.535,368.57C507.81,368.65 507.05,368.784 506.254,368.97L506.254,387.775ZM548.127,412.446C548.127,411.801 548.15,411.237 548.196,410.753C548.242,410.269 548.334,409.843 548.472,409.475C549.716,409.383 550.684,409.152 551.375,408.784C552.066,408.415 552.561,407.759 552.86,406.815C553.16,405.87 553.309,404.5 553.309,402.703L553.309,374.305C553.309,372.738 553.171,371.541 552.895,370.712C552.618,369.882 552.135,369.284 551.444,368.915C550.753,368.547 549.785,368.339 548.542,368.293C548.403,367.925 548.311,367.476 548.265,366.946C548.219,366.416 548.196,365.875 548.196,365.322C548.933,365.368 549.866,365.403 550.995,365.426C552.123,365.449 553.298,365.472 554.518,365.495C555.739,365.518 556.856,365.529 557.87,365.529C559.205,365.529 560.564,365.506 561.946,365.46C563.328,365.414 564.687,365.391 566.023,365.391C568.464,365.391 570.929,365.564 573.416,365.909C575.904,366.255 578.276,366.877 580.533,367.775C582.791,368.673 584.806,369.963 586.579,371.644C588.353,373.326 589.746,375.468 590.76,378.07C591.773,380.673 592.28,383.886 592.28,387.709C592.28,391.441 591.819,394.642 590.898,397.314C589.977,399.986 588.744,402.22 587.201,404.016C585.658,405.813 583.942,407.264 582.053,408.369C580.165,409.475 578.242,410.304 576.284,410.857C574.326,411.41 572.449,411.778 570.653,411.962C568.856,412.147 567.313,412.239 566.023,412.239L561.566,412.239C559.885,412.239 558.181,412.25 556.453,412.273C554.726,412.296 553.125,412.319 551.651,412.342C550.177,412.365 549.002,412.4 548.127,412.446ZM559.804,368.613L559.804,402.703C559.804,404.408 559.966,405.721 560.288,406.642C560.61,407.563 561.221,408.208 562.119,408.577C563.017,408.945 564.319,409.129 566.023,409.129C568.787,409.129 571.332,408.795 573.658,408.127C575.984,407.46 578.011,406.354 579.739,404.811C581.466,403.268 582.802,401.183 583.746,398.558C584.691,395.932 585.163,392.661 585.163,388.746C585.163,385.015 584.599,381.825 583.47,379.176C582.341,376.527 580.821,374.385 578.91,372.75C576.998,371.115 574.833,369.917 572.414,369.157C569.996,368.397 567.497,368.017 564.917,368.017C563.904,368.017 562.799,368.097 561.601,368.259C560.83,368.362 560.232,368.48 559.804,368.613ZM622.682,412.239L618.226,412.239C616.544,412.239 614.84,412.25 613.112,412.273C611.385,412.296 609.784,412.319 608.31,412.342C606.836,412.365 605.662,412.4 604.786,412.446C604.786,411.801 604.809,411.237 604.855,410.753C604.901,410.269 604.994,409.843 605.132,409.475C606.376,409.383 607.343,409.152 608.034,408.784C608.725,408.415 609.208,407.759 609.485,406.815C609.761,405.87 609.899,404.5 609.899,402.703L609.899,374.305C609.899,372.738 609.761,371.541 609.485,370.712C609.208,369.882 608.725,369.284 608.034,368.915C607.343,368.547 606.376,368.339 605.132,368.293C604.994,367.925 604.901,367.476 604.855,366.946C604.809,366.416 604.786,365.875 604.786,365.322C605.477,365.368 606.341,365.403 607.377,365.426C608.414,365.449 609.508,365.472 610.66,365.495C611.811,365.518 612.905,365.529 613.942,365.529L616.395,365.529C620.034,365.529 623.154,365.518 625.757,365.495C628.36,365.472 630.502,365.437 632.183,365.391C633.864,365.345 635.074,365.322 635.811,365.322C635.903,366.336 636.018,367.51 636.156,368.846C636.294,370.182 636.456,371.495 636.64,372.785C636.824,374.074 637.031,375.226 637.262,376.239C636.893,376.562 636.444,376.781 635.914,376.896C635.385,377.011 634.797,377.069 634.152,377.069C634.06,375.641 633.692,374.259 633.047,372.923C632.402,371.587 631.285,370.481 629.696,369.606C628.106,368.731 625.815,368.293 622.821,368.293L616.395,368.293L616.395,387.226L620.748,387.226C623.604,387.226 625.584,386.857 626.69,386.12C627.795,385.383 628.371,383.886 628.417,381.629C629.016,381.445 629.569,381.318 630.076,381.249C630.582,381.18 631.135,381.145 631.734,381.145C631.688,382.297 631.653,383.541 631.63,384.876C631.607,386.212 631.596,387.479 631.596,388.677C631.596,389.874 631.607,391.21 631.63,392.684C631.653,394.158 631.688,395.494 631.734,396.692C631.135,396.692 630.582,396.669 630.076,396.623C629.569,396.577 629.062,396.485 628.556,396.347C628.371,393.951 627.738,392.327 626.655,391.475C625.573,390.623 623.604,390.197 620.748,390.197L616.395,390.197L616.395,402.703C616.395,404.408 616.556,405.721 616.878,406.642C617.201,407.563 617.823,408.208 618.744,408.577C619.665,408.945 620.978,409.129 622.682,409.129L623.097,409.129C626.414,409.129 628.913,408.795 630.594,408.127C632.275,407.46 633.531,406.481 634.36,405.191C635.189,403.901 635.926,402.312 636.571,400.423C637.262,400.607 637.838,400.826 638.298,401.08C638.759,401.333 639.196,401.667 639.611,402.082C639.104,403.648 638.678,405.352 638.333,407.195C637.987,409.037 637.699,410.765 637.469,412.377C636.594,412.331 635.408,412.308 633.911,412.308C632.413,412.308 630.709,412.296 628.797,412.273C626.886,412.25 624.847,412.239 622.682,412.239ZM657.645,370.796L657.369,370.435C656.724,369.606 656.102,369.065 655.503,368.811C654.904,368.558 654.029,368.385 652.878,368.293C652.739,367.787 652.647,367.257 652.601,366.704C652.555,366.151 652.532,365.691 652.532,365.322C652.993,365.368 653.511,365.403 654.087,365.426C654.663,365.449 655.261,365.472 655.883,365.495C656.505,365.518 657.092,365.529 657.645,365.529C658.52,365.529 659.361,365.506 660.167,365.46C660.973,365.414 661.676,365.368 662.275,365.322L689.153,400.958L689.153,378.105C689.153,375.571 689.015,373.602 688.739,372.197C688.462,370.792 687.979,369.79 687.288,369.192C686.597,368.593 685.629,368.293 684.386,368.293C684.247,367.51 684.155,366.923 684.109,366.531C684.063,366.14 684.04,365.737 684.04,365.322C684.731,365.368 685.445,365.403 686.182,365.426C686.919,365.449 687.668,365.472 688.428,365.495C689.188,365.518 689.89,365.529 690.535,365.529C691.503,365.529 692.608,365.506 693.852,365.46C695.096,365.414 696.178,365.368 697.099,365.322C697.099,365.783 697.076,366.266 697.03,366.773C696.984,367.28 696.892,367.787 696.754,368.293C695.741,368.293 694.934,368.593 694.336,369.192C693.737,369.79 693.311,370.792 693.057,372.197C692.804,373.602 692.677,375.571 692.677,378.105L692.677,412.239C692.309,412.377 691.848,412.481 691.295,412.55C690.743,412.619 690.213,412.653 689.706,412.653L661.169,375.397L661.169,399.318C661.169,401.897 661.307,403.936 661.584,405.433C661.86,406.93 662.344,407.978 663.035,408.577C663.726,409.175 664.693,409.475 665.937,409.475C666.075,409.889 666.167,410.327 666.213,410.788C666.259,411.248 666.282,411.801 666.282,412.446C665.591,412.4 664.843,412.365 664.037,412.342C663.231,412.319 662.436,412.296 661.653,412.273C660.87,412.25 660.133,412.239 659.442,412.239C658.797,412.239 658.037,412.25 657.162,412.273C656.286,412.296 655.446,412.319 654.64,412.342C653.833,412.365 653.131,412.4 652.532,412.446C652.532,411.847 652.555,411.306 652.601,410.822C652.647,410.339 652.739,409.889 652.878,409.475C654.121,409.475 655.089,409.175 655.78,408.577C656.471,407.978 656.954,406.93 657.231,405.433C657.507,403.936 657.645,401.897 657.645,399.318L657.645,370.796ZM727.917,412.239L723.46,412.239C721.779,412.239 720.074,412.25 718.347,412.273C716.619,412.296 715.019,412.319 713.544,412.342C712.07,412.365 710.896,412.4 710.021,412.446C710.021,411.801 710.044,411.237 710.09,410.753C710.136,410.269 710.228,409.843 710.366,409.475C711.61,409.383 712.577,409.152 713.268,408.784C713.959,408.415 714.443,407.759 714.719,406.815C714.996,405.87 715.134,404.5 715.134,402.703L715.134,374.305C715.134,372.738 714.996,371.541 714.719,370.712C714.443,369.882 713.959,369.284 713.268,368.915C712.577,368.547 711.61,368.339 710.366,368.293C710.228,367.925 710.136,367.476 710.09,366.946C710.044,366.416 710.021,365.875 710.021,365.322C710.712,365.368 711.575,365.403 712.612,365.426C713.648,365.449 714.742,365.472 715.894,365.495C717.045,365.518 718.139,365.529 719.176,365.529L721.629,365.529C725.268,365.529 728.389,365.518 730.991,365.495C733.594,365.472 735.736,365.437 737.417,365.391C739.099,365.345 740.308,365.322 741.045,365.322C741.137,366.336 741.252,367.51 741.39,368.846C741.529,370.182 741.69,371.495 741.874,372.785C742.058,374.074 742.266,375.226 742.496,376.239C742.127,376.562 741.678,376.781 741.149,376.896C740.619,377.011 740.032,377.069 739.387,377.069C739.295,375.641 738.926,374.259 738.281,372.923C737.636,371.587 736.519,370.481 734.93,369.606C733.341,368.731 731.049,368.293 728.055,368.293L721.629,368.293L721.629,387.226L725.982,387.226C728.838,387.226 730.819,386.857 731.924,386.12C733.03,385.383 733.606,383.886 733.652,381.629C734.25,381.445 734.803,381.318 735.31,381.249C735.817,381.18 736.369,381.145 736.968,381.145C736.922,382.297 736.888,383.541 736.865,384.876C736.842,386.212 736.83,387.479 736.83,388.677C736.83,389.874 736.842,391.21 736.865,392.684C736.888,394.158 736.922,395.494 736.968,396.692C736.369,396.692 735.817,396.669 735.31,396.623C734.803,396.577 734.297,396.485 733.79,396.347C733.606,393.951 732.972,392.327 731.89,391.475C730.807,390.623 728.838,390.197 725.982,390.197L721.629,390.197L721.629,402.703C721.629,404.408 721.79,405.721 722.112,406.642C722.435,407.563 723.057,408.208 723.978,408.577C724.899,408.945 726.212,409.129 727.917,409.129L728.331,409.129C731.648,409.129 734.147,408.795 735.828,408.127C737.51,407.46 738.765,406.481 739.594,405.191C740.423,403.901 741.16,402.312 741.805,400.423C742.496,400.607 743.072,400.826 743.532,401.08C743.993,401.333 744.431,401.667 744.845,402.082C744.339,403.648 743.912,405.352 743.567,407.195C743.222,409.037 742.934,410.765 742.703,412.377C741.828,412.331 740.642,412.308 739.145,412.308C737.648,412.308 735.943,412.296 734.032,412.273C732.12,412.25 730.082,412.239 727.917,412.239ZM769.375,390.979L769.375,403.463C769.375,404.984 769.513,406.17 769.789,407.022C770.066,407.874 770.538,408.473 771.206,408.818C771.874,409.164 772.783,409.383 773.935,409.475C774.073,409.889 774.165,410.362 774.211,410.891C774.257,411.421 774.28,411.939 774.28,412.446C773.313,412.354 772.3,412.296 771.24,412.273C770.181,412.25 769.202,412.239 768.304,412.239L766.058,412.239C764.86,412.239 763.444,412.25 761.809,412.273C760.173,412.296 758.826,412.354 757.766,412.446C757.766,411.939 757.789,411.433 757.835,410.926C757.882,410.419 757.974,409.936 758.112,409.475C759.356,409.383 760.323,409.164 761.014,408.818C761.705,408.473 762.189,407.874 762.465,407.022C762.741,406.17 762.88,404.984 762.88,403.463L762.88,374.305C762.88,372.738 762.741,371.529 762.465,370.677C762.189,369.825 761.705,369.215 761.014,368.846C760.323,368.478 759.356,368.293 758.112,368.293C757.974,367.833 757.882,367.372 757.835,366.911C757.789,366.451 757.766,365.944 757.766,365.391C758.457,365.437 759.609,365.472 761.221,365.495C762.833,365.518 764.446,365.529 766.058,365.529C767.947,365.529 769.858,365.506 771.793,365.46C773.728,365.414 775.662,365.391 777.597,365.391C781.098,365.391 783.954,365.898 786.165,366.911C788.376,367.925 790.011,369.307 791.071,371.057C792.13,372.808 792.66,374.788 792.66,376.999C792.66,379.118 792.153,381.042 791.14,382.769C790.127,384.496 788.687,385.947 786.822,387.122C785.181,388.155 783.263,388.966 781.07,389.553C782.115,390.67 783.019,391.737 783.781,392.753C784.68,393.951 785.612,395.31 786.58,396.83C787.547,398.35 788.699,400.262 790.035,402.565C791.002,404.177 791.866,405.456 792.626,406.4C793.386,407.344 794.272,408.035 795.286,408.473C796.299,408.911 797.658,409.175 799.363,409.268C799.363,409.82 799.351,410.327 799.328,410.788C799.305,411.248 799.224,411.732 799.086,412.239C797.382,412.239 795.574,412.273 793.662,412.342C791.75,412.411 789.942,412.584 788.238,412.861C787.317,411.34 786.557,410.062 785.958,409.026C785.359,407.989 784.829,407.022 784.369,406.124C783.908,405.225 783.378,404.247 782.779,403.187C781.904,401.529 781.052,400.032 780.223,398.696C779.394,397.36 778.438,396.001 777.355,394.619C776.478,393.499 775.427,392.289 774.202,390.988C773.349,391.013 772.545,391.026 771.793,391.026C770.955,391.026 770.149,391.01 769.375,390.979ZM769.375,387.775C769.838,387.835 770.275,387.882 770.687,387.917C771.24,387.963 771.816,387.986 772.415,387.986C774.948,387.986 777.229,387.629 779.255,386.915C781.282,386.201 782.895,385.084 784.092,383.564C785.29,382.043 785.889,380.086 785.889,377.69C785.889,374.973 785.025,372.75 783.298,371.023C781.57,369.295 778.634,368.431 774.488,368.431C773.428,368.431 772.484,368.478 771.655,368.57C770.93,368.65 770.17,368.784 769.375,368.97L769.375,387.775Z" style="fill:rgb(117,117,117);"/>
    <path d="M1012.16,387.779L829.373,387.779C827.919,387.779 826.739,386.599 826.739,385.145C826.739,383.691 827.919,382.512 829.373,382.512L1006.91,382.512L1006.91,116.571L730.127,116.571C728.674,116.571 727.494,115.391 727.494,113.937C727.494,112.483 728.674,111.304 730.127,111.304L1012.16,111.304L1012.16,387.779ZM0,387.779L0,111.304L287.303,111.304C288.756,111.304 289.936,112.483 289.936,113.937C289.936,115.391 288.756,116.571 287.303,116.571L5.257,116.571L5.257,382.512L182.791,382.512C184.244,382.512 185.424,383.691 185.424,385.145C185.424,386.599 184.244,387.779 182.791,387.779L0,387.779ZM547.53,1.561C547.502,2.188 547.339,2.828 547.171,3.429C541.224,21.832 547.452,42.2 528.776,64.974C522.706,72.434 515.225,78.464 509.237,86.017C509.051,86.379 508.834,86.777 508.448,86.958C498.635,105.542 484.282,122.308 465.964,132.051C497.424,122.167 523.804,105.957 536.733,100.651C546.532,96.453 556.829,93.91 566.674,92.696C567.699,91.399 572.757,91.703 584.343,84.322C588.893,81.4 590.168,79.983 590.917,79.387C590.603,78.672 590.944,77.745 590.966,76.972C591.107,75.511 591.252,74.037 591.447,72.58C592.563,62.811 597.385,54.154 604.009,46.91C612.306,37.94 623.189,32.21 633.623,26.149C635.174,25.205 638.881,22.984 639.121,26.224C638.817,27.964 637.492,29.328 636.749,30.908C631.822,39.989 632.534,51.232 627.195,60.206C617.36,78.442 596.405,81.78 592.504,81.63C588.694,85.099 582.442,89.081 576.041,91.919C582.515,91.658 588.62,91.973 594.053,92.76C596.107,93.058 597.767,91.963 599.976,91.613C616.108,89.057 636.526,76.178 669.357,91.447C673.526,93.257 688.374,100.113 690.683,100.179C692.475,100.174 692.515,102.801 690.783,102.929C690.411,103.035 690.007,103.181 689.608,103.004C689.036,102.779 688.387,103.008 687.784,103.031C679.877,104.249 673.371,109.414 666.095,112.393C650.322,119.54 634.839,118.922 619.405,111.078C611.884,106.981 604.73,102.033 598.352,96.303C596.841,96.073 595.339,95.676 593.806,95.517C555.015,90.542 531.158,106.227 509.382,117.165C507.228,118.229 505.05,119.284 502.85,120.322C528,114.495 552.184,115.281 576.064,127.305C577.516,128.029 585.055,132.06 587.478,134.289C590.812,131.667 598.433,134.713 602.77,138.955C602.929,139.118 603.038,139.282 603.115,139.449C604.145,139.101 605.283,138.88 606.241,138.642C610.94,137.776 616.634,137.092 620.567,140.403C624.355,143.798 623.493,150.318 617.5,151.311C620.426,153.787 622.241,156.93 621.787,160.696C621.021,164.064 616.96,165.013 613.993,164.271C612.297,163.94 610.559,163.137 608.872,162.011C612.229,173.237 598.91,175.656 594.373,160.524C593.266,157.01 593.207,153.187 594.201,149.638C594.16,149.585 594.128,149.523 594.096,149.466C593.679,149.258 593.275,148.993 592.904,148.808C589.719,146.866 586.738,143.965 585.981,140.187C585.763,138.752 585.808,137.573 586.049,136.629C585.99,136.58 585.935,136.536 585.886,136.483C574.472,128.184 560.794,123.072 546.899,120.684C523.636,116.795 502.705,123.182 488.945,126.846C488.696,126.908 488.442,126.89 488.21,126.815C461.463,137.882 432.407,145.347 404.594,141.868C373.488,138.249 344.644,122.118 323.11,99.636C321.926,98.378 323.863,96.422 325.169,97.817C337.395,110.844 353.164,122.092 370.475,129.658C371.446,130.083 375.211,131.713 379.779,133.309C383.735,134.691 387.75,135.874 391.806,136.836C392.128,136.58 392.577,136.465 393.099,136.62C399.754,136.633 406.264,134.797 412.429,132.422C422.155,129.018 430.352,122.436 436.599,114.248C436.599,114.239 436.599,114.23 436.595,114.221C436.535,114.111 436.522,114 436.54,113.886C435.447,107.71 435.796,101.388 436.595,95.195C438.087,80.866 443.386,67.446 453.833,57.276C457.662,53.303 462.167,50.111 466.73,47.056C468.663,45.988 473.707,41.269 475.726,43.118C477.804,45.48 473.05,49.846 472.541,66.44C472.342,77.14 471.24,88.547 464.712,97.464C459.499,105.004 451.524,110.253 442.846,113.047C440.101,114.111 440.405,113.983 437.048,118.044C430.534,126.105 421.91,132.188 412.002,135.507C408.405,136.845 404.757,137.971 400.969,138.615C401.346,138.668 401.723,138.73 402.099,138.787C415.491,140.769 428.914,140.147 441.889,137.94C442.565,137.617 443.558,137.639 444.293,137.397C468.368,131.565 486.478,116.636 500.064,95.8C501.997,92.767 503.866,89.637 505.608,86.41C505.531,85.483 505.472,83.585 505.181,79.352C504.846,74.434 504.556,69.508 504.877,64.586C507.382,35.345 528.994,21.174 541.124,4.894C542.381,3.362 543.492,1.654 545.012,0.374C545.996,-0.492 547.606,0.246 547.53,1.561ZM597.181,149.311C597.172,149.333 597.172,149.355 597.163,149.382C595.87,153.063 595.965,156.979 597.331,160.709C600.797,169.789 606.091,169.732 606.612,166.271C606.889,163.375 605.597,160.471 603.932,158.162C603.809,157.95 603.75,157.712 603.746,157.478C601.273,154.706 599.277,151.492 598.248,148.587C597.907,148.852 597.549,149.095 597.181,149.311ZM595.544,147.082C596.832,146.358 599.173,144.574 600.548,140.65C595.123,135.697 590.134,136.063 590.061,136.068C587.615,136.253 587.348,143.038 595.544,147.082ZM602.341,96.145C602.634,96.387 602.923,96.623 603.183,96.833C603.314,96.939 603.442,97.04 603.573,97.146C618.044,109.008 630.211,113.687 640.6,114.535C641.874,114.638 642.141,114.659 643.726,114.676C652.163,114.764 659.386,112.385 665.7,109.537C666.467,109.192 666.749,109.065 667.456,108.73C673.417,105.9 678.552,102.814 683.152,101.296C683.897,101.108 683.742,100.709 683.299,100.522C675.954,97.428 668.871,94.122 662.706,91.778C661.029,91.14 661.013,91.145 659.934,90.767C654.899,89.006 649.868,87.717 644.347,87.183C642.985,87.051 642.536,87.02 641.022,86.958C634.29,86.68 626.75,87.514 617.591,89.907C613.932,90.879 610.284,92.096 606.586,93.069C619.606,94.23 626.646,96.81 631.986,99.206C636.567,101.262 639.845,103.187 644.685,103.877C649.116,104.509 654.832,104.115 664.005,101.896C654.846,104.637 649.081,105.32 644.565,104.92C633.546,103.945 630.097,96.332 602.341,96.145ZM597.136,78.278C606.674,76.316 615.328,71.526 621.293,64.131C622.015,63.235 622.24,62.925 622.826,62.083C624.5,59.677 625.911,57.033 626.999,54.146C627.734,52.124 628.302,50.027 628.805,47.895C628.94,47.321 629.001,47.07 629.209,46.138C630.352,41.017 631.319,35.777 633.559,31.067C633.788,30.586 633.831,29.498 633.723,29.27C628.832,32.157 623.874,34.925 619.074,37.949C616.638,39.582 614.429,41.211 612.424,42.84C611.701,43.427 611.663,43.469 611.095,43.953C606.944,47.489 603.75,51.033 601.291,54.632C600.776,55.265 600.625,55.594 600.098,56.454C596.086,62.998 594.365,69.736 593.679,76.952C597.223,74.157 599.929,71.641 602.124,69.288C610.494,60.317 611.531,53.868 622.742,44.758C612.214,54.733 611.672,61.271 603.978,70.89C602.161,73.161 599.953,75.593 597.136,78.278ZM618.916,160.568C619.923,156.661 616.475,153.368 612.134,151.077C612.006,151.055 611.875,151.028 611.748,151.006C611.372,150.922 611.113,150.724 610.945,150.481C607.289,148.759 603.256,147.726 600.765,147.607C605.392,158.74 615.976,164.523 618.916,160.568ZM509.764,81.1C509.827,81.034 509.888,80.969 509.945,80.906C516.541,73.587 524.176,67.181 529.801,59.037C530.831,57.501 531.756,55.995 532.595,54.512C533.12,53.585 533.429,52.99 533.811,52.243C536.651,46.69 538.275,41.454 539.3,36.413C539.473,35.563 539.584,34.981 539.727,34.153C541.337,24.799 541.178,16.058 543.351,7.07C542.891,7.459 541.323,9.17 540.163,10.558C533.707,18.279 525.977,25.377 519.626,34.095C519.236,34.631 518.961,35.008 518.469,35.72C515.615,39.847 513.098,44.341 511.165,49.435C510.632,50.841 510.305,51.842 510.104,52.477C509.024,55.885 508.203,59.553 507.718,63.539C507.403,67.007 507.441,70.566 507.611,74.106C507.996,72.954 508.461,71.805 508.997,70.659C515.585,56.557 532.754,42.92 532.344,30.136C533.504,42.809 517.28,57.375 511.567,71.768C510.325,74.898 509.61,78.014 509.764,81.1ZM619.256,147.612C620.966,145.881 619.841,142.91 617.913,141.833C613.49,139.617 607.307,140.972 602.766,142.504C602.412,143.325 601.985,144.142 601.496,144.923C605.229,145.396 609.457,146.579 613.091,148.437C615.155,148.733 617.595,149.037 619.256,147.612ZM393.829,137.3C393.752,137.158 393.657,137.03 393.539,136.92C393.652,137.03 393.743,137.158 393.815,137.3L393.829,137.3ZM442.993,110.038C445.201,109.204 447.455,108.478 449.578,107.26C457.126,103.238 463.119,96.568 466.363,88.697C466.602,88.118 466.922,87.278 467.193,86.472C467.801,84.662 468.273,82.799 468.581,80.901C469.08,78.248 469.325,75.838 469.48,73.494C469.515,72.95 469.53,72.648 469.566,71.918C469.879,65.548 469.706,59.377 472.165,49.727C472.412,48.757 473.108,46.108 473.122,46.094C468.708,48.804 464.789,51.519 461.332,54.318C461.068,54.532 460.996,54.592 460.162,55.294C456.659,58.238 453.647,61.288 451.084,64.546C450.779,64.934 450.202,65.697 449.918,66.086C446.911,70.205 444.574,74.672 442.818,79.661C442.338,81.026 442.065,81.925 441.793,82.857C440.051,88.834 439.044,95.553 438.636,103.309C438.558,105.469 438.587,107.633 438.775,109.784C442.214,106.384 444.483,103.007 446.16,99.57C450.766,90.135 451.114,80.404 458.594,69.316C451.928,80.986 452.31,90.763 448.4,100.562C447.145,103.708 445.455,106.841 442.993,110.038ZM585.758,136.328C585.704,136.253 585.659,136.174 585.622,136.081C585.65,136.174 585.7,136.253 585.758,136.328Z" style="fill:rgb(12,94,94);"/>
</svg>
