<?xml version="1.0" encoding="utf-8"?>
<!-- Generator: Adobe Illustrator 24.0.0, SVG Export Plug-In . SVG Version: 6.00 Build 0)  -->
<svg version="1.1" id="Ñëîé_1" xmlns="http://www.w3.org/2000/svg" xmlns:xlink="http://www.w3.org/1999/xlink" x="0px" y="0px"
	 viewBox="0 0 1200 1200" style="enable-background:new 0 0 1200 1200;" xml:space="preserve">
<style type="text/css">
	.st0{opacity:0.06;fill-rule:evenodd;clip-rule:evenodd;}
</style>
<path class="st0" d="M57.17,0l5.66,0L180,117.17L237.17,60l-60-60h5.66L240,57.17L297.17,0l5.66,0L420,117.17L477.17,60l-60-60h5.66
	L480,57.17L537.17,0l5.66,0L660,117.17L717.17,60l-60-60h5.66L720,57.17L777.17,0l5.66,0L900,117.17L957.17,60l-60-60h5.66
	L960,57.17L1017.17,0l5.66,0L1140,117.17L1197.17,60l-60-60h5.66L1200,57.17v5.66L1142.83,120l57.17,57.17v5.66L1142.83,240
	l57.17,57.17v5.66L1142.83,360l57.17,57.17v5.66L1142.83,480l57.17,57.17v5.66L1142.83,600l57.17,57.17v5.66L1142.83,720
	l57.17,57.17v5.66L1142.83,840l57.17,57.17v5.66L1142.83,960l57.17,57.17v5.66l-57.17,57.17l57.17,57.17v5.66l-57.17,57.17h-5.66
	l-57.17-57.17l-57.17,57.17h-5.66l60-60l-57.17-57.17L902.83,1200h-5.66L840,1142.83L782.83,1200h-5.66l2.83-2.83h0l57.17-57.17
	L780,1082.83L662.83,1200h-5.66L600,1142.83L542.83,1200h-5.66l60-60L540,1082.83L422.83,1200h-5.66L360,1142.83L302.83,1200h-5.66
	l60-60L300,1082.83L182.83,1200h-5.66L120,1142.83L62.83,1200h-5.66l60-60L60,1082.83l-60,60v-5.66L117.17,1020L60,962.83l-60,60
	v-5.66L117.17,900L60,842.83l-60,60v-5.66L117.17,780L60,722.83l-60,60v-5.66L117.17,660L60,602.83l-60,60v-5.66L117.17,540
	L60,482.83L2.83,540l0,0L0,542.83v-5.66L117.17,420L60,362.83l-60,60v-5.66L117.17,300L60,242.83l-60,60v-5.66L117.17,180L60,122.83
	l-60,60v-5.66L117.17,60L60,2.83l-60,60v-5.66L57.17,0L57.17,0z M1081.41,1138.59l58.59,58.59l57.17-57.17L1080,1022.83
	l-57.17,57.17L1081.41,1138.59L1081.41,1138.59z M841.41,1138.59l58.59,58.59l57.17-57.17L840,1022.83L782.83,1080l57.17,57.17l0,0
	L841.41,1138.59L841.41,1138.59z M660,1197.17l57.17-57.17L600,1022.83L542.83,1080L660,1197.17L660,1197.17z M420,1197.17
	l57.17-57.17L360,1022.83L302.83,1080L420,1197.17L420,1197.17z M180,1197.17l57.17-57.17L120,1022.83L62.83,1080L180,1197.17
	L180,1197.17z M1020,2.83L902.83,120L960,177.17L1077.17,60L1020,2.83L1020,2.83z M1138.59,121.41L1080,62.83L1022.83,120
	L1140,237.17l57.17-57.17L1138.59,121.41L1138.59,121.41z M898.59,121.41L840,62.83L782.83,120L900,237.17L957.17,180L898.59,121.41
	L898.59,121.41z M721.41,61.41L662.83,120L720,177.17L837.17,60L780,2.83L721.41,61.41L721.41,61.41z M600,62.83L542.83,120
	L660,237.17L717.17,180L600,62.83L600,62.83z M597.17,60L540,2.83L422.83,120L480,177.17L597.17,60L597.17,60z M418.59,121.41
	L360,62.83L302.83,120L420,237.17L477.17,180L418.59,121.41L418.59,121.41z M357.17,60L300,2.83L182.83,120L240,177.17L357.17,60
	L357.17,60z M178.59,121.41L120,62.83L62.83,120L180,237.17L237.17,180L178.59,121.41L178.59,121.41z M780,122.83L662.83,240
	L720,297.17l60-60l0,0L837.17,180L780,122.83L780,122.83z M540,122.83L422.83,240L480,297.17L597.17,180L540,122.83L540,122.83z
	 M300,122.83L182.83,240L240,297.17L357.17,180L300,122.83L300,122.83z M1138.59,241.41L1080,182.83L1022.83,240L1140,357.17
	l57.17-57.17L1138.59,241.41L1138.59,241.41z M1077.17,180L1020,122.83L902.83,240L960,297.17L1077.17,180L1077.17,180z
	 M898.59,241.41L840,182.83L782.83,240L900,357.17L957.17,300L898.59,241.41L898.59,241.41z M658.59,241.41L600,182.83L542.83,240
	L660,357.17L717.17,300L658.59,241.41L658.59,241.41z M418.59,241.41L360,182.83L302.83,240L420,357.17L477.17,300L418.59,241.41
	L418.59,241.41z M178.59,241.41L120,182.83L62.83,240L180,357.17L237.17,300L178.59,241.41L178.59,241.41z M1020,242.83L902.83,360
	L960,417.17L1077.17,300L1020,242.83L1020,242.83z M1138.59,361.41L1080,302.83L1022.83,360L1140,477.17l57.17-57.17L1138.59,361.41
	L1138.59,361.41z M898.59,361.41L840,302.83L782.83,360L900,477.17L957.17,420L898.59,361.41L898.59,361.41z M721.41,301.41
	L662.83,360L720,417.17L837.17,300L780,242.83L721.41,301.41L721.41,301.41z M658.59,361.41L600,302.83L542.83,360L660,477.17
	L717.17,420L658.59,361.41L658.59,361.41z M597.17,300L540,242.83L422.83,360L480,417.17L597.17,300L597.17,300z M418.59,361.41
	L360,302.83L302.83,360L420,477.17L477.17,420L418.59,361.41L418.59,361.41z M357.17,300L300,242.83L182.83,360L240,417.17
	L357.17,300L357.17,300z M178.59,361.41L120,302.83L62.83,360L180,477.17L237.17,420L178.59,361.41L178.59,361.41z M780,362.83
	L662.83,480L720,537.17l60-60l0,0L837.17,420L780,362.83L780,362.83z M540,362.83L422.83,480L480,537.17L597.17,420L540,362.83
	L540,362.83z M182.83,480L240,537.17L357.17,420L300,362.83L182.83,480L182.83,480z M1138.59,481.41L1080,422.83L1022.83,480
	L1140,597.17l57.17-57.17L1138.59,481.41L1138.59,481.41z M1077.17,420L1020,362.83L902.83,480L960,537.17L1077.17,420L1077.17,420z
	 M898.59,481.41L840,422.83L782.83,480L900,597.17L957.17,540L898.59,481.41L898.59,481.41z M840,422.83l-2.83-2.83L840,422.83
	L840,422.83z M658.59,481.41L600,422.83L542.83,480L660,597.17L717.17,540L658.59,481.41L658.59,481.41z M418.59,481.41L360,422.83
	L302.83,480L420,597.17L477.17,540L418.59,481.41L418.59,481.41z M178.59,481.41L120,422.83L62.83,480L180,597.17L237.17,540
	L178.59,481.41L178.59,481.41z M1020,482.83L902.83,600L960,657.17L1077.17,540L1020,482.83L1020,482.83z M1138.59,601.41
	L1080,542.83L1022.83,600L1140,717.17l57.17-57.17L1138.59,601.41L1138.59,601.41z M898.59,601.41L840,542.83L782.83,600L900,717.17
	L957.17,660L898.59,601.41L898.59,601.41z M721.41,541.41L662.83,600L720,657.17L837.17,540L780,482.83L721.41,541.41L721.41,541.41
	z M658.59,601.41L600,542.83L542.83,600L660,717.17L717.17,660L658.59,601.41L658.59,601.41z M597.17,540L540,482.83L482.83,540l0,0
	l-60,60L480,657.17L597.17,540L597.17,540z M418.59,601.41L360,542.83L302.83,600L420,717.17L477.17,660L418.59,601.41
	L418.59,601.41z M357.17,540L300,482.83L242.83,540v0l-60,60L240,657.17L357.17,540L357.17,540z M178.59,601.41L120,542.83
	L62.83,600L180,717.17L237.17,660L178.59,601.41L178.59,601.41z M780,602.83L662.83,720L720,777.17l60-60l0,0L837.17,660L780,602.83
	L780,602.83z M540,602.83L422.83,720L480,777.17L597.17,660L540,602.83L540,602.83z M300,602.83L182.83,720L240,777.17L357.17,660
	L300,602.83L300,602.83z M1077.17,660L1020,602.83L902.83,720L960,777.17L1077.17,660L1077.17,660z M1020,722.83L902.83,840
	L960,897.17L1077.17,780L1020,722.83L1020,722.83z M540,722.83L422.83,840L480,897.17L597.17,780L540,722.83L540,722.83z
	 M1197.17,780L1080,662.83L1022.83,720L1140,837.17L1197.17,780L1197.17,780z M1138.59,841.41L1080,782.83L1022.83,840L1140,957.17
	l57.17-57.17L1138.59,841.41L1138.59,841.41z M900,837.17L957.17,780L840,662.83L782.83,720L900,837.17L900,837.17z M898.59,841.41
	L840,782.83L782.83,840L900,957.17L957.17,900L898.59,841.41L898.59,841.41z M721.41,781.41L662.83,840L720,897.17L837.17,780
	L780,722.83L721.41,781.41L721.41,781.41z M717.17,780L600,662.83L542.83,720L660,837.17L717.17,780L717.17,780z M658.59,841.41
	L600,782.83L542.83,840L660,957.17L717.17,900L658.59,841.41L658.59,841.41z M420,837.17L477.17,780L360,662.83L302.83,720
	L420,837.17L420,837.17z M418.59,841.41L360,782.83L302.83,840L360,897.17l0,0l60,60L477.17,900L418.59,841.41L418.59,841.41z
	 M357.17,780L300,722.83L182.83,840L240,897.17L357.17,780L357.17,780z M237.17,780L120,662.83L62.83,720L120,777.17l0,0l60,60
	L237.17,780L237.17,780z M178.59,841.41L120,782.83L62.83,840L180,957.17L237.17,900L178.59,841.41L178.59,841.41z M780,842.83
	L662.83,960l57.17,57.17l60-60l0,0L837.17,900L780,842.83L780,842.83z M300,842.83L182.83,960l57.17,57.17L357.17,900L300,842.83
	L300,842.83z M1138.59,961.41L1080,902.83L1022.83,960L1140,1077.17l57.17-57.17L1138.59,961.41L1138.59,961.41z M1077.17,900
	L1020,842.83L902.83,960l57.17,57.17L1077.17,900L1077.17,900z M898.59,961.41L840,902.83L782.83,960L900,1077.17l57.17-57.17
	L898.59,961.41L898.59,961.41z M658.59,961.41L600,902.83L542.83,960L660,1077.17l57.17-57.17L658.59,961.41L658.59,961.41z
	 M597.17,900L540,842.83L482.83,900h0l-60,60l57.17,57.17L597.17,900L597.17,900z M418.59,961.41L360,902.83L302.83,960L420,1077.17
	l57.17-57.17L418.59,961.41L418.59,961.41z M178.59,961.41L120,902.83L62.83,960L180,1077.17l57.17-57.17L178.59,961.41
	L178.59,961.41z M1020,962.83L902.83,1080l57.17,57.17L1077.17,1020L1020,962.83L1020,962.83z M540,962.83L422.83,1080l57.17,57.17
	L597.17,1020L540,962.83L540,962.83z M662.83,1080l57.17,57.17L837.17,1020L780,962.83L662.83,1080L662.83,1080z M357.17,1020
	L300,962.83L182.83,1080l57.17,57.17L357.17,1020L357.17,1020z M420,1077.17l2.83,2.83L420,1077.17z"/>
</svg>
