<svg clip-rule="evenodd" fill-rule="evenodd" stroke-linejoin="round" stroke-miterlimit="2" viewBox="0 0 182 137" xmlns="http://www.w3.org/2000/svg"><path d="m68.7 1s48.6-2.3 112.3 67.7c-63.6 70-112.3 67.7-112.3 67.7-37.4 0-67.7-30.3-67.7-67.7s30.3-67.7 67.7-67.7zm11.4 76.6c0-.5.1-1.4.2-2.2 0-.8-.1-1.9-.2-2.2-2.5.2-5 1.6-6.4 2.8l-.3-2.4c-.5-.1-1.6-.2-2.2-.2-.8 0-1.7.1-2.3.2v19.7c.4.1 1.7.2 2.6.2s2.1-.1 2.6-.2v-13.7c1.9-1 4-1.7 6-2zm10.4 16c5.7 0 9.3-3.7 9.3-10.2 0-6.4-3.6-10.2-9.3-10.2s-9.3 3.9-9.3 10.3 3.6 10.1 9.3 10.1zm0-16.3c2.5 0 4 1.6 4 6.1s-1.5 6.1-4 6.1-4-1.6-4-6.1c0-4.4 1.5-6.1 4-6.1zm-49.2-17.8h-11.4v-22.4c-.6-.1-1.2-.2-1.8-.2-.7 0-1.4.1-2 .2v25.4h15.2c.2-.4.2-1 .2-1.5 0-.4 0-1-.2-1.5zm50.7 3.3c.5 0 .9-.1 1.3-.3v-13.2c0-4.7-2.7-6.8-7.4-6.8-2 0-4.4.4-6.1.9-.1.4-.2.8-.2 1.2s.1.8.2 1.2c1.3-.3 3.7-.6 5.4-.6 3.2 0 4.6 1.2 4.6 4.4v.5c-.6-.1-2.1-.2-2.6-.2-4.6 0-9.4 1.4-9.4 7.1 0 3.8 2.9 5.9 6.6 5.9 2.4 0 4.6-.7 5.8-2.3l.2 2c.5.1 1.1.2 1.6.2zm-2.2-10v5.1c-.8 1.1-2.8 2.1-4.5 2.1-2.3 0-3.8-1.2-3.8-3.4 0-2.6 2.1-4 5.8-4 1 0 1.9.1 2.5.2zm29.1 32.5c.1-1 .1-2 .2-2.5 0-5-2.2-9.4-8.2-9.4-6.4 0-9.3 5.1-9.3 10.3 0 6 2.9 10.1 10.1 10.1 2 0 4-.2 5.9-.8v-.8c0-1.1-.2-2.2-.4-3.2-1.5.4-3.3.6-5.1.6-3.3 0-5-1.8-5.1-4.3zm-5.1-3.8h-6.8c.1-2.6 1.4-4.4 3.7-4.4 2.5 0 3.1 2 3.1 4.4zm-37.6-35.2c.1-.4.1-.9.1-1.3 0-.5 0-.8-.2-1.3-1.3-.7-3.4-1.2-4.9-1.2-6.2 0-9.5 4.7-9.5 10.5 0 6 3.2 9.9 9.4 9.9 1.5 0 3.7-.5 5-1.1.2-.3.2-.7.2-1.1s0-.8-.2-1.2c-1.2.4-3 .7-4.3.7-4.5 0-6.3-3.2-6.3-7.3 0-5.4 2.4-7.6 6.6-7.6 1.2 0 3 .5 4.1 1zm51.2 47.3c3.9 0 7.6-2 7.6-6.7 0-3-1.8-4.6-5.6-5.8-2.2-.7-3.6-1.2-3.6-2.4 0-1.1 1.3-1.6 3.1-1.6 1.4 0 3.2.3 4.5.7.1-.6.3-1.6.3-2.1 0-.4 0-1.2-.2-1.8-1.3-.4-3.3-.7-5-.7-3.8 0-7.7 1.5-7.7 5.8 0 2.9 1.8 4.8 5.8 6 2.5.8 3.4 1.4 3.4 2.6 0 1.4-1.2 2.1-3.2 2.1-1.5 0-4-.4-5.7-1-.1.5-.3 1.4-.3 2 0 .7.1 1.4.2 2 1.8.6 4.2.9 6.4.9zm-76.2-30.7c5.3 0 8.7-3.6 8.7-10.2s-3.4-10.2-8.7-10.2-8.7 3.7-8.7 10.3 3.4 10.1 8.7 10.1zm0-17.7c3.3 0 5 2.3 5.1 7.5 0 5.2-1.8 7.5-5.1 7.5-3.4 0-5.1-2.3-5.1-7.5s1.8-7.5 5.1-7.5zm-5.4 48.1v-25.5c-.7-.1-1.8-.2-2.7-.2s-1.9.1-2.7.2v10.3h-8.9v-10.3c-.7-.1-1.6-.2-2.7-.2-.9 0-2 .1-2.7.2v25.5c.7.1 1.7.2 2.7.2 1.2 0 2-.1 2.7-.2v-10.6h8.9v10.6c.7.1 1.6.2 2.7.2s2-.1 2.7-.2zm20.3-8c.1-1 .1-2 .2-2.5 0-5-2.2-9.4-8.2-9.4-6.4 0-9.3 5.1-9.3 10.3 0 6 2.9 10.1 10.1 10.1 2 0 4-.2 5.9-.8v-.8c0-1.1-.2-2.2-.4-3.2-1.5.4-3.3.6-5.1.6-3.3 0-5-1.8-5.1-4.3zm-5.1-3.8h-6.8c.1-2.6 1.4-4.4 3.7-4.4 2.5 0 3.1 2 3.1 4.4zm39.4-18.9v-27.6c-.6-.2-1.2-.2-1.8-.2s-1.2.1-1.8.2v27.6c.6.1 1.1.2 1.7.2.7 0 1.3-.1 1.9-.2z" fill-rule="nonzero"/></svg>