<svg clip-rule="evenodd" fill-rule="evenodd" stroke-linejoin="round" stroke-miterlimit="2" viewBox="0 0 750 750" xmlns="http://www.w3.org/2000/svg"><path d="m17.004 359.493-4.357 32.248c-.872 5.666-2.615 0-4.358 15.689 0 2.179.435 8.716-.872 21.79v8.715c-.872 32.685-1.743 10.459-2.615 21.79l-.436 1.743c0 8.716-1.743 24.405-2.179 40.529v3.486c0 1.743.872 3.051 1.308 4.358l2.615 6.537c2.179 4.358 4.358 7.844 6.972 10.895 4.794 6.537 6.973 10.023 11.767 13.074 1.307.871 1.307 1.743 1.743 2.179l2.179 1.307 3.05 1.743c2.179 1.308 4.794 1.743 6.973 1.743 3.486 0 6.973 0 10.459-1.307 6.26-1.858 11.761-5.678 15.689-10.895 7.408-10.023 10.894-20.918 13.945-30.941 5.665-20.918 11.766-40.093 17.432-54.474l.871-2.179c1.743-6.973 1.308-7.409 5.23-16.125 2.086-7.018 4.709-13.865 7.844-20.482 13.945-36.606 17.432-57.524 27.891-88.901 2.179.871 13.074-27.891 18.303-42.708v.871c3.486-8.715 6.101-17.431 8.716-25.711l.872-3.487.871-2.179.436-3.05v-1.308h.436l.871.436 1.308 1.743.871 2.615v1.308l.436 1.307v2.179c1.743 11.33 2.179 23.097 2.615 35.735-1.729 32.952-1.729 65.972 0 98.925l.871 19.175 3.923 18.303c1.307 3.051 1.307.872 5.229 8.716 2.615 5.665 6.973 12.202 11.331 16.996 4.358 4.793 1.307 2.179 3.486 4.793 1.307 2.179 3.486 5.23 6.973 7.845 4.446 3.671 9.448 6.613 14.817 8.716 3.628.386 7.287-.377 10.459-2.179 5.557-3.603 10.55-8.009 14.817-13.074l-.436-3.487c7.408-7.844 13.945-18.303 19.611-30.505 4.793-11.331 8.715-24.404 11.766-36.171 6.537-24.404 11.766-46.194 16.996-56.653 2.179-9.587 6.101-21.354 8.716-30.505l1.743 1.307c3.486-8.28 3.05-6.973 4.358-8.716l1.743-3.05v.435l.436 2.179v8.28c.436 0 .436.872 0 .872v5.665l1.743 9.588c.871 6.101 2.179 12.202 2.179 21.354l-1.743 5.229v33.12c.963 7.435 3.173 14.654 6.537 21.354 5.341 10.411 13.115 19.381 22.661 26.148 1.743 1.307 3.486 2.179 5.665 2.615 3.221.427 6.497.13 9.588-.872 5.229-1.307 3.05.872 6.536-1.743 0 0 1.794-.978 2.389-1.339-.361.167-.721.323-1.081.467 1.354-.677 1.459-.696 1.081-.467 4.003-1.858 8.067-5.123 12.864-9.12 10.202-9.122 18.625-20.056 24.84-32.249 9.318-14.213 17.619-29.067 24.841-44.451l.871.872c5.23-14.381 5.23-15.253 13.51-34.864 1.307-2.614 1.743-3.05 2.179-2.614l.871-2.179.436-.872c0-.436.436 0 .436 0l.871-1.307 1.744-1.308.871 6.537v9.152l.872 6.101c0 3.051.871 5.23 2.179 10.023l3.486 21.79c1.307 7.844 3.486 14.381 3.051 15.688 1.743 2.179 2.614 8.716 10.023 17.868 5.764 8.76 14.157 15.474 23.968 19.175l5.23 2.615 3.486 3.922c4.794.871 6.537 0 13.074 0 5.665-.436 11.767-2.179 17.432-4.358 10.948-4.325 21.221-10.195 30.505-17.432l2.615-1.743c3.922-2.615-.436-1.308 2.179-4.358 4.358-3.486 7.408-6.101 11.331-10.459.871 0 3.486-7.844 7.408-13.074 4.358-4.358 8.716-10.459 11.331-14.381-.872 0 0-1.743.871-3.051 9.152-9.587 13.946-43.579 16.56-45.758 10.648-20.381 19.823-41.498 27.455-63.19l1.308-4.358.871-4.358.872-2.614 3.486-6.973 1.308 26.583.435 17.432-.435 14.817-.872 2.615c.436 11.33.872 43.579 0 45.758 0 1.307 1.743 17.867-.436 39.657l-2.179 27.891v1.743l-3.922.872-15.253 5.229-3.486 1.743c-1.743.872-1.307 0-1.307 0l-5.23 2.615c-2.615.872-2.179 1.307-3.05 1.743-.872.436 0 1.743 0 1.743l-3.487.872-2.614.436-3.923 1.307c-1.307 0-1.307.872-4.358 2.179l-6.972 3.486-4.358 1.744c-2.615.871-.872.871-2.615 2.179-1.307 1.307 0-.872-1.307 0l-4.358 1.307c-.872 0-4.794 3.05-4.794 3.05l-3.486 1.308s-.436-.436-.872 0l-1.307 3.05-1.743 1.744h-2.615c0 .435-3.051 1.307-4.358 2.614l-4.794 2.179h-1.307c-1.308 0-1.743 1.308-2.615 1.743l-3.486 2.615-4.358 2.179c-1.743.436-4.358 4.358-6.973 5.666-2.615 1.743-5.665 5.229-7.844 6.101-1.743 1.307-6.973 4.358-8.716 6.972-2.615 3.051-5.665 4.358-10.023 6.537-4.358 2.615-7.845 6.537-14.817 11.767-6.537 4.793-5.23 3.922-12.202 10.459-.436.435-4.358 4.358-6.101 7.408-1.308 3.051-.872 0-2.179 2.179-.872 2.615-3.487 3.486-6.537 6.537v-.872c-8.716 5.666-6.101 13.074-15.253 19.175h.871c-8.715 8.28-12.637 19.175-20.482 27.891-1.743 2.615-.871 3.051-.871 5.229h-1.744v3.487c-1.307 3.486-3.05 8.716-4.357 10.459-1.744 1.743-3.051 5.229-4.358 8.28l-3.487 9.152c0 2.179 1.308 5.665 1.743 5.665v.436l.436 2.614v3.051h-.871c1.307 8.716 3.486 16.996 7.408 24.84l3.922 7.844v1.308c0 .436-.436.871.872 3.05 1.743 2.179 4.358 6.101 13.074 10.895 10.008 3.699 20.379 6.329 30.941 7.844h11.331l-3.923-.435.872-.872h1.743c49.524.077 97.14-19.346 132.481-54.038l-.436 1.307 2.179-2.615c3.922-4.358 4.794-3.922 8.716-8.28l.872-.435c7.844-7.845 5.665-7.845 13.074-14.817.435-.872 0 0 0 .435l5.229-6.101c12.202-15.252 15.253-26.147 20.047-31.813l-.436 1.308c6.101-12.202 5.665-13.074 5.229-13.074 0 0-.871.436-.436-.436l5.23-11.33 5.665-7.845-.436-2.614c.872-2.615 3.051-7.845 3.051-6.537 1.646-7.572.805-6.191.295-5.062-.095.232-.193.466-.295.704 0 0 .13-.339.295-.704 2.355-5.741 2.806-10.043 4.063-17.164 0 0 2.179-4.793 2.179-6.101l.436-6.101.871-8.716c2.179-1.743 3.051-15.688 3.487-23.968v-1.744c2.614-.435 4.358-.871 5.665-2.179h9.152c1.743 1.744 4.357.436 6.536.436 6.102-.871 6.102-2.615 12.203-3.486h-.872c3.486-2.615 3.486 0 6.537-1.743l1.743 1.743h2.179c1.494-.283 2.955-.721 4.358-1.307.872 0 .872-.436 1.307-.872 2.179-1.307 3.487-3.051 3.487-3.922 1.307-1.308-.436 0 0-2.615l-1.308-6.537c2.179 0 .872-3.486-.871-6.537-2.179-3.486-5.23-6.101-5.666-8.716l-2.614-1.743-4.358-2.615c-.872-.871-2.615-.871-4.358-.871h-3.486l-13.51-.872c2.615 2.179-7.844 0-12.202 0l2.615-65.804 1.743-50.117c0-13.945 1.307-11.33 0-13.945-.872-2.179-.872-11.766-.872-11.766l-.436-26.148c.872.436 0-1.307.436-2.179v-14.817l-.436-10.895.872-2.614c-.543-16.178-3.48-32.185-8.716-47.502-2.57-6.605-7.142-12.245-13.074-16.124-.871 0 0 .436 0 1.307l-2.179-.871-4.358-1.308h-4.793l-4.358-1.307c-5.23 0-12.202 1.307-16.56 4.358-4.358 3.05-6.973 6.537-8.716 7.844.871 0 0 2.179-3.051 6.973-11.33 15.253-4.358 4.358-11.33 13.074-.872 2.614-3.051 5.665-5.23 8.715-2.179 3.487-3.486 6.102-3.05 6.537-2.615 4.794-3.923 5.666-5.23 6.973-14.963 41.466-32.877 81.807-53.602 120.715h-.436c-3.051 4.793-17.432 23.968-29.634 39.221-1.743-3.051-2.615-5.665-2.179-6.973-3.051-4.793-4.358-8.716-5.665-12.202v-3.922l-1.744-5.23c-2.179-9.587-2.614-15.252-3.922-21.789l-3.486-22.226c1.743 6.101.436-10.459 0-20.482v-13.074c0-20.046-2.179-37.914-3.922-54.474-.867-8.112-1.448-16.251-1.743-24.404.091-7.88-.492-15.753-1.744-23.533v-.436l-.435-.871c-1.824-5.243-4.803-10.009-8.716-13.946-1.308-1.743-4.358-3.922-6.973-4.793-2.241-.775-4.652-.926-6.973-.436-3.922 0-6.536 1.307-7.844 1.743-6.973 2.615-10.459 5.665-13.509 7.844l-6.973 6.973c-2.179 2.615-4.358 4.358-6.973 8.28l-6.972 13.945-3.487 10.024-.436.435v2.615c-1.307 4.358-2.614 13.074-3.486 19.175-1.307 6.537-1.307 10.895-1.307 7.844l-1.308 6.537c-3.657 15.32-7.58 30.575-11.766 45.758v1.308l-2.615 13.509-1.307 6.101c-.436 2.179-.436-.871-4.358 10.024-5.665 11.766-.872-1.743-8.716 20.046l-.872 2.179c-6.972 18.739-15.688 31.813-21.789 41.836-2.615 6.101 0 .872-3.051 5.666l.872 1.307c-3.487 5.665-2.615 4.358-3.051 3.922-.871 3.922-3.922 6.973-5.229 9.152v-9.588l-1.308-6.101c-.435-3.486-1.307-6.537-1.307-20.918v-15.688c1.307-17.868 0-19.611 0-29.199-.436-3.486-.872-2.179-.436-14.381l1.743-16.56 1.308-13.074v-19.61c.436 0 1.307 0 .436-4.358-3.487-12.202-6.973-18.304-11.331-24.405-5.807-7.292-14.273-11.996-23.533-13.073-1.262-.468-2.581-.761-3.922-.872-4.358 0-15.253 1.307-20.047 2.179-7.436 1.589-14.076 5.758-18.739 11.766-3.935 5.396-6.886 11.445-8.715 17.868l-5.666 20.046c-1.743 6.973 0 3.922-3.05 12.203 0 4.357-6.101 20.046-8.716 30.505-.872-.872-3.486 5.665-5.665 9.587.871 0-7.845 23.969-6.537 27.891l-6.101 13.946-4.358 13.945-.872 2.615v2.179l-.872 3.05-2.614 15.253-.872 2.615v.435l-.871-.871c-.872-1.743-1.308-10.023-2.179-12.202l-1.744-7.409-.435-3.05v-12.638c-.872-4.358-1.744-5.23-1.744-15.689 0-2.179-.435-8.716-1.307-6.973 3.051-27.89 1.307-78.442 1.307-102.847-1.057-11.167-3.547-22.152-7.408-32.684-2.179-5.23-5.23-10.459-8.716-15.253-4.358-4.358-7.844-7.844-13.074-10.023-6.343-3.122-13.504-4.189-20.482-3.051-2.179 0-13.074 1.744-17.432 3.051h-.871c-2.879.124-5.638 1.197-7.845 3.051-3.486 2.178-6.972 5.665-10.023 10.459-3.05 4.357-5.229 10.023-7.408 15.252l-2.615 7.409c-1.307 2.615-.872.436-1.743 2.615-5.665 13.073-11.767 32.684-20.918 53.602 0 0 0-.872-.436 0-4.794 14.817-16.56 42.708-24.404 63.626l-3.487 9.587-4.793 12.638-.872.436-.436.872v-5.23l-1.307-14.381v-2.615l.871-3.05.872-3.487.872-15.252.871 1.307 1.308-29.634c0-7.844 0-13.074 1.743-28.327 0-17.431 3.05-13.945 4.358-31.377l2.614-4.358 1.308-11.33c.436-4.358.871-10.895-1.743-16.996-4.358-12.202-13.074-21.79-24.405-23.969l-3.486-.871h-4.358c-3.486 0-5.23 1.743-7.409 2.614-3.238 1.728-6.799 2.767-10.459 3.051h-1.307c-.433-.066-.874-.066-1.307 0l-2.179 1.743c-1.826 2.322-3.16 4.991-3.922 7.844-.436-1.307-2.179 1.744-3.487 6.973-1.531 7.329-2.551 14.755-3.05 22.226-1.308 17.431-2.615 37.042-4.358 44.886-.872 40.093-4.358 79.315-6.973 125.509 1.307 6.101-.872 13.509 2.615 11.33-.14 5.25-.577 10.488-1.308 15.689zm623.62 88.901c-4.358 26.148-8.716 47.938-18.303 74.085-4.794 13.074-13.074 26.148-20.919 38.35-7.852 12.449-17.892 23.374-29.633 32.249-7.409 5.229-11.767 7.408-15.253 9.587-3.487 2.179-6.101 3.486-11.767 5.665h-4.358c-6.536 1.743-13.073 2.615-20.482 2.615-6.081-.051-12.114-1.081-17.867-3.05-5.23-1.744-9.588-4.358-12.638-7.845-2.615-3.486-2.179-6.972-3.487-11.33l-1.743-6.973-1.307-10.895.436-5.665c.871-.872-1.308-2.615-.872-3.051l1.743-2.614c0-1.308 2.179-4.358 2.179-4.794v-3.487c-1.743-.435.436-4.357 1.308-7.408l5.229-7.844h.436l1.743-3.922 2.615-3.487c1.743-2.614 4.358-7.408 6.972-10.459 5.23-3.05 7.409-8.716 8.716-10.459l7.845-9.587 6.101-6.973c2.179-2.615 4.358-3.05 5.229-5.229.436-.436 2.179-.872 2.615 0l4.794-4.358s1.307 0 3.486-1.744l3.051-2.614 7.408-4.358 7.844-5.666c1.744-1.307 4.358-3.922 5.666-4.357l7.844-4.358c.871 0 .436-1.308 1.743-1.744 1.307-.871 2.179 0 2.179 0l4.358-1.743 4.358-3.486s3.486-.872 5.665-2.615l2.615-2.179s2.179 0 3.922-.871c2.179-.872 6.537-2.179 7.409-3.051l6.972-.871.872-1.744 2.179-.871c1.743-.872-.872 0 0-.872.871-.436 5.229 0 6.972-1.743l2.615-2.179c1.743-1.307 6.537-.436 9.152-1.743 1.409-.475 2.874-.768 4.358-.872h3.05z" fill="#fff"/></svg>