<?xml version="1.0" encoding="UTF-8" standalone="no"?><!DOCTYPE svg PUBLIC "-//W3C//DTD SVG 1.1//EN" "http://www.w3.org/Graphics/SVG/1.1/DTD/svg11.dtd"><svg width="100%" height="100%" viewBox="0 0 750 750" version="1.1" xmlns="http://www.w3.org/2000/svg" xmlns:xlink="http://www.w3.org/1999/xlink" xml:space="preserve" xmlns:serif="http://www.serif.com/" style="fill-rule:evenodd;clip-rule:evenodd;stroke-linejoin:round;stroke-miterlimit:2;"><path d="M17.004,359.493l-4.357,32.248c-0.872,5.666 -2.615,0 -4.358,15.689c-0,2.179 0.435,8.716 -0.872,21.79l0,8.715c-0.872,32.685 -1.743,10.459 -2.615,21.79l-0.436,1.743c0,8.716 -1.743,24.405 -2.179,40.529l0,3.486c0,1.743 0.872,3.051 1.308,4.358l2.615,6.537c2.179,4.358 4.358,7.844 6.972,10.895c4.794,6.537 6.973,10.023 11.767,13.074c1.307,0.871 1.307,1.743 1.743,2.179l2.179,1.307l3.05,1.743c2.179,1.308 4.794,1.743 6.973,1.743c3.486,0 6.973,0 10.459,-1.307c6.26,-1.858 11.761,-5.678 15.689,-10.895c7.408,-10.023 10.894,-20.918 13.945,-30.941c5.665,-20.918 11.766,-40.093 17.432,-54.474l0.871,-2.179c1.743,-6.973 1.308,-7.409 5.23,-16.125c2.086,-7.018 4.709,-13.865 7.844,-20.482c13.945,-36.606 17.432,-57.524 27.891,-88.901c2.179,0.871 13.074,-27.891 18.303,-42.708l0,0.871c3.486,-8.715 6.101,-17.431 8.716,-25.711l0.872,-3.487l0.871,-2.179l0.436,-3.05l-0,-1.308l0.436,0l0.871,0.436l1.308,1.743l0.871,2.615l0,1.308l0.436,1.307l0,2.179c1.743,11.33 2.179,23.097 2.615,35.735c-1.729,32.952 -1.729,65.972 -0,98.925l0.871,19.175l3.923,18.303c1.307,3.051 1.307,0.872 5.229,8.716c2.615,5.665 6.973,12.202 11.331,16.996c4.358,4.793 1.307,2.179 3.486,4.793c1.307,2.179 3.486,5.23 6.973,7.845c4.446,3.671 9.448,6.613 14.817,8.716c3.628,0.386 7.287,-0.377 10.459,-2.179c5.557,-3.603 10.55,-8.009 14.817,-13.074l-0.436,-3.487c7.408,-7.844 13.945,-18.303 19.611,-30.505c4.793,-11.331 8.715,-24.404 11.766,-36.171c6.537,-24.404 11.766,-46.194 16.996,-56.653c2.179,-9.587 6.101,-21.354 8.716,-30.505l1.743,1.307c3.486,-8.28 3.05,-6.973 4.358,-8.716l1.743,-3.05l-0,0.435l0.436,2.179l-0,8.28c0.436,0 0.436,0.872 -0,0.872l-0,5.665l1.743,9.588c0.871,6.101 2.179,12.202 2.179,21.354l-1.743,5.229l-0,33.12c0.963,7.435 3.173,14.654 6.537,21.354c5.341,10.411 13.115,19.381 22.661,26.148c1.743,1.307 3.486,2.179 5.665,2.615c3.221,0.427 6.497,0.13 9.588,-0.872c5.229,-1.307 3.05,0.872 6.536,-1.743c0,-0 1.794,-0.978 2.389,-1.339c-0.361,0.167 -0.721,0.323 -1.081,0.467c1.354,-0.677 1.459,-0.696 1.081,-0.467c4.003,-1.858 8.067,-5.123 12.864,-9.12c10.202,-9.122 18.625,-20.056 24.84,-32.249c9.318,-14.213 17.619,-29.067 24.841,-44.451l0.871,0.872c5.23,-14.381 5.23,-15.253 13.51,-34.864c1.307,-2.614 1.743,-3.05 2.179,-2.614l0.871,-2.179l0.436,-0.872c0,-0.436 0.436,0 0.436,0l0.871,-1.307l1.744,-1.308l0.871,6.537l0,9.152l0.872,6.101c-0,3.051 0.871,5.23 2.179,10.023l3.486,21.79c1.307,7.844 3.486,14.381 3.051,15.688c1.743,2.179 2.614,8.716 10.023,17.868c5.764,8.76 14.157,15.474 23.968,19.175l5.23,2.615l3.486,3.922c4.794,0.871 6.537,-0 13.074,-0c5.665,-0.436 11.767,-2.179 17.432,-4.358c10.948,-4.325 21.221,-10.195 30.505,-17.432l2.615,-1.743c3.922,-2.615 -0.436,-1.308 2.179,-4.358c4.358,-3.486 7.408,-6.101 11.331,-10.459c0.871,-0 3.486,-7.844 7.408,-13.074c4.358,-4.358 8.716,-10.459 11.331,-14.381c-0.872,-0 -0,-1.743 0.871,-3.051c9.152,-9.587 13.946,-43.579 16.56,-45.758c10.648,-20.381 19.823,-41.498 27.455,-63.19l1.308,-4.358l0.871,-4.358l0.872,-2.614l3.486,-6.973l1.308,26.583l0.435,17.432l-0.435,14.817l-0.872,2.615c0.436,11.33 0.872,43.579 0,45.758c0,1.307 1.743,17.867 -0.436,39.657l-2.179,27.891l0,1.743l-3.922,0.872l-15.253,5.229l-3.486,1.743c-1.743,0.872 -1.307,0 -1.307,0l-5.23,2.615c-2.615,0.872 -2.179,1.307 -3.05,1.743c-0.872,0.436 -0,1.743 -0,1.743l-3.487,0.872l-2.614,0.436l-3.923,1.307c-1.307,0 -1.307,0.872 -4.358,2.179l-6.972,3.486l-4.358,1.744c-2.615,0.871 -0.872,0.871 -2.615,2.179c-1.307,1.307 0,-0.872 -1.307,-0l-4.358,1.307c-0.872,-0 -4.794,3.05 -4.794,3.05l-3.486,1.308c-0,-0 -0.436,-0.436 -0.872,-0l-1.307,3.05l-1.743,1.744l-2.615,-0c-0,0.435 -3.051,1.307 -4.358,2.614l-4.794,2.179l-1.307,0c-1.308,0 -1.743,1.308 -2.615,1.743l-3.486,2.615l-4.358,2.179c-1.743,0.436 -4.358,4.358 -6.973,5.666c-2.615,1.743 -5.665,5.229 -7.844,6.101c-1.743,1.307 -6.973,4.358 -8.716,6.972c-2.615,3.051 -5.665,4.358 -10.023,6.537c-4.358,2.615 -7.845,6.537 -14.817,11.767c-6.537,4.793 -5.23,3.922 -12.202,10.459c-0.436,0.435 -4.358,4.358 -6.101,7.408c-1.308,3.051 -0.872,0 -2.179,2.179c-0.872,2.615 -3.487,3.486 -6.537,6.537l-0,-0.872c-8.716,5.666 -6.101,13.074 -15.253,19.175l0.871,0c-8.715,8.28 -12.637,19.175 -20.482,27.891c-1.743,2.615 -0.871,3.051 -0.871,5.229l-1.744,0l0,3.487c-1.307,3.486 -3.05,8.716 -4.357,10.459c-1.744,1.743 -3.051,5.229 -4.358,8.28l-3.487,9.152c0,2.179 1.308,5.665 1.743,5.665l0,0.436l0.436,2.614l0,3.051l-0.871,-0c1.307,8.716 3.486,16.996 7.408,24.84l3.922,7.844l0,1.308c0,0.436 -0.436,0.871 0.872,3.05c1.743,2.179 4.358,6.101 13.074,10.895c10.008,3.699 20.379,6.329 30.941,7.844l11.331,0l-3.923,-0.435l0.872,-0.872l1.743,0c49.524,0.077 97.14,-19.346 132.481,-54.038l-0.436,1.307l2.179,-2.615c3.922,-4.358 4.794,-3.922 8.716,-8.28l0.872,-0.435c7.844,-7.845 5.665,-7.845 13.074,-14.817c0.435,-0.872 -0,-0 -0,0.435l5.229,-6.101c12.202,-15.252 15.253,-26.147 20.047,-31.813l-0.436,1.308c6.101,-12.202 5.665,-13.074 5.229,-13.074c0,-0 -0.871,0.436 -0.436,-0.436l5.23,-11.33l5.665,-7.845l-0.436,-2.614c0.872,-2.615 3.051,-7.845 3.051,-6.537c1.646,-7.572 0.805,-6.191 0.295,-5.062c-0.095,0.232 -0.193,0.466 -0.295,0.704c0,-0 0.13,-0.339 0.295,-0.704c2.355,-5.741 2.806,-10.043 4.063,-17.164c-0,0 2.179,-4.793 2.179,-6.101l0.436,-6.101l0.871,-8.716c2.179,-1.743 3.051,-15.688 3.487,-23.968l-0,-1.744c2.614,-0.435 4.358,-0.871 5.665,-2.179l9.152,0c1.743,1.744 4.357,0.436 6.536,0.436c6.102,-0.871 6.102,-2.615 12.203,-3.486l-0.872,-0c3.486,-2.615 3.486,-0 6.537,-1.743l1.743,1.743l2.179,-0c1.494,-0.283 2.955,-0.721 4.358,-1.307c0.872,-0 0.872,-0.436 1.307,-0.872c2.179,-1.307 3.487,-3.051 3.487,-3.922c1.307,-1.308 -0.436,-0 -0,-2.615l-1.308,-6.537c2.179,0 0.872,-3.486 -0.871,-6.537c-2.179,-3.486 -5.23,-6.101 -5.666,-8.716l-2.614,-1.743l-4.358,-2.615c-0.872,-0.871 -2.615,-0.871 -4.358,-0.871l-3.486,-0l-13.51,-0.872c2.615,2.179 -7.844,0 -12.202,0l2.615,-65.804l1.743,-50.117c-0,-13.945 1.307,-11.33 -0,-13.945c-0.872,-2.179 -0.872,-11.766 -0.872,-11.766l-0.436,-26.148c0.872,0.436 0,-1.307 0.436,-2.179l0,-14.817l-0.436,-10.895l0.872,-2.614c-0.543,-16.178 -3.48,-32.185 -8.716,-47.502c-2.57,-6.605 -7.142,-12.245 -13.074,-16.124c-0.871,-0 0,0.436 0,1.307l-2.179,-0.871l-4.358,-1.308l-4.793,0l-4.358,-1.307c-5.23,-0 -12.202,1.307 -16.56,4.358c-4.358,3.05 -6.973,6.537 -8.716,7.844c0.871,0 -0,2.179 -3.051,6.973c-11.33,15.253 -4.358,4.358 -11.33,13.074c-0.872,2.614 -3.051,5.665 -5.23,8.715c-2.179,3.487 -3.486,6.102 -3.05,6.537c-2.615,4.794 -3.923,5.666 -5.23,6.973c-14.963,41.466 -32.877,81.807 -53.602,120.715l-0.436,-0c-3.051,4.793 -17.432,23.968 -29.634,39.221c-1.743,-3.051 -2.615,-5.665 -2.179,-6.973c-3.051,-4.793 -4.358,-8.716 -5.665,-12.202l-0,-3.922l-1.744,-5.23c-2.179,-9.587 -2.614,-15.252 -3.922,-21.789l-3.486,-22.226c1.743,6.101 0.436,-10.459 -0,-20.482l-0,-13.074c-0,-20.046 -2.179,-37.914 -3.922,-54.474c-0.867,-8.112 -1.448,-16.251 -1.743,-24.404c0.091,-7.88 -0.492,-15.753 -1.744,-23.533l0,-0.436l-0.435,-0.871c-1.824,-5.243 -4.803,-10.009 -8.716,-13.946c-1.308,-1.743 -4.358,-3.922 -6.973,-4.793c-2.241,-0.775 -4.652,-0.926 -6.973,-0.436c-3.922,-0 -6.536,1.307 -7.844,1.743c-6.973,2.615 -10.459,5.665 -13.509,7.844l-6.973,6.973c-2.179,2.615 -4.358,4.358 -6.973,8.28l-6.972,13.945l-3.487,10.024l-0.436,0.435l0,2.615c-1.307,4.358 -2.614,13.074 -3.486,19.175c-1.307,6.537 -1.307,10.895 -1.307,7.844l-1.308,6.537c-3.657,15.32 -7.58,30.575 -11.766,45.758l-0,1.308l-2.615,13.509l-1.307,6.101c-0.436,2.179 -0.436,-0.871 -4.358,10.024c-5.665,11.766 -0.872,-1.743 -8.716,20.046l-0.872,2.179c-6.972,18.739 -15.688,31.813 -21.789,41.836c-2.615,6.101 -0,0.872 -3.051,5.666l0.872,1.307c-3.487,5.665 -2.615,4.358 -3.051,3.922c-0.871,3.922 -3.922,6.973 -5.229,9.152l-0,-9.588l-1.308,-6.101c-0.435,-3.486 -1.307,-6.537 -1.307,-20.918l-0,-15.688c1.307,-17.868 -0,-19.611 -0,-29.199c-0.436,-3.486 -0.872,-2.179 -0.436,-14.381l1.743,-16.56l1.308,-13.074l-0,-19.61c0.436,-0 1.307,-0 0.436,-4.358c-3.487,-12.202 -6.973,-18.304 -11.331,-24.405c-5.807,-7.292 -14.273,-11.996 -23.533,-13.073c-1.262,-0.468 -2.581,-0.761 -3.922,-0.872c-4.358,0 -15.253,1.307 -20.047,2.179c-7.436,1.589 -14.076,5.758 -18.739,11.766c-3.935,5.396 -6.886,11.445 -8.715,17.868l-5.666,20.046c-1.743,6.973 0,3.922 -3.05,12.203c-0,4.357 -6.101,20.046 -8.716,30.505c-0.872,-0.872 -3.486,5.665 -5.665,9.587c0.871,0 -7.845,23.969 -6.537,27.891l-6.101,13.946l-4.358,13.945l-0.872,2.615l0,2.179l-0.872,3.05l-2.614,15.253l-0.872,2.615l0,0.435l-0.871,-0.871c-0.872,-1.743 -1.308,-10.023 -2.179,-12.202l-1.744,-7.409l-0.435,-3.05l-0,-12.638c-0.872,-4.358 -1.744,-5.23 -1.744,-15.689c0,-2.179 -0.435,-8.716 -1.307,-6.973c3.051,-27.89 1.307,-78.442 1.307,-102.847c-1.057,-11.167 -3.547,-22.152 -7.408,-32.684c-2.179,-5.23 -5.23,-10.459 -8.716,-15.253c-4.358,-4.358 -7.844,-7.844 -13.074,-10.023c-6.343,-3.122 -13.504,-4.189 -20.482,-3.051c-2.179,0 -13.074,1.744 -17.432,3.051l-0.871,-0c-2.879,0.124 -5.638,1.197 -7.845,3.051c-3.486,2.178 -6.972,5.665 -10.023,10.459c-3.05,4.357 -5.229,10.023 -7.408,15.252l-2.615,7.409c-1.307,2.615 -0.872,0.436 -1.743,2.615c-5.665,13.073 -11.767,32.684 -20.918,53.602c-0,0 -0,-0.872 -0.436,0c-4.794,14.817 -16.56,42.708 -24.404,63.626l-3.487,9.587l-4.793,12.638l-0.872,0.436l-0.436,0.872l0,-5.23l-1.307,-14.381l-0,-2.615l0.871,-3.05l0.872,-3.487l0.872,-15.252l0.871,1.307l1.308,-29.634c-0,-7.844 -0,-13.074 1.743,-28.327c-0,-17.431 3.05,-13.945 4.358,-31.377l2.614,-4.358l1.308,-11.33c0.436,-4.358 0.871,-10.895 -1.743,-16.996c-4.358,-12.202 -13.074,-21.79 -24.405,-23.969l-3.486,-0.871l-4.358,-0c-3.486,-0 -5.23,1.743 -7.409,2.614c-3.238,1.728 -6.799,2.767 -10.459,3.051l-1.307,0c-0.433,-0.066 -0.874,-0.066 -1.307,0l-2.179,1.743c-1.826,2.322 -3.16,4.991 -3.922,7.844c-0.436,-1.307 -2.179,1.744 -3.487,6.973c-1.531,7.329 -2.551,14.755 -3.05,22.226c-1.308,17.431 -2.615,37.042 -4.358,44.886c-0.872,40.093 -4.358,79.315 -6.973,125.509c1.307,6.101 -0.872,13.509 2.615,11.33c-0.14,5.25 -0.577,10.488 -1.308,15.689Zm623.62,88.901c-4.358,26.148 -8.716,47.938 -18.303,74.085c-4.794,13.074 -13.074,26.148 -20.919,38.35c-7.852,12.449 -17.892,23.374 -29.633,32.249c-7.409,5.229 -11.767,7.408 -15.253,9.587c-3.487,2.179 -6.101,3.486 -11.767,5.665l-4.358,0c-6.536,1.743 -13.073,2.615 -20.482,2.615c-6.081,-0.051 -12.114,-1.081 -17.867,-3.05c-5.23,-1.744 -9.588,-4.358 -12.638,-7.845c-2.615,-3.486 -2.179,-6.972 -3.487,-11.33l-1.743,-6.973l-1.307,-10.895l0.436,-5.665c0.871,-0.872 -1.308,-2.615 -0.872,-3.051l1.743,-2.614c0,-1.308 2.179,-4.358 2.179,-4.794l0,-3.487c-1.743,-0.435 0.436,-4.357 1.308,-7.408l5.229,-7.844l0.436,-0l1.743,-3.922l2.615,-3.487c1.743,-2.614 4.358,-7.408 6.972,-10.459c5.23,-3.05 7.409,-8.716 8.716,-10.459l7.845,-9.587l6.101,-6.973c2.179,-2.615 4.358,-3.05 5.229,-5.229c0.436,-0.436 2.179,-0.872 2.615,-0l4.794,-4.358c-0,-0 1.307,-0 3.486,-1.744l3.051,-2.614l7.408,-4.358l7.844,-5.666c1.744,-1.307 4.358,-3.922 5.666,-4.357l7.844,-4.358c0.871,-0 0.436,-1.308 1.743,-1.744c1.307,-0.871 2.179,0 2.179,0l4.358,-1.743l4.358,-3.486c-0,-0 3.486,-0.872 5.665,-2.615l2.615,-2.179c-0,0 2.179,0 3.922,-0.871c2.179,-0.872 6.537,-2.179 7.409,-3.051l6.972,-0.871l0.872,-1.744l2.179,-0.871c1.743,-0.872 -0.872,-0 -0,-0.872c0.871,-0.436 5.229,0 6.972,-1.743l2.615,-2.179c1.743,-1.307 6.537,-0.436 9.152,-1.743c1.409,-0.475 2.874,-0.768 4.358,-0.872l3.05,0l-3.05,16.56Z" style="fill:#fff;"/></svg>