<svg clip-rule="evenodd" fill-rule="evenodd" stroke-linejoin="round" stroke-miterlimit="2" viewBox="0 0 24 26" xmlns="http://www.w3.org/2000/svg"><path d="m20.938 17.413 3.27 4.839c.847 1.253.536 2.974-.693 3.839-.447.314-.97.483-1.509.488h-18.969c-1.544 0-2.759-1.214-2.759-2.761v-21.046c0-1.522 1.214-2.761 2.709-2.761h12.212c5.232 0 9.487 4.34 9.487 9.674 0 3.291-1.324 6.018-3.748 7.728zm-17.951-14.93c-.155 0-.282.129-.282.289v21.046c0 .165.133.289.332.289h18.945c.055-.001.107-.018.154-.051.062-.043.104-.109.117-.186.014-.076-.002-.153-.045-.217l-3.581-5.297c-.237-.35-.361-.703-.374-1.072-.022-.654.336-1.298.914-1.648 2.185-1.326 3.091-3.442 3.091-5.951 0-3.972-3.167-7.202-7.059-7.202zm5.217 5.84c0-.421.335-.763.748-.763h3.571c2.21 0 3.57.968 3.57 2.868v.069c0 1.762-1.292 2.868-3.537 2.868h-2.137l-2.214 2.249-.001-2.249z" fill="#fff" transform="translate(-.277793 -.010792)"/></svg>