<svg width="100%" height="100%" viewBox="0 0 750 750" version="1.1" xmlns="http://www.w3.org/2000/svg" xmlns:xlink="http://www.w3.org/1999/xlink" xml:space="preserve" xmlns:serif="http://www.serif.com/" style="fill-rule:evenodd;clip-rule:evenodd;stroke-linejoin:round;stroke-miterlimit:2;"><path d="M312.266,235.391c0.533,-0.052 1.08,-0.092 1.666,-0.066c6.589,0 16.146,2.93 25.912,9.284c14.609,9.506 32.995,29.714 37.89,39.675c1.993,4.101 2.891,6.081 -0.716,10.911c-26.419,35.482 -167.487,224.779 -192.656,255.86c-3.138,3.932 -7.682,5.312 -12.396,4.83c-18.633,-4.036 -30.508,-14.752 -34.023,-30.052c-4.141,-16.38 0.82,-32.916 13.711,-53.528c15.534,-24.779 112.695,-173.724 147.213,-226.394c5.156,-7.929 7.435,-10.078 13.399,-10.52Zm322.552,307.903c1.302,2.683 0.729,4.974 -3.308,5.065c-41.914,1.029 -72.513,-14.27 -95.468,-50.729c-45.144,-71.666 -87.253,-141.015 -124.727,-202.304c-19.87,-32.487 -34.44,-57.514 -49.857,-75.964c-15.195,-18.229 -30.104,-28.255 -51.81,-31.419c-15.664,-2.305 -31.041,2.096 -42.916,11.471c-26.289,20.586 -58.659,52.279 -79.141,68.359c-56.484,44.232 -109.844,6.797 -96.719,-7.057c38.073,-40.338 93.086,-92.513 110.066,-142.239c9.622,-28.308 8.815,-58.581 6.223,-118.477l177.357,-0c14.844,39.661 31.524,83.359 47.461,118.346c30.873,67.774 173.438,361.966 202.839,424.948Zm-566.836,70.729l616.289,0l-0.013,1.862c-0.261,36.459 -30.86,68.151 -68.268,68.151l-480.964,0c-36.471,0 -66.758,-31.536 -67.031,-68.033l-0.013,-1.98Z"/></svg>