<svg clip-rule="evenodd" fill-rule="evenodd" stroke-linejoin="round" stroke-miterlimit="2" viewBox="0 0 750 750" xmlns="http://www.w3.org/2000/svg"><path d="m312.266 235.391c.533-.052 1.08-.092 1.666-.066 6.589 0 16.146 2.93 25.912 9.284 14.609 9.506 32.995 29.714 37.89 39.675 1.993 4.101 2.891 6.081-.716 10.911-26.419 35.482-167.487 224.779-192.656 255.86-3.138 3.932-7.682 5.312-12.396 4.83-18.633-4.036-30.508-14.752-34.023-30.052-4.141-16.38.82-32.916 13.711-53.528 15.534-24.779 112.695-173.724 147.213-226.394 5.156-7.929 7.435-10.078 13.399-10.52zm322.552 307.903c1.302 2.683.729 4.974-3.308 5.065-41.914 1.029-72.513-14.27-95.468-50.729-45.144-71.666-87.253-141.015-124.727-202.304-19.87-32.487-34.44-57.514-49.857-75.964-15.195-18.229-30.104-28.255-51.81-31.419-15.664-2.305-31.041 2.096-42.916 11.471-26.289 20.586-58.659 52.279-79.141 68.359-56.484 44.232-109.844 6.797-96.719-7.057 38.073-40.338 93.086-92.513 110.066-142.239 9.622-28.308 8.815-58.581 6.223-118.477h177.357c14.844 39.661 31.524 83.359 47.461 118.346 30.873 67.774 173.438 361.966 202.839 424.948zm-566.836 70.729h616.289l-.013 1.862c-.261 36.459-30.86 68.151-68.268 68.151h-480.964c-36.471 0-66.758-31.536-67.031-68.033l-.013-1.98z"/></svg>