<svg clip-rule="evenodd" fill-rule="evenodd" stroke-linejoin="round" stroke-miterlimit="2" viewBox="0 0 1563 969" xmlns="http://www.w3.org/2000/svg"><g fill-rule="nonzero"><path d="m1234.85 242.631c-.25 2.906-11.5 0-17.781 1.937 9.562 11.344 17.969 21.969 25.406 33.938-10.969-1.25-26.219-11.157-42.437-9.032-1.938.594 1.593 12.375 3.718 21.157 3.188 12.406-10.968-3.907-16.281-7.188-21.094-13.812-64.312-20.969-61.562-59.687-11.438-7.094-23.313-14.094-35.532-20.813-32.5 16.813-63.593 40.125-66.875 77.25-4.531 45.063 37.032 91.406 98.407 79.094 20.812-4 37.906-17.094 56.531-26.75 19.031-10.188 41.187-17.719 62.531-19.844 18.344-2.031 65.719 2.75 65.281-15.875-.187-19.375-25.937-6.187-39.843-6.187 9.656-5.5 12.75-17.907 17.093-29.219-9.125-2.844-15.5-.813-23.312 1.062 5.594-13.031 11.687-27.218 18.875-38.718-7.625-1.063-17.469.531-25.875 3.437 7.344-15.219 15.25-31.25 25.875-43.031h-23.031c13.625-13.375 19.843-35.781 45.343-37.656-2.468-10.188-19.562-3.188-28.437-12.407 17.094-6.187 30.031-17.343 54.219-16.656-1.5-3.344-11.594-15.937-16.563-22.937 12.594 1.25 43.063 2.937 56.875 10.375 11.344-11.532 31.719-15.25 54.375-10.375-4.937 5.75-13.812 7.281-16.812 14.437 20.187 16.75 50.562 23.469 75.562 35.625 0 19.656-13.219 29.125-25.156 41.813-4.719-11.25-21.344-9.032-33.75-12.063-2.938 1.25-3.125 5.688-3.469 9.406 22.156.688 39.344 11.594 58.031 6.813 17.344-4.688 16.657-29.063 35.688-29.5-10.813 8.844-5.406 33.844-18.781 39.781-31.25 4.594-49.063-12.156-72.719-8.156 1.875 12.656 19.937 14.781 29.687 7.625 1.063 7.156 9.907 3.281 11.313 8.844 2.656 10.281-10.875 21.187-16.719 26.125-.812-14.875-24.562-18.782-31.531-11.5-17.719 18.5 36.75 25.875 50.469 46.062-4.25 0-10.625.719-15.063.719.094 9.031 13.313 6.094 19.406 5.469 12.219-1.75 26.125-18.157 29.313-33.375 2.656-12.782-8.313-31.094 11.094-35.438 12.125-.812 13-9.5 22.406-12.687 9.75-5.219-4.531 6.406-1.156 13.312.968 0 1.593-.187 2.406-.187 6.375 0 12.844 3.375 16.281 8.843 4.531-2.656 13.563 2.125 14.813 10.282-5.938-1.594-10.282-2.657-12.5.906-3.375 6.531-2.938 12.312 0 15.656 1.843 1.875 3.906 11.875 3.906 18.688-14-14.594-28.281 16.937-39.969 24.562 2.5 5.125 9.031 6.375 14.813 8.063-3.907 7.156-14.813 6.375-22.688 9.187.438 6.219 15.938 8.875 8.25 10.281-9.062 1.344-18.969 6.469-27.375 2.563-6.375 1.594 8.406 9.5 2.281 10.469-19.562 4.062-54.656-8.25-53.593 4.156 2.312 18.969 23.75 7.625 35.625 5.156 28.875-5.875 76.718-19.25 88.218 25.75-18.5-16.469-10.718 16.031-21.25 24.281-5.5 3.719 0-9.75-3.531-11.156-15.156-5.125-14.375 12.406-23.844 15.844-8.062-45.25-45.968-.594-65.093 7.625-1-5.125-1.063-5.313-1.594-12.125-9.5 3.094-15.156 12.125-22.688 17.094-3.906-3.907-2.75-11.532-4.531-17.094-10.187 5.75-18.781 13.187-29.312 18.5-2.032-4.25-.625-9.813-4.344-16.469-14.344-10.625-45.875-4.25-69.344-5.594.969 12.688 26.906 7.094 38.875 10.719 13.375 4.625 30.656 20.031 24.969 43.063-7.594 28.875-86.813 30.281-45.344 56.968 9.219.344 23.656-12.406 49.438-6.218 7.875 1.781-1.594 5.312-3.469 8.687 4.344 8.875 16.844 9.031 21.969 17.438-4.25 2.5-16.469-1.063-15.594 10.281-28.594-1.844-89.031-.156-89.625-.969-3.281-6.031-7.188-14.094-10.563-22.219-6.187-1.062-20.375 4.25-25.312 2.375-8-2.375 13.625-18.343 15.031-24.875-1.844-5.156-10.531-3.906-16.625-4.531 7.438-14 36.406-21.094 33.563-30.75-3.282-13.969-21.625-14.437-34.469-19.312 6.375 33.312-48.969 31.718-61.375 57.25-.531-6.219-2.656-11.25-5.156-15.063-6.719 4.969-16.188 9.563-19.75 17.813-3.438-2.5.437-11.782-7.438-11.782-16.219.157-33.125 15.657-30.656 19.907 6.125 8.968 19.594-7.969 25.781-6.282 4.875 1.594 5.156 5.5 10.625 6.75 5.594 1.5 11.344-.187 15.063 2.657-.344 2.468-3.875 4.781-6.532 5.125 2.469 9.562 15.407 5.593 19.469 13.625-6.375 0-11.5 4.187-16.219 10.281-17.25-.781-89.812 1.25-92.906-1.156-5.156-3.532-7.344-6.907-8.406-11.313-4.344-15.062 11.687-17.094 17.25-27.906-3.438-4.875-13.625-5.313-20.531-6.75 7.156-11.156 27.718-11.781 38.875-19.563-4.063-3.906-8.594-6.656-16.813-6.218 10.25-19.313 33.906-13 49.594-23.907 18.062-12.562 15.844-34.625 25.781-57.218-42.437 12.5-77.062 35.156-127.906 35.156-56.969 0-96.313-32.5-102.844-79.094-10.281-77.594 47.813-120.906 104.781-146.062-26.937-29.25-55.093-53.157-50.062-100.125 10.812-104.157 221.125-110.188 220.312 4-.25 54.75-50.937 76-89.656 98.062 6.406 5.313 17.469 13.375 20.375 14.625 3.281 1.594 11.969-1.531 19.156-.469 31.969 3.75 44.094 30.032 66.594 46.532zm-81.406-156.375c5.156-40.282-24.094-58.282-57.031-52.25-55.625 10.468-38.969 96.031-1.875 118.625 25.156-11.719 54.75-34.657 58.906-66.375zm276.469 46.625c-13.188 0-26.844-.375-29.032 10.531 9.032-.094 11.938 5.562 22.5 4.062-4.625-8.218 1.75-10.531 6.532-14.593zm39.968 21.593c-5.312-1.062-7-11.156-12.406-6.375-1.156 6.657 8.938 11.782 12.406 6.375z" fill="#ff0001"/><path d="m316.689 80.506-43.656 40.656-4-4.938c-11.938-14-24.719-28.093-40.907-36.937-14.093-7.375-30.312-9.5-45.812-9.5-28-.531-56.875 11.625-73.063 35.531-21 31.094-25.343 70.156-25.437 106.844.094 36.125 4.344 74.219 24.531 104.875 14.875 22.656 42.094 34.812 69.188 34.375 15.687.062 31.375-3.125 45.625-10.469 17.093-9.031 31.531-22.5 44.906-36.5l4.687-4.875 40.125 43.063-3.437 4.531c-16.656 20.812-36.688 39.312-60.938 50.844-24.093 11.687-50.937 15.656-77.687 15.656-44.313.812-90.906-16.281-118.094-52.781-32.156-42.625-40.125-97.813-40.312-149.719.187-52.156 10.093-107.531 43.843-148.531 30.313-37.125 79.282-54.219 126.063-53.438 25.156 0 50.937 3.375 73.531 14.719 23.469 12.125 42.063 31.437 57.656 52.25z"/><path d="m358.689.44h67.938v68.187h-67.938z"/><path d="m658.626 379.912c-21.437 18.969-49.25 31.625-78.031 30.469-20.469 0-42.25-4.594-56.687-19.563-15.25-15.25-19.157-37.562-19.157-58.125v-175.281h-37.906v-53.969h38.531l3-74.562 62.907-12.844-.875 87.406h78.75v53.969h-78.938v154.656c0 8.844.188 17.906 2.125 26.125 2.406 9.5 11.688 15.938 21.625 15.781 15.594 0 28.438-10.375 41-18.437l5.75-4.25 21.438 45.719z"/><path d="m941.22 103.443-99.219 257.688c-2.312 6.843-5.156 13.75-7.718 20.218-3.438 8.594-6.907 17.25-10.282 25.688-7.968 20-15.843 39.312-24.531 58.906l-26.125 58.094h-71.031l3.25-7c1.437-2.813 3.125-5.75 4.719-8.656 6.281-12.688 12.562-25.25 18.406-38.094 6.75-14.969 13.75-30.031 21-44.906 5.125-11.532 10.281-23.032 14.781-35l.188-.375-108.063-286.563h71.656l61.75 177.531c.438 2.125 1.219 4.157 2.125 6.375 1.063 3.282 2.219 7 3.282 10.375 1.218 3.719 2.125 7.157 3.437 10.719l.094-.719c2.844-9.031 5.5-18.062 9.406-26.75l63.844-177.531z"/><path d="m643.376 962.631h-65.375l-.593-5.688c-.813-12.031-1.157-24.187-1.438-36.312v-1.594c-24.25 29.594-58.469 52.094-97.781 50.656-23.75.375-48.469-7.062-64.75-24.969-17.625-18.687-23.406-44.906-23.219-69.812v-214.094h65.906v201.344c.188 12.594 1.407 26.125 9.219 36.844 5.563 8.062 15.5 11.531 24.969 11.187 5.156 0 10.469-.625 15.25-2.312 30.719-11.625 49.594-41.188 67.406-67.313v-179.75h66.438l-.532 239.25c.188 18.875 1.407 37.219 3.719 55.563z"/><path d="m696.095 560.724h68.563v65.375h-68.563z"/><path d="m823.376 560.724h64.938v401.906h-64.938z"/><path d="m1222.91 962.631h-66.532l-1.062-5.5c-1.688-13.188-2.844-26.407-3.281-39.594-10.969 13.375-23.313 25.594-38.813 34.625-18.5 11.062-40.469 15.594-61.906 15.406-30.375.469-61.219-10.875-80.781-33.281-23.032-25.781-31.969-60.25-35.25-93.375-.813-9.219-1-18.531-1-27.813 0-40.843 7.375-84.25 34.562-117.468 22.688-28.782 61.219-43.594 98.688-43.063 18.937 0 38.781 3.188 55.875 11.438 9.843 4.875 18.718 11.437 26.312 18.875-.344-5.313-.437-10.625-.437-16.032v-106.125h69.093v341.407c0 2.468.188 5.125.188 7.437.156 4.063.437 8.406.625 12.563.437 10.625 1.406 21.187 3.094 31.906zm-142.969-55.191c33.281-12.312 53.75-42.625 70.219-71.062 1.062-7.625 1.593-15.407 1.437-23.282 0-16.843-1.25-33.937-6.219-50.218-7.968-29.344-35.406-55.469-68.718-55.469-20.032-.438-40.407 9.469-50.938 25.969-15.406 23.031-18.531 51.468-18.781 78.281.437 25.687 1.312 52.531 14.437 75.562 7.625 14.438 24.094 23.563 41 22.969 6.032 0 11.719-.903 17.563-2.75z"/><path d="m1492.1 680.381-21.344 55.281-6.281-3.531c-21.344-13.657-46.344-24.282-72.187-23.469-13.219.156-26.844 2.281-37.75 10.437-8.407 6.657-12.407 17.719-12.219 27.907-.375 8.593 3.531 17.906 11.594 21.968 4.687 2.469 9.937 4.344 15.593 4.625h.625l.25.157c7.469 1.687 15.063 2.218 22.688 2.937 25.969 3.438 53.344 9.656 73.344 27.531 17.468 15.5 24.093 39.969 23.843 62.907.438 27.812-9.843 56.968-31.531 75.375-23.406 20.187-54.937 26.937-85.219 26.937-36.687.625-73.187-9.844-104.437-29.25l-4.625-2.906 23.75-53.344 5.937 4.094c23.282 14.875 49.688 27 77.688 26.656 13.375 0 27.812-2.75 38.531-11.344 8.688-6.625 13.375-17.718 13.188-28.687.187-9.406-2.032-19.313-9.125-25.688-9.657-7.875-22.407-10.281-34.375-11.781-12.125-1.437-24.094-2.844-36.219-4.687-11.781-2.063-23.031-6.844-32.781-12.844-23.719-13.938-34.532-42.188-34-68.563-.532-27.218 10.093-55.187 30.906-72.75 22.687-19.406 53.406-26.562 82.812-26.562 33.75-.188 67.969 8.406 96.657 25.937z"/><path d="m360.376 103.44h64.406v302h-64.406z"/><path d="m698.126 660.818h64.313v301.813h-64.313z"/><path d="m329.97 635.756-44.812 41.187-4.157-4.531c-13.656-14.688-27.812-29.313-45.718-38.094-15.5-7.687-32.938-9.469-50.032-9.469-30.468-.437-62.625 10.469-81.781 35.625-22.75 29.5-27.906 68.563-28.25 105.219.344 38.094 4.875 79.125 28.25 110.469 18.969 25.687 51.906 36.406 83 35.781 12.156 0 24.469-.344 36.25-3.437 11.5-2.938 22.406-8.5 32.781-14.188v-117.094h68.719v153.157l-3.281 1.937c-43.219 23.313-91.219 38.625-140.656 37.375-49 .813-100.907-15.031-133.688-53.125-35.875-40.656-46.594-96.844-46.594-149.812-.156-52.782 12.157-108.594 48.188-148.719 33.406-37.563 85.156-54.031 134.562-53.781 27.657 0 56.094 3.906 81.344 15.875 24.781 11.156 45.344 29.843 62.25 51z"/></g></svg>