<?xml version="1.0" encoding="UTF-8" standalone="no"?><!DOCTYPE svg PUBLIC "-//W3C//DTD SVG 1.1//EN" "http://www.w3.org/Graphics/SVG/1.1/DTD/svg11.dtd"><svg width="100%" height="100%" viewBox="0 0 1563 969" version="1.1" xmlns="http://www.w3.org/2000/svg" xmlns:xlink="http://www.w3.org/1999/xlink" xml:space="preserve" xmlns:serif="http://www.serif.com/" style="fill-rule:evenodd;clip-rule:evenodd;stroke-linejoin:round;stroke-miterlimit:2;"><g><path d="M1234.85,242.631c-0.25,2.906 -11.5,-0 -17.781,1.937c9.562,11.344 17.969,21.969 25.406,33.938c-10.969,-1.25 -26.219,-11.157 -42.437,-9.032c-1.938,0.594 1.593,12.375 3.718,21.157c3.188,12.406 -10.968,-3.907 -16.281,-7.188c-21.094,-13.812 -64.312,-20.969 -61.562,-59.687c-11.438,-7.094 -23.313,-14.094 -35.532,-20.813c-32.5,16.813 -63.593,40.125 -66.875,77.25c-4.531,45.063 37.032,91.406 98.407,79.094c20.812,-4 37.906,-17.094 56.531,-26.75c19.031,-10.188 41.187,-17.719 62.531,-19.844c18.344,-2.031 65.719,2.75 65.281,-15.875c-0.187,-19.375 -25.937,-6.187 -39.843,-6.187c9.656,-5.5 12.75,-17.907 17.093,-29.219c-9.125,-2.844 -15.5,-0.813 -23.312,1.062c5.594,-13.031 11.687,-27.218 18.875,-38.718c-7.625,-1.063 -17.469,0.531 -25.875,3.437c7.344,-15.219 15.25,-31.25 25.875,-43.031l-23.031,-0c13.625,-13.375 19.843,-35.781 45.343,-37.656c-2.468,-10.188 -19.562,-3.188 -28.437,-12.407c17.094,-6.187 30.031,-17.343 54.219,-16.656c-1.5,-3.344 -11.594,-15.937 -16.563,-22.937c12.594,1.25 43.063,2.937 56.875,10.375c11.344,-11.532 31.719,-15.25 54.375,-10.375c-4.937,5.75 -13.812,7.281 -16.812,14.437c20.187,16.75 50.562,23.469 75.562,35.625c0,19.656 -13.219,29.125 -25.156,41.813c-4.719,-11.25 -21.344,-9.032 -33.75,-12.063c-2.938,1.25 -3.125,5.688 -3.469,9.406c22.156,0.688 39.344,11.594 58.031,6.813c17.344,-4.688 16.657,-29.063 35.688,-29.5c-10.813,8.844 -5.406,33.844 -18.781,39.781c-31.25,4.594 -49.063,-12.156 -72.719,-8.156c1.875,12.656 19.937,14.781 29.687,7.625c1.063,7.156 9.907,3.281 11.313,8.844c2.656,10.281 -10.875,21.187 -16.719,26.125c-0.812,-14.875 -24.562,-18.782 -31.531,-11.5c-17.719,18.5 36.75,25.875 50.469,46.062c-4.25,0 -10.625,0.719 -15.063,0.719c0.094,9.031 13.313,6.094 19.406,5.469c12.219,-1.75 26.125,-18.157 29.313,-33.375c2.656,-12.782 -8.313,-31.094 11.094,-35.438c12.125,-0.812 13,-9.5 22.406,-12.687c9.75,-5.219 -4.531,6.406 -1.156,13.312c0.968,0 1.593,-0.187 2.406,-0.187c6.375,-0 12.844,3.375 16.281,8.843c4.531,-2.656 13.563,2.125 14.813,10.282c-5.938,-1.594 -10.282,-2.657 -12.5,0.906c-3.375,6.531 -2.938,12.312 -0,15.656c1.843,1.875 3.906,11.875 3.906,18.688c-14,-14.594 -28.281,16.937 -39.969,24.562c2.5,5.125 9.031,6.375 14.813,8.063c-3.907,7.156 -14.813,6.375 -22.688,9.187c0.438,6.219 15.938,8.875 8.25,10.281c-9.062,1.344 -18.969,6.469 -27.375,2.563c-6.375,1.594 8.406,9.5 2.281,10.469c-19.562,4.062 -54.656,-8.25 -53.593,4.156c2.312,18.969 23.75,7.625 35.625,5.156c28.875,-5.875 76.718,-19.25 88.218,25.75c-18.5,-16.469 -10.718,16.031 -21.25,24.281c-5.5,3.719 0,-9.75 -3.531,-11.156c-15.156,-5.125 -14.375,12.406 -23.844,15.844c-8.062,-45.25 -45.968,-0.594 -65.093,7.625c-1,-5.125 -1.063,-5.313 -1.594,-12.125c-9.5,3.094 -15.156,12.125 -22.688,17.094c-3.906,-3.907 -2.75,-11.532 -4.531,-17.094c-10.187,5.75 -18.781,13.187 -29.312,18.5c-2.032,-4.25 -0.625,-9.813 -4.344,-16.469c-14.344,-10.625 -45.875,-4.25 -69.344,-5.594c0.969,12.688 26.906,7.094 38.875,10.719c13.375,4.625 30.656,20.031 24.969,43.063c-7.594,28.875 -86.813,30.281 -45.344,56.968c9.219,0.344 23.656,-12.406 49.438,-6.218c7.875,1.781 -1.594,5.312 -3.469,8.687c4.344,8.875 16.844,9.031 21.969,17.438c-4.25,2.5 -16.469,-1.063 -15.594,10.281c-28.594,-1.844 -89.031,-0.156 -89.625,-0.969c-3.281,-6.031 -7.188,-14.094 -10.563,-22.219c-6.187,-1.062 -20.375,4.25 -25.312,2.375c-8,-2.375 13.625,-18.343 15.031,-24.875c-1.844,-5.156 -10.531,-3.906 -16.625,-4.531c7.438,-14 36.406,-21.094 33.563,-30.75c-3.282,-13.969 -21.625,-14.437 -34.469,-19.312c6.375,33.312 -48.969,31.718 -61.375,57.25c-0.531,-6.219 -2.656,-11.25 -5.156,-15.063c-6.719,4.969 -16.188,9.563 -19.75,17.813c-3.438,-2.5 0.437,-11.782 -7.438,-11.782c-16.219,0.157 -33.125,15.657 -30.656,19.907c6.125,8.968 19.594,-7.969 25.781,-6.282c4.875,1.594 5.156,5.5 10.625,6.75c5.594,1.5 11.344,-0.187 15.063,2.657c-0.344,2.468 -3.875,4.781 -6.532,5.125c2.469,9.562 15.407,5.593 19.469,13.625c-6.375,-0 -11.5,4.187 -16.219,10.281c-17.25,-0.781 -89.812,1.25 -92.906,-1.156c-5.156,-3.532 -7.344,-6.907 -8.406,-11.313c-4.344,-15.062 11.687,-17.094 17.25,-27.906c-3.438,-4.875 -13.625,-5.313 -20.531,-6.75c7.156,-11.156 27.718,-11.781 38.875,-19.563c-4.063,-3.906 -8.594,-6.656 -16.813,-6.218c10.25,-19.313 33.906,-13 49.594,-23.907c18.062,-12.562 15.844,-34.625 25.781,-57.218c-42.437,12.5 -77.062,35.156 -127.906,35.156c-56.969,-0 -96.313,-32.5 -102.844,-79.094c-10.281,-77.594 47.813,-120.906 104.781,-146.062c-26.937,-29.25 -55.093,-53.157 -50.062,-100.125c10.812,-104.157 221.125,-110.188 220.312,4c-0.25,54.75 -50.937,76 -89.656,98.062c6.406,5.313 17.469,13.375 20.375,14.625c3.281,1.594 11.969,-1.531 19.156,-0.469c31.969,3.75 44.094,30.032 66.594,46.532Zm-81.406,-156.375c5.156,-40.282 -24.094,-58.282 -57.031,-52.25c-55.625,10.468 -38.969,96.031 -1.875,118.625c25.156,-11.719 54.75,-34.657 58.906,-66.375Zm276.469,46.625c-13.188,-0 -26.844,-0.375 -29.032,10.531c9.032,-0.094 11.938,5.562 22.5,4.062c-4.625,-8.218 1.75,-10.531 6.532,-14.593Zm39.968,21.593c-5.312,-1.062 -7,-11.156 -12.406,-6.375c-1.156,6.657 8.938,11.782 12.406,6.375Z" style="fill:#ff0001;fill-rule:nonzero;"/><g><path d="M316.689,80.506l-43.656,40.656l-4,-4.938c-11.938,-14 -24.719,-28.093 -40.907,-36.937c-14.093,-7.375 -30.312,-9.5 -45.812,-9.5c-28,-0.531 -56.875,11.625 -73.063,35.531c-21,31.094 -25.343,70.156 -25.437,106.844c0.094,36.125 4.344,74.219 24.531,104.875c14.875,22.656 42.094,34.812 69.188,34.375c15.687,0.062 31.375,-3.125 45.625,-10.469c17.093,-9.031 31.531,-22.5 44.906,-36.5l4.687,-4.875l40.125,43.063l-3.437,4.531c-16.656,20.812 -36.688,39.312 -60.938,50.844c-24.093,11.687 -50.937,15.656 -77.687,15.656c-44.313,0.812 -90.906,-16.281 -118.094,-52.781c-32.156,-42.625 -40.125,-97.813 -40.312,-149.719c0.187,-52.156 10.093,-107.531 43.843,-148.531c30.313,-37.125 79.282,-54.219 126.063,-53.438c25.156,0 50.937,3.375 73.531,14.719c23.469,12.125 42.063,31.437 57.656,52.25l3.188,4.344Z" style="fill-rule:nonzero;"/><rect x="358.689" y="0.44" width="67.938" height="68.187" style="fill-rule:nonzero;"/><path d="M658.626,379.912c-21.437,18.969 -49.25,31.625 -78.031,30.469c-20.469,-0 -42.25,-4.594 -56.687,-19.563c-15.25,-15.25 -19.157,-37.562 -19.157,-58.125l0,-175.281l-37.906,-0l0,-53.969l38.531,0l3,-74.562l62.907,-12.844l-0.875,87.406l78.75,0l-0,53.969l-78.938,-0l0,154.656c0,8.844 0.188,17.906 2.125,26.125c2.406,9.5 11.688,15.938 21.625,15.781c15.594,0 28.438,-10.375 41,-18.437l5.75,-4.25l21.438,45.719l-3.532,2.906Z" style="fill-rule:nonzero;"/><path d="M941.22,103.443l-99.219,257.688c-2.312,6.843 -5.156,13.75 -7.718,20.218c-3.438,8.594 -6.907,17.25 -10.282,25.688c-7.968,20 -15.843,39.312 -24.531,58.906l-26.125,58.094l-71.031,-0l3.25,-7c1.437,-2.813 3.125,-5.75 4.719,-8.656c6.281,-12.688 12.562,-25.25 18.406,-38.094c6.75,-14.969 13.75,-30.031 21,-44.906c5.125,-11.532 10.281,-23.032 14.781,-35l0.188,-0.375l-108.063,-286.563l71.656,0l61.75,177.531c0.438,2.125 1.219,4.157 2.125,6.375c1.063,3.282 2.219,7 3.282,10.375c1.218,3.719 2.125,7.157 3.437,10.719l0.094,-0.719c2.844,-9.031 5.5,-18.062 9.406,-26.75l63.844,-177.531l69.031,0Z" style="fill-rule:nonzero;"/><path d="M643.376,962.631l-65.375,-0l-0.593,-5.688c-0.813,-12.031 -1.157,-24.187 -1.438,-36.312l0,-1.594c-24.25,29.594 -58.469,52.094 -97.781,50.656c-23.75,0.375 -48.469,-7.062 -64.75,-24.969c-17.625,-18.687 -23.406,-44.906 -23.219,-69.812l0,-214.094l65.906,0l0,201.344c0.188,12.594 1.407,26.125 9.219,36.844c5.563,8.062 15.5,11.531 24.969,11.187c5.156,0 10.469,-0.625 15.25,-2.312c30.719,-11.625 49.594,-41.188 67.406,-67.313l0,-179.75l66.438,0l-0.532,239.25c0.188,18.875 1.407,37.219 3.719,55.563l0.781,7Z" style="fill-rule:nonzero;"/><rect x="696.095" y="560.724" width="68.563" height="65.375" style="fill-rule:nonzero;"/><rect x="823.376" y="560.724" width="64.938" height="401.906" style="fill-rule:nonzero;"/><path d="M1222.91,962.631l-66.532,-0l-1.062,-5.5c-1.688,-13.188 -2.844,-26.407 -3.281,-39.594c-10.969,13.375 -23.313,25.594 -38.813,34.625c-18.5,11.062 -40.469,15.594 -61.906,15.406c-30.375,0.469 -61.219,-10.875 -80.781,-33.281c-23.032,-25.781 -31.969,-60.25 -35.25,-93.375c-0.813,-9.219 -1,-18.531 -1,-27.813c-0,-40.843 7.375,-84.25 34.562,-117.468c22.688,-28.782 61.219,-43.594 98.688,-43.063c18.937,0 38.781,3.188 55.875,11.438c9.843,4.875 18.718,11.437 26.312,18.875c-0.344,-5.313 -0.437,-10.625 -0.437,-16.032l-0,-106.125l69.093,0l0,341.407c0,2.468 0.188,5.125 0.188,7.437c0.156,4.063 0.437,8.406 0.625,12.563c0.437,10.625 1.406,21.187 3.094,31.906l0.625,8.594Zm-142.969,-55.191c33.281,-12.312 53.75,-42.625 70.219,-71.062c1.062,-7.625 1.593,-15.407 1.437,-23.282c0,-16.843 -1.25,-33.937 -6.219,-50.218c-7.968,-29.344 -35.406,-55.469 -68.718,-55.469c-20.032,-0.438 -40.407,9.469 -50.938,25.969c-15.406,23.031 -18.531,51.468 -18.781,78.281c0.437,25.687 1.312,52.531 14.437,75.562c7.625,14.438 24.094,23.563 41,22.969c6.032,0 11.719,-0.903 17.563,-2.75Z" style="fill-rule:nonzero;"/><path d="M1492.1,680.381l-21.344,55.281l-6.281,-3.531c-21.344,-13.657 -46.344,-24.282 -72.187,-23.469c-13.219,0.156 -26.844,2.281 -37.75,10.437c-8.407,6.657 -12.407,17.719 -12.219,27.907c-0.375,8.593 3.531,17.906 11.594,21.968c4.687,2.469 9.937,4.344 15.593,4.625l0.625,0l0.25,0.157c7.469,1.687 15.063,2.218 22.688,2.937c25.969,3.438 53.344,9.656 73.344,27.531c17.468,15.5 24.093,39.969 23.843,62.907c0.438,27.812 -9.843,56.968 -31.531,75.375c-23.406,20.187 -54.937,26.937 -85.219,26.937c-36.687,0.625 -73.187,-9.844 -104.437,-29.25l-4.625,-2.906l23.75,-53.344l5.937,4.094c23.282,14.875 49.688,27 77.688,26.656c13.375,0 27.812,-2.75 38.531,-11.344c8.688,-6.625 13.375,-17.718 13.188,-28.687c0.187,-9.406 -2.032,-19.313 -9.125,-25.688c-9.657,-7.875 -22.407,-10.281 -34.375,-11.781c-12.125,-1.437 -24.094,-2.844 -36.219,-4.687c-11.781,-2.063 -23.031,-6.844 -32.781,-12.844c-23.719,-13.938 -34.532,-42.188 -34,-68.563c-0.532,-27.218 10.093,-55.187 30.906,-72.75c22.687,-19.406 53.406,-26.562 82.812,-26.562c33.75,-0.188 67.969,8.406 96.657,25.937l4.687,2.657Z" style="fill-rule:nonzero;"/><rect x="360.376" y="103.44" width="64.406" height="302" style="fill-rule:nonzero;"/><rect x="698.126" y="660.818" width="64.313" height="301.813" style="fill-rule:nonzero;"/><path d="M329.97,635.756l-44.812,41.187l-4.157,-4.531c-13.656,-14.688 -27.812,-29.313 -45.718,-38.094c-15.5,-7.687 -32.938,-9.469 -50.032,-9.469c-30.468,-0.437 -62.625,10.469 -81.781,35.625c-22.75,29.5 -27.906,68.563 -28.25,105.219c0.344,38.094 4.875,79.125 28.25,110.469c18.969,25.687 51.906,36.406 83,35.781c12.156,0 24.469,-0.344 36.25,-3.437c11.5,-2.938 22.406,-8.5 32.781,-14.188l0,-117.094l68.719,0l0,153.157l-3.281,1.937c-43.219,23.313 -91.219,38.625 -140.656,37.375c-49,0.813 -100.907,-15.031 -133.688,-53.125c-35.875,-40.656 -46.594,-96.844 -46.594,-149.812c-0.156,-52.782 12.157,-108.594 48.188,-148.719c33.406,-37.563 85.156,-54.031 134.562,-53.781c27.657,-0 56.094,3.906 81.344,15.875c24.781,11.156 45.344,29.843 62.25,51l3.625,4.625Z" style="fill-rule:nonzero;"/></g></g></svg>